<?xml version="1.0" encoding="UTF-8" standalone="no"?>
<!DOCTYPE svg PUBLIC "-//W3C//DTD SVG 1.1//EN"
 "http://www.w3.org/Graphics/SVG/1.1/DTD/svg11.dtd">
<!-- Generated by graphviz version 7.1.0 (0)
 -->
<!-- Title: cluster0blocker.py Pages: 1 -->
<svg width="1711pt" height="547pt"
 viewBox="0.00 0.00 1711.00 546.50" xmlns="http://www.w3.org/2000/svg" xmlns:xlink="http://www.w3.org/1999/xlink">
<g id="graph0" class="graph" transform="scale(1 1) rotate(0) translate(4 542.5)">
<title>cluster0blocker.py</title>
<polygon fill="white" stroke="none" points="-4,4 -4,-542.5 1707,-542.5 1707,4 -4,4"/>
<text text-anchor="middle" x="851.5" y="-7.8" font-family="DejaVu Sans Mono" font-size="14.00">blocker.py</text>
<g id="clust1" class="cluster">
<title>cluster_4</title>
<polygon fill="purple" stroke="purple" points="961,-114 961,-166 1035,-166 1035,-114 961,-114"/>
</g>
<g id="clust2" class="cluster">
<title>cluster_3</title>
<polygon fill="purple" stroke="purple" points="692,-31 692,-83 882,-83 882,-31 692,-31"/>
</g>
<g id="clust3" class="cluster">
<title>cluster_2</title>
<polygon fill="purple" stroke="purple" points="407,-264 407,-316 755,-316 755,-264 407,-264"/>
</g>
<g id="clust4" class="cluster">
<title>cluster_KEY</title>
<polygon fill="none" stroke="black" points="1314,-264 1314,-530.5 1695,-530.5 1695,-264 1314,-264"/>
<text text-anchor="middle" x="1504.5" y="-515.3" font-family="DejaVu Sans Mono" font-size="14.00">KEY</text>
</g>
<!-- 1 -->
<g id="node1" class="node">
<title>1</title>
<polygon fill="#fffb81" stroke="black" points="846,-523 458,-523 458,-440 846,-440 846,-523"/>
<text text-anchor="start" x="466" y="-507.8" font-family="DejaVu Sans Mono" font-size="14.00">&quot;&quot;&quot;</text>
<text text-anchor="start" x="466" y="-492.8" font-family="DejaVu Sans Mono" font-size="14.00">Blocks connections between client and server.</text>
<text text-anchor="start" x="466" y="-477.8" font-family="DejaVu Sans Mono" font-size="14.00">&quot;&quot;&quot;</text>
<text text-anchor="start" x="466" y="-462.8" font-family="DejaVu Sans Mono" font-size="14.00">import socket</text>
<text text-anchor="middle" x="652" y="-447.8" font-family="DejaVu Sans Mono" font-size="14.00">server_port = 6789</text>
</g>
<!-- 2 -->
<g id="node2" class="node">
<title>2</title>
<polygon fill="orange" stroke="black" points="652,-423 0,-385 652,-347 1304,-385 652,-423"/>
<polyline fill="none" stroke="black" points="11.98,-385.7 11.98,-384.3"/>
<polyline fill="none" stroke="black" points="640.02,-347.7 663.98,-347.7"/>
<polyline fill="none" stroke="black" points="1292.02,-384.3 1292.02,-385.7"/>
<polyline fill="none" stroke="black" points="663.98,-422.3 640.02,-422.3"/>
<text text-anchor="middle" x="652" y="-388.8" font-family="DejaVu Sans Mono" font-size="14.00">client_socket = socket.socket(family=socket.AF_INET, type=socket.SOCK_STREAM)</text>
<text text-anchor="middle" x="652" y="-373.8" font-family="DejaVu Sans Mono" font-size="14.00">client_socket.connect((&#39;&#39;, server_port))</text>
</g>
<!-- 1&#45;&gt;2 -->
<g id="edge11" class="edge">
<title>1&#45;&gt;2</title>
<path fill="none" stroke="black" d="M652,-439.6C652,-438 652,-436.39 652,-434.78"/>
<polygon fill="black" stroke="black" points="655.5,-434.9 652,-424.9 648.5,-434.9 655.5,-434.9"/>
</g>
<!-- 6 -->
<g id="node8" class="node">
<title>6</title>
<polygon fill="#e552ff" stroke="#e552ff" points="539,-308 427,-308 427,-312 415,-312 415,-272 539,-272 539,-308"/>
<polyline fill="none" stroke="#e552ff" points="415,-308 427,-308"/>
<text text-anchor="middle" x="477" y="-286.3" font-family="DejaVu Sans Mono" font-size="14.00">socket.socket</text>
</g>
<!-- 2&#45;&gt;6 -->
<g id="edge5" class="edge">
<title>2&#45;&gt;6</title>
<path fill="none" stroke="black" stroke-dasharray="5,2" d="M588.82,-350.42C565.87,-338.23 540.5,-324.75 519.73,-313.71"/>
<polygon fill="black" stroke="black" points="521.44,-310.66 510.97,-309.05 518.16,-316.84 521.44,-310.66"/>
<text text-anchor="middle" x="586" y="-327.8" font-family="DejaVu Sans Mono" font-size="14.00">calls</text>
</g>
<!-- 7 -->
<g id="node9" class="node">
<title>7</title>
<polygon fill="#e552ff" stroke="#e552ff" points="747,-308 569,-308 569,-312 557,-312 557,-272 747,-272 747,-308"/>
<polyline fill="none" stroke="#e552ff" points="557,-308 569,-308"/>
<text text-anchor="middle" x="652" y="-286.3" font-family="DejaVu Sans Mono" font-size="14.00">client_socket.connect</text>
</g>
<!-- 2&#45;&gt;7 -->
<g id="edge6" class="edge">
<title>2&#45;&gt;7</title>
<path fill="none" stroke="black" stroke-dasharray="5,2" d="M652,-346.71C652,-337.64 652,-328.09 652,-319.5"/>
<polygon fill="black" stroke="black" points="655.5,-319.67 652,-309.67 648.5,-319.67 655.5,-319.67"/>
<text text-anchor="middle" x="673" y="-327.8" font-family="DejaVu Sans Mono" font-size="14.00">calls</text>
</g>
<!-- 8 -->
<g id="node10" class="node">
<title>8</title>
<polygon fill="#ffbe52" stroke="black" points="925.11,-290 885.05,-308 804.95,-308 764.89,-290 804.95,-272 885.05,-272 925.11,-290"/>
<text text-anchor="middle" x="845" y="-286.3" font-family="DejaVu Sans Mono" font-size="14.00">while True:</text>
</g>
<!-- 2&#45;&gt;8 -->
<g id="edge10" class="edge">
<title>2&#45;&gt;8</title>
<path fill="none" stroke="black" d="M721.4,-350.56C747.08,-338.18 775.55,-324.47 798.68,-313.32"/>
<polygon fill="black" stroke="black" points="800.05,-316.54 807.54,-309.05 797.01,-310.24 800.05,-316.54"/>
</g>
<!-- 4 -->
<g id="node3" class="node">
<title>4</title>
<polygon fill="#fffb81" stroke="black" points="1105.5,-233 890.5,-233 890.5,-197 1105.5,-197 1105.5,-233"/>
<text text-anchor="middle" x="998" y="-211.3" font-family="DejaVu Sans Mono" font-size="14.00">print(&#39;Blocker stopped&#39;)</text>
</g>
<!-- 5 -->
<g id="node4" class="node">
<title>5</title>
<polygon fill="#e552ff" stroke="#e552ff" points="1027,-158 981,-158 981,-162 969,-162 969,-122 1027,-122 1027,-158"/>
<polyline fill="none" stroke="#e552ff" points="969,-158 981,-158"/>
<text text-anchor="middle" x="998" y="-136.3" font-family="DejaVu Sans Mono" font-size="14.00">print</text>
</g>
<!-- 4&#45;&gt;5 -->
<g id="edge1" class="edge">
<title>4&#45;&gt;5</title>
<path fill="none" stroke="black" stroke-dasharray="5,2" d="M998,-196.7C998,-188.67 998,-178.9 998,-169.8"/>
<polygon fill="black" stroke="black" points="1001.5,-169.94 998,-159.94 994.5,-169.94 1001.5,-169.94"/>
<text text-anchor="middle" x="1019" y="-177.8" font-family="DejaVu Sans Mono" font-size="14.00">calls</text>
</g>
<!-- 3 -->
<g id="node5" class="node">
<title>3</title>
<polygon fill="#fffb81" stroke="black" points="948,-158 758,-158 758,-122 948,-122 948,-158"/>
<text text-anchor="middle" x="853" y="-136.3" font-family="DejaVu Sans Mono" font-size="14.00">client_socket.close()</text>
</g>
<!-- 4&#45;&gt;3 -->
<g id="edge4" class="edge">
<title>4&#45;&gt;3</title>
<path fill="none" stroke="black" d="M963.27,-196.51C943.61,-186.62 918.82,-174.14 897.72,-163.51"/>
<polygon fill="black" stroke="black" points="899.56,-160.52 889.05,-159.15 896.41,-166.77 899.56,-160.52"/>
</g>
<!-- 11 -->
<g id="node6" class="node">
<title>11</title>
<polygon fill="#e552ff" stroke="#e552ff" points="873.5,-75 712.5,-75 712.5,-79 700.5,-79 700.5,-39 873.5,-39 873.5,-75"/>
<polyline fill="none" stroke="#e552ff" points="700.5,-75 712.5,-75"/>
<text text-anchor="middle" x="787" y="-53.3" font-family="DejaVu Sans Mono" font-size="14.00">client_socket.close</text>
</g>
<!-- 3&#45;&gt;11 -->
<g id="edge2" class="edge">
<title>3&#45;&gt;11</title>
<path fill="none" stroke="black" stroke-dasharray="5,2" d="M839,-121.82C830.05,-110.84 818.27,-96.38 808.18,-84"/>
<polygon fill="black" stroke="black" points="811.19,-82.15 802.16,-76.61 805.76,-86.57 811.19,-82.15"/>
<text text-anchor="middle" x="846" y="-94.8" font-family="DejaVu Sans Mono" font-size="14.00">calls</text>
</g>
<!-- 12 -->
<g id="node7" class="node">
<title>12</title>
<polygon fill="#fffb81" stroke="black" points="946,-75 892,-75 892,-39 946,-39 946,-75"/>
</g>
<!-- 3&#45;&gt;12 -->
<g id="edge3" class="edge">
<title>3&#45;&gt;12</title>
<path fill="none" stroke="black" d="M867,-121.82C875.95,-110.84 887.73,-96.38 897.82,-84"/>
<polygon fill="black" stroke="black" points="900.24,-86.57 903.84,-76.61 894.81,-82.15 900.24,-86.57"/>
</g>
<!-- 8&#45;&gt;8 -->
<g id="edge9" class="edge">
<title>8&#45;&gt;8</title>
<path fill="none" stroke="green" d="M908.82,-297.77C928.17,-297.57 943.3,-294.98 943.3,-290 943.3,-286.03 933.7,-283.58 920,-282.65"/>
<polygon fill="green" stroke="green" points="920.45,-279.16 910.33,-282.29 920.2,-286.16 920.45,-279.16"/>
<text text-anchor="middle" x="960.3" y="-286.3" font-family="DejaVu Sans Mono" font-size="14.00">True</text>
</g>
<!-- 10 -->
<g id="node11" class="node">
<title>10</title>
<polygon fill="#fffb81" stroke="black" points="872,-233 818,-233 818,-197 872,-197 872,-233"/>
</g>
<!-- 8&#45;&gt;10 -->
<g id="edge8" class="edge">
<title>8&#45;&gt;10</title>
<path fill="none" stroke="red" d="M845,-271.7C845,-263.67 845,-253.9 845,-244.8"/>
<polygon fill="red" stroke="red" points="848.5,-244.94 845,-234.94 841.5,-244.94 848.5,-244.94"/>
<text text-anchor="middle" x="874" y="-244.8" font-family="DejaVu Sans Mono" font-size="14.00">(False)</text>
</g>
<!-- 10&#45;&gt;3 -->
<g id="edge7" class="edge">
<title>10&#45;&gt;3</title>
<path fill="none" stroke="black" d="M846.9,-196.7C847.78,-188.67 848.85,-178.9 849.84,-169.8"/>
<polygon fill="black" stroke="black" points="853.31,-170.26 850.93,-159.93 846.36,-169.49 853.31,-170.26"/>
</g>
<!-- input -->
<g id="node12" class="node">
<title>input</title>
<polygon fill="#afeeee" stroke="black" points="1687.04,-403 1599.48,-403 1576.96,-367 1664.52,-367 1687.04,-403"/>
<text text-anchor="middle" x="1632" y="-381.3" font-family="DejaVu Sans Mono" font-size="14.00">input</text>
</g>
<!-- call -->
<g id="node17" class="node">
<title>call</title>
<polygon fill="#e552ff" stroke="black" points="1659,-308 1617,-308 1617,-312 1605,-312 1605,-272 1659,-272 1659,-308"/>
<polyline fill="none" stroke="black" points="1605,-308 1617,-308"/>
<text text-anchor="middle" x="1632" y="-286.3" font-family="DejaVu Sans Mono" font-size="14.00">call</text>
</g>
<!-- input&#45;&gt;call -->
<!-- default -->
<g id="node13" class="node">
<title>default</title>
<polygon fill="#fffb81" stroke="black" points="1533,-308 1459,-308 1459,-272 1533,-272 1533,-308"/>
<text text-anchor="middle" x="1496" y="-286.3" font-family="DejaVu Sans Mono" font-size="14.00">default</text>
</g>
<!-- if -->
<g id="node14" class="node">
<title>if</title>
<polygon fill="#ff6752" stroke="black" points="1632,-499.5 1601.83,-481.5 1632,-463.5 1662.17,-481.5 1632,-499.5"/>
<text text-anchor="middle" x="1632" y="-477.8" font-family="DejaVu Sans Mono" font-size="14.00">if</text>
</g>
<!-- if&#45;&gt;input -->
<!-- for -->
<g id="node15" class="node">
<title>for</title>
<polygon fill="#ffbe52" stroke="black" points="1582.54,-481.5 1567.27,-499.5 1536.73,-499.5 1521.46,-481.5 1536.73,-463.5 1567.27,-463.5 1582.54,-481.5"/>
<text text-anchor="middle" x="1552" y="-477.8" font-family="DejaVu Sans Mono" font-size="14.00">for</text>
</g>
<!-- return -->
<g id="node18" class="node">
<title>return</title>
<polygon fill="#98fb98" stroke="black" points="1558.79,-403 1458.91,-403 1433.21,-367 1533.09,-367 1558.79,-403"/>
<text text-anchor="middle" x="1496" y="-381.3" font-family="DejaVu Sans Mono" font-size="14.00">return</text>
</g>
<!-- for&#45;&gt;return -->
<!-- while -->
<g id="node16" class="node">
<title>while</title>
<polygon fill="#ffbe52" stroke="black" points="1503.56,-481.5 1481.78,-499.5 1438.22,-499.5 1416.44,-481.5 1438.22,-463.5 1481.78,-463.5 1503.56,-481.5"/>
<text text-anchor="middle" x="1460" y="-477.8" font-family="DejaVu Sans Mono" font-size="14.00">while</text>
</g>
<!-- return&#45;&gt;default -->
<!-- try -->
<g id="node19" class="node">
<title>try</title>
<polygon fill="orange" stroke="black" points="1361,-499.5 1323.13,-481.5 1361,-463.5 1398.87,-481.5 1361,-499.5"/>
<polyline fill="none" stroke="black" points="1333.97,-486.65 1333.97,-476.35"/>
<polyline fill="none" stroke="black" points="1350.16,-468.65 1371.84,-468.65"/>
<polyline fill="none" stroke="black" points="1388.03,-476.35 1388.03,-486.65"/>
<polyline fill="none" stroke="black" points="1371.84,-494.35 1350.16,-494.35"/>
<text text-anchor="middle" x="1361" y="-477.8" font-family="DejaVu Sans Mono" font-size="14.00">try</text>
</g>
<!-- raise -->
<g id="node20" class="node">
<title>raise</title>
<polygon fill="#98fb98" stroke="black" points="1415.69,-390.56 1369,-403 1322.31,-390.56 1322.35,-370.44 1415.65,-370.44 1415.69,-390.56"/>
<text text-anchor="middle" x="1369" y="-381.3" font-family="DejaVu Sans Mono" font-size="14.00">raise</text>
</g>
<!-- try&#45;&gt;raise -->
</g>
</svg>
