<?xml version="1.0" encoding="UTF-8" standalone="no"?>
<!DOCTYPE svg PUBLIC "-//W3C//DTD SVG 1.1//EN"
 "http://www.w3.org/Graphics/SVG/1.1/DTD/svg11.dtd">
<!-- Generated by graphviz version 7.1.0 (0)
 -->
<!-- Title: cluster0client_browser.py Pages: 1 -->
<svg width="1842pt" height="931pt"
 viewBox="0.00 0.00 1841.50 931.00" xmlns="http://www.w3.org/2000/svg" xmlns:xlink="http://www.w3.org/1999/xlink">
<g id="graph0" class="graph" transform="scale(1 1) rotate(0) translate(4 927)">
<title>cluster0client_browser.py</title>
<polygon fill="white" stroke="none" points="-4,4 -4,-927 1837.5,-927 1837.5,4 -4,4"/>
<text text-anchor="middle" x="916.75" y="-7.8" font-family="DejaVu Sans Mono" font-size="14.00">client_browser.py</text>
<g id="clust1" class="cluster">
<title>cluster_2</title>
<polygon fill="purple" stroke="purple" points="427,-620 427,-672 497,-672 497,-620 427,-620"/>
</g>
<g id="clust2" class="cluster">
<title>cluster_11</title>
<polygon fill="purple" stroke="purple" points="1677,-114 1677,-166 1751,-166 1751,-114 1677,-114"/>
</g>
<g id="clust3" class="cluster">
<title>cluster_10</title>
<polygon fill="purple" stroke="purple" points="1273,-31 1273,-83 1463,-83 1463,-31 1273,-31"/>
</g>
<g id="clust4" class="cluster">
<title>cluster_9</title>
<polygon fill="purple" stroke="purple" points="211,-31 211,-166 1060,-166 1060,-31 211,-31"/>
</g>
<g id="clust5" class="cluster">
<title>cluster_6</title>
<polygon fill="purple" stroke="purple" points="1314,-363 1314,-415 1584,-415 1584,-363 1314,-363"/>
</g>
<g id="clust6" class="cluster">
<title>cluster_KEY</title>
<polygon fill="none" stroke="black" points="1363,-620 1363,-892.5 1744,-892.5 1744,-620 1363,-620"/>
<text text-anchor="middle" x="1553.5" y="-877.3" font-family="DejaVu Sans Mono" font-size="14.00">KEY</text>
</g>
<!-- 1 -->
<g id="node1" class="node">
<title>1</title>
<polygon fill="#fffb81" stroke="black" points="973,-923 371,-923 371,-764 973,-764 973,-923"/>
<text text-anchor="start" x="379" y="-907.8" font-family="DejaVu Sans Mono" font-size="14.00">&quot;&quot;&quot;</text>
<text text-anchor="start" x="379" y="-892.8" font-family="DejaVu Sans Mono" font-size="14.00">Run with the following command line parameters:</text>
<text text-anchor="start" x="379" y="-877.8" font-family="DejaVu Sans Mono" font-size="14.00">python3 client_browser.py &lt;hostname&gt; &lt;port&gt; &lt;file&gt;</text>
<text text-anchor="start" x="379" y="-846.8" font-family="DejaVu Sans Mono" font-size="14.00">Examples:</text>
<text text-anchor="start" x="379" y="-831.8" font-family="DejaVu Sans Mono" font-size="14.00">$ python3 client_browser.py info.cern.ch 80 &quot;&quot; # defaults to index.html</text>
<text text-anchor="start" x="379" y="-816.8" font-family="DejaVu Sans Mono" font-size="14.00">$ python3 client_browser.py localhost 6789 &quot;hello_world.html&quot;</text>
<text text-anchor="start" x="379" y="-801.8" font-family="DejaVu Sans Mono" font-size="14.00">&quot;&quot;&quot;</text>
<text text-anchor="start" x="379" y="-786.8" font-family="DejaVu Sans Mono" font-size="14.00">import sys</text>
<text text-anchor="middle" x="672" y="-771.8" font-family="DejaVu Sans Mono" font-size="14.00">import socket</text>
</g>
<!-- 2 -->
<g id="node2" class="node">
<title>2</title>
<polygon fill="#ff6752" stroke="black" points="672,-747 490.01,-729 672,-711 853.99,-729 672,-747"/>
<text text-anchor="middle" x="672" y="-725.3" font-family="DejaVu Sans Mono" font-size="14.00">if len(sys.argv) != 4:</text>
</g>
<!-- 1&#45;&gt;2 -->
<g id="edge18" class="edge">
<title>1&#45;&gt;2</title>
<path fill="none" stroke="black" d="M672,-763.75C672,-761.96 672,-760.19 672,-758.48"/>
<polygon fill="black" stroke="black" points="675.5,-758.7 672,-748.7 668.5,-758.7 675.5,-758.7"/>
</g>
<!-- 3 -->
<g id="node3" class="node">
<title>3</title>
<polygon fill="#e552ff" stroke="#e552ff" points="489,-664 447,-664 447,-668 435,-668 435,-628 489,-628 489,-664"/>
<polyline fill="none" stroke="#e552ff" points="435,-664 447,-664"/>
<text text-anchor="middle" x="462" y="-642.3" font-family="DejaVu Sans Mono" font-size="14.00">len</text>
</g>
<!-- 2&#45;&gt;3 -->
<g id="edge1" class="edge">
<title>2&#45;&gt;3</title>
<path fill="none" stroke="black" stroke-dasharray="5,2" d="M604.71,-717.17C571.19,-709.9 530.9,-698.21 498,-680 493.83,-677.69 489.75,-674.8 485.93,-671.7"/>
<polygon fill="black" stroke="black" points="488.48,-669.29 478.68,-665.26 483.83,-674.52 488.48,-669.29"/>
<text text-anchor="middle" x="569" y="-691.8" font-family="DejaVu Sans Mono" font-size="14.00">calls</text>
</g>
<!-- 4 -->
<g id="node4" class="node">
<title>4</title>
<polygon fill="#fffb81" stroke="black" points="837,-680 507,-680 507,-612 837,-612 837,-680"/>
<text text-anchor="start" x="515" y="-664.8" font-family="DejaVu Sans Mono" font-size="14.00">server_hostname = &#39;localhost&#39;</text>
<text text-anchor="start" x="515" y="-649.8" font-family="DejaVu Sans Mono" font-size="14.00">server_ip = &#39;127.0.0.1&#39;</text>
<text text-anchor="start" x="515" y="-634.8" font-family="DejaVu Sans Mono" font-size="14.00">server_port = 6789</text>
<text text-anchor="middle" x="672" y="-619.8" font-family="DejaVu Sans Mono" font-size="14.00">file_name = &#39;web_files/hello_world.html&#39;</text>
</g>
<!-- 2&#45;&gt;4 -->
<g id="edge13" class="edge">
<title>2&#45;&gt;4</title>
<path fill="none" stroke="green" d="M672,-710.82C672,-705.11 672,-698.46 672,-691.65"/>
<polygon fill="green" stroke="green" points="675.5,-691.69 672,-681.69 668.5,-691.69 675.5,-691.69"/>
<text text-anchor="middle" x="746.5" y="-691.8" font-family="DejaVu Sans Mono" font-size="14.00">len(sys.argv) != 4</text>
</g>
<!-- 6 -->
<g id="node16" class="node">
<title>6</title>
<polygon fill="#fffb81" stroke="black" points="1302.5,-680 881.5,-680 881.5,-612 1302.5,-612 1302.5,-680"/>
<text text-anchor="start" x="889.5" y="-664.8" font-family="DejaVu Sans Mono" font-size="14.00">server_hostname = sys.argv[1]</text>
<text text-anchor="start" x="889.5" y="-649.8" font-family="DejaVu Sans Mono" font-size="14.00">server_ip = socket.gethostbyname(server_hostname)</text>
<text text-anchor="start" x="889.5" y="-634.8" font-family="DejaVu Sans Mono" font-size="14.00">server_port = int(sys.argv[2])</text>
<text text-anchor="middle" x="1092" y="-619.8" font-family="DejaVu Sans Mono" font-size="14.00">file_name = sys.argv[3]</text>
</g>
<!-- 2&#45;&gt;6 -->
<g id="edge17" class="edge">
<title>2&#45;&gt;6</title>
<path fill="none" stroke="red" d="M741.04,-717.39C767.36,-713.17 797.62,-708.11 825,-703 858.19,-696.81 893.6,-689.73 927.42,-682.73"/>
<polygon fill="red" stroke="red" points="927.78,-686.23 936.86,-680.76 926.35,-679.37 927.78,-686.23"/>
<text text-anchor="middle" x="981" y="-691.8" font-family="DejaVu Sans Mono" font-size="14.00">(len(sys.argv) == 4)</text>
</g>
<!-- 9 -->
<g id="node5" class="node">
<title>9</title>
<polygon fill="orange" stroke="black" points="652,-581 0,-389 652,-197 1304,-389 652,-581"/>
<polyline fill="none" stroke="black" points="11.51,-392.39 11.51,-385.61"/>
<polyline fill="none" stroke="black" points="640.49,-200.39 663.51,-200.39"/>
<polyline fill="none" stroke="black" points="1292.49,-385.61 1292.49,-392.39"/>
<polyline fill="none" stroke="black" points="663.51,-577.61 640.49,-577.61"/>
<text text-anchor="middle" x="652" y="-469.8" font-family="DejaVu Sans Mono" font-size="14.00">client_socket = socket.socket(family=socket.AF_INET, type=socket.SOCK_STREAM)</text>
<text text-anchor="middle" x="652" y="-454.8" font-family="DejaVu Sans Mono" font-size="14.00">client_socket.connect((server_ip, server_port))</text>
<text text-anchor="end" x="1208.65" y="-439.8" font-family="DejaVu Sans Mono" font-size="14.00">request = f&#39;GET /{file_name} HTTP/1.1</text>
<text text-anchor="end" x="1208.65" y="-408.8" font-family="DejaVu Sans Mono" font-size="14.00">Host:{server_hostname}</text>
<text text-anchor="middle" x="652" y="-345.8" font-family="DejaVu Sans Mono" font-size="14.00">&#39;</text>
<text text-anchor="middle" x="652" y="-330.8" font-family="DejaVu Sans Mono" font-size="14.00">client_socket.send(request.encode())</text>
<text text-anchor="middle" x="652" y="-315.8" font-family="DejaVu Sans Mono" font-size="14.00">data = client_socket.recv(1024).decode()</text>
<text text-anchor="middle" x="652" y="-300.8" font-family="DejaVu Sans Mono" font-size="14.00">print(data)</text>
</g>
<!-- 4&#45;&gt;9 -->
<g id="edge12" class="edge">
<title>4&#45;&gt;9</title>
<path fill="none" stroke="black" d="M669.39,-611.66C668.84,-604.72 668.23,-596.93 667.57,-588.54"/>
<polygon fill="black" stroke="black" points="671.07,-588.38 666.8,-578.69 664.09,-588.93 671.07,-588.38"/>
</g>
<!-- 10 -->
<g id="node8" class="node">
<title>10</title>
<polygon fill="#fffb81" stroke="black" points="1463,-158 1273,-158 1273,-122 1463,-122 1463,-158"/>
<text text-anchor="middle" x="1368" y="-136.3" font-family="DejaVu Sans Mono" font-size="14.00">client_socket.close()</text>
</g>
<!-- 9&#45;&gt;10 -->
<g id="edge11" class="edge">
<title>9&#45;&gt;10</title>
<path fill="none" stroke="black" d="M951.5,-284.68C1083.99,-238.98 1227.47,-189.48 1306.68,-162.15"/>
<polygon fill="black" stroke="black" points="1307.68,-165.51 1315.99,-158.94 1305.4,-158.89 1307.68,-165.51"/>
</g>
<!-- 13 -->
<g id="node10" class="node">
<title>13</title>
<polygon fill="#e552ff" stroke="#e552ff" points="343,-158 231,-158 231,-162 219,-162 219,-122 343,-122 343,-158"/>
<polyline fill="none" stroke="#e552ff" points="219,-158 231,-158"/>
<text text-anchor="middle" x="281" y="-136.3" font-family="DejaVu Sans Mono" font-size="14.00">socket.socket</text>
</g>
<!-- 9&#45;&gt;13 -->
<g id="edge5" class="edge">
<title>9&#45;&gt;13</title>
<path fill="none" stroke="black" stroke-dasharray="5,2" d="M452.65,-255.28C400.21,-220.37 349.26,-186.44 316.68,-164.75"/>
<polygon fill="black" stroke="black" points="318.7,-161.89 308.43,-159.26 314.82,-167.72 318.7,-161.89"/>
<text text-anchor="middle" x="373" y="-177.8" font-family="DejaVu Sans Mono" font-size="14.00">calls</text>
</g>
<!-- 14 -->
<g id="node11" class="node">
<title>14</title>
<polygon fill="#e552ff" stroke="#e552ff" points="551,-158 373,-158 373,-162 361,-162 361,-122 551,-122 551,-158"/>
<polyline fill="none" stroke="#e552ff" points="361,-158 373,-158"/>
<text text-anchor="middle" x="456" y="-136.3" font-family="DejaVu Sans Mono" font-size="14.00">client_socket.connect</text>
</g>
<!-- 9&#45;&gt;14 -->
<g id="edge6" class="edge">
<title>9&#45;&gt;14</title>
<path fill="none" stroke="black" stroke-dasharray="5,2" d="M528.98,-232.97C508.74,-207.46 490.02,-183.87 476.6,-166.97"/>
<polygon fill="black" stroke="black" points="479.62,-165.14 470.66,-159.48 474.14,-169.49 479.62,-165.14"/>
<text text-anchor="middle" x="515" y="-177.8" font-family="DejaVu Sans Mono" font-size="14.00">calls</text>
</g>
<!-- 15 -->
<g id="node12" class="node">
<title>15</title>
<polygon fill="#e552ff" stroke="#e552ff" points="734.5,-158 581.5,-158 581.5,-162 569.5,-162 569.5,-122 734.5,-122 734.5,-158"/>
<polyline fill="none" stroke="#e552ff" points="569.5,-158 581.5,-158"/>
<text text-anchor="middle" x="652" y="-136.3" font-family="DejaVu Sans Mono" font-size="14.00">client_socket.send</text>
</g>
<!-- 9&#45;&gt;15 -->
<g id="edge7" class="edge">
<title>9&#45;&gt;15</title>
<path fill="none" stroke="black" stroke-dasharray="5,2" d="M652,-196.74C652,-186.62 652,-177.37 652,-169.45"/>
<polygon fill="black" stroke="black" points="655.5,-169.66 652,-159.66 648.5,-169.66 655.5,-169.66"/>
<text text-anchor="middle" x="673" y="-177.8" font-family="DejaVu Sans Mono" font-size="14.00">calls</text>
</g>
<!-- 17 -->
<g id="node13" class="node">
<title>17</title>
<polygon fill="#e552ff" stroke="#e552ff" points="975.5,-158 764.5,-158 764.5,-162 752.5,-162 752.5,-122 975.5,-122 975.5,-158"/>
<polyline fill="none" stroke="#e552ff" points="752.5,-158 764.5,-158"/>
<text text-anchor="middle" x="864" y="-136.3" font-family="DejaVu Sans Mono" font-size="14.00">client_socket.recv.decode</text>
</g>
<!-- 9&#45;&gt;17 -->
<g id="edge8" class="edge">
<title>9&#45;&gt;17</title>
<path fill="none" stroke="black" stroke-dasharray="5,2" d="M782.94,-235.44C805.81,-208.8 827.03,-184.08 842.02,-166.61"/>
<polygon fill="black" stroke="black" points="844.42,-169.19 848.28,-159.32 839.11,-164.63 844.42,-169.19"/>
<text text-anchor="middle" x="854" y="-177.8" font-family="DejaVu Sans Mono" font-size="14.00">calls</text>
</g>
<!-- 18 -->
<g id="node14" class="node">
<title>18</title>
<polygon fill="#e552ff" stroke="#e552ff" points="1052,-158 1006,-158 1006,-162 994,-162 994,-122 1052,-122 1052,-158"/>
<polyline fill="none" stroke="#e552ff" points="994,-158 1006,-158"/>
<text text-anchor="middle" x="1023" y="-136.3" font-family="DejaVu Sans Mono" font-size="14.00">print</text>
</g>
<!-- 9&#45;&gt;18 -->
<g id="edge9" class="edge">
<title>9&#45;&gt;18</title>
<path fill="none" stroke="black" stroke-dasharray="5,2" d="M851.35,-255.28C903.79,-220.37 954.74,-186.44 987.32,-164.75"/>
<polygon fill="black" stroke="black" points="989.18,-167.72 995.57,-159.26 985.3,-161.89 989.18,-167.72"/>
<text text-anchor="middle" x="990" y="-177.8" font-family="DejaVu Sans Mono" font-size="14.00">calls</text>
</g>
<!-- 11 -->
<g id="node6" class="node">
<title>11</title>
<polygon fill="#fffb81" stroke="black" points="1833.5,-407 1594.5,-407 1594.5,-371 1833.5,-371 1833.5,-407"/>
<text text-anchor="middle" x="1714" y="-385.3" font-family="DejaVu Sans Mono" font-size="14.00">print(&#39;Exception was: &#39;, e)</text>
</g>
<!-- 12 -->
<g id="node7" class="node">
<title>12</title>
<polygon fill="#e552ff" stroke="#e552ff" points="1743,-158 1697,-158 1697,-162 1685,-162 1685,-122 1743,-122 1743,-158"/>
<polyline fill="none" stroke="#e552ff" points="1685,-158 1697,-158"/>
<text text-anchor="middle" x="1714" y="-136.3" font-family="DejaVu Sans Mono" font-size="14.00">print</text>
</g>
<!-- 11&#45;&gt;12 -->
<g id="edge2" class="edge">
<title>11&#45;&gt;12</title>
<path fill="none" stroke="black" stroke-dasharray="5,2" d="M1714,-370.63C1714,-328.65 1714,-221.31 1714,-169.64"/>
<polygon fill="black" stroke="black" points="1717.5,-169.86 1714,-159.86 1710.5,-169.86 1717.5,-169.86"/>
<text text-anchor="middle" x="1735" y="-177.8" font-family="DejaVu Sans Mono" font-size="14.00">calls</text>
</g>
<!-- 11&#45;&gt;10 -->
<g id="edge4" class="edge">
<title>11&#45;&gt;10</title>
<path fill="none" stroke="black" d="M1707.62,-370.63C1692.82,-332.82 1652.41,-242.83 1588,-197 1554.97,-173.5 1512.97,-159.84 1474.54,-151.91"/>
<polygon fill="black" stroke="black" points="1475.25,-148.49 1464.77,-150.02 1473.92,-155.36 1475.25,-148.49"/>
</g>
<!-- 19 -->
<g id="node9" class="node">
<title>19</title>
<polygon fill="#e552ff" stroke="#e552ff" points="1454.5,-75 1293.5,-75 1293.5,-79 1281.5,-79 1281.5,-39 1454.5,-39 1454.5,-75"/>
<polyline fill="none" stroke="#e552ff" points="1281.5,-75 1293.5,-75"/>
<text text-anchor="middle" x="1368" y="-53.3" font-family="DejaVu Sans Mono" font-size="14.00">client_socket.close</text>
</g>
<!-- 10&#45;&gt;19 -->
<g id="edge3" class="edge">
<title>10&#45;&gt;19</title>
<path fill="none" stroke="black" stroke-dasharray="5,2" d="M1368,-121.82C1368,-111.69 1368,-98.6 1368,-86.92"/>
<polygon fill="black" stroke="black" points="1371.5,-86.95 1368,-76.95 1364.5,-86.95 1371.5,-86.95"/>
<text text-anchor="middle" x="1389" y="-94.8" font-family="DejaVu Sans Mono" font-size="14.00">calls</text>
</g>
<!-- 16 -->
<g id="node15" class="node">
<title>16</title>
<polygon fill="#e552ff" stroke="#e552ff" points="718,-75 598,-75 598,-79 586,-79 586,-39 718,-39 718,-75"/>
<polyline fill="none" stroke="#e552ff" points="586,-75 598,-75"/>
<text text-anchor="middle" x="652" y="-53.3" font-family="DejaVu Sans Mono" font-size="14.00">request.encode</text>
</g>
<!-- 15&#45;&gt;16 -->
<g id="edge10" class="edge">
<title>15&#45;&gt;16</title>
<path fill="none" stroke="black" d="M652,-121.82C652,-111.69 652,-98.6 652,-86.92"/>
<polygon fill="black" stroke="black" points="655.5,-86.95 652,-76.95 648.5,-86.95 655.5,-86.95"/>
</g>
<!-- 6&#45;&gt;9 -->
<g id="edge16" class="edge">
<title>6&#45;&gt;9</title>
<path fill="none" stroke="black" d="M1034.48,-611.66C994.4,-588.44 938.07,-555.79 880.93,-522.68"/>
<polygon fill="black" stroke="black" points="882.73,-519.67 872.32,-517.69 879.22,-525.73 882.73,-519.67"/>
</g>
<!-- 7 -->
<g id="node17" class="node">
<title>7</title>
<polygon fill="#e552ff" stroke="#e552ff" points="1504,-407 1334,-407 1334,-411 1322,-411 1322,-371 1504,-371 1504,-407"/>
<polyline fill="none" stroke="#e552ff" points="1322,-407 1334,-407"/>
<text text-anchor="middle" x="1413" y="-385.3" font-family="DejaVu Sans Mono" font-size="14.00">socket.gethostbyname</text>
</g>
<!-- 6&#45;&gt;7 -->
<g id="edge14" class="edge">
<title>6&#45;&gt;7</title>
<path fill="none" stroke="black" stroke-dasharray="5,2" d="M1261.8,-611.55C1280.22,-603.48 1297.77,-593.45 1313,-581 1365.47,-538.12 1393.74,-460.35 1405.8,-418.5"/>
<polygon fill="black" stroke="black" points="1409.15,-419.49 1408.44,-408.92 1402.41,-417.63 1409.15,-419.49"/>
<text text-anchor="middle" x="1319" y="-592.8" font-family="DejaVu Sans Mono" font-size="14.00">calls</text>
</g>
<!-- 8 -->
<g id="node18" class="node">
<title>8</title>
<polygon fill="#e552ff" stroke="#e552ff" points="1576,-407 1534,-407 1534,-411 1522,-411 1522,-371 1576,-371 1576,-407"/>
<polyline fill="none" stroke="#e552ff" points="1522,-407 1534,-407"/>
<text text-anchor="middle" x="1549" y="-385.3" font-family="DejaVu Sans Mono" font-size="14.00">int</text>
</g>
<!-- 6&#45;&gt;8 -->
<g id="edge15" class="edge">
<title>6&#45;&gt;8</title>
<path fill="none" stroke="black" stroke-dasharray="5,2" d="M1302.77,-618.26C1403.72,-604.53 1504.67,-589.04 1513,-581 1556.97,-538.56 1556.75,-460.56 1552.85,-418.57"/>
<polygon fill="black" stroke="black" points="1556.34,-418.33 1551.79,-408.76 1549.38,-419.08 1556.34,-418.33"/>
<text text-anchor="middle" x="1506" y="-592.8" font-family="DejaVu Sans Mono" font-size="14.00">calls</text>
</g>
<!-- input -->
<g id="node19" class="node">
<title>input</title>
<polygon fill="#afeeee" stroke="black" points="1736.04,-747 1648.48,-747 1625.96,-711 1713.52,-711 1736.04,-747"/>
<text text-anchor="middle" x="1681" y="-725.3" font-family="DejaVu Sans Mono" font-size="14.00">input</text>
</g>
<!-- call -->
<g id="node24" class="node">
<title>call</title>
<polygon fill="#e552ff" stroke="black" points="1708,-664 1666,-664 1666,-668 1654,-668 1654,-628 1708,-628 1708,-664"/>
<polyline fill="none" stroke="black" points="1654,-664 1666,-664"/>
<text text-anchor="middle" x="1681" y="-642.3" font-family="DejaVu Sans Mono" font-size="14.00">call</text>
</g>
<!-- input&#45;&gt;call -->
<!-- default -->
<g id="node20" class="node">
<title>default</title>
<polygon fill="#fffb81" stroke="black" points="1582,-664 1508,-664 1508,-628 1582,-628 1582,-664"/>
<text text-anchor="middle" x="1545" y="-642.3" font-family="DejaVu Sans Mono" font-size="14.00">default</text>
</g>
<!-- if -->
<g id="node21" class="node">
<title>if</title>
<polygon fill="#ff6752" stroke="black" points="1681,-861.5 1650.83,-843.5 1681,-825.5 1711.17,-843.5 1681,-861.5"/>
<text text-anchor="middle" x="1681" y="-839.8" font-family="DejaVu Sans Mono" font-size="14.00">if</text>
</g>
<!-- if&#45;&gt;input -->
<!-- for -->
<g id="node22" class="node">
<title>for</title>
<polygon fill="#ffbe52" stroke="black" points="1631.54,-843.5 1616.27,-861.5 1585.73,-861.5 1570.46,-843.5 1585.73,-825.5 1616.27,-825.5 1631.54,-843.5"/>
<text text-anchor="middle" x="1601" y="-839.8" font-family="DejaVu Sans Mono" font-size="14.00">for</text>
</g>
<!-- return -->
<g id="node25" class="node">
<title>return</title>
<polygon fill="#98fb98" stroke="black" points="1607.79,-747 1507.91,-747 1482.21,-711 1582.09,-711 1607.79,-747"/>
<text text-anchor="middle" x="1545" y="-725.3" font-family="DejaVu Sans Mono" font-size="14.00">return</text>
</g>
<!-- for&#45;&gt;return -->
<!-- while -->
<g id="node23" class="node">
<title>while</title>
<polygon fill="#ffbe52" stroke="black" points="1552.56,-843.5 1530.78,-861.5 1487.22,-861.5 1465.44,-843.5 1487.22,-825.5 1530.78,-825.5 1552.56,-843.5"/>
<text text-anchor="middle" x="1509" y="-839.8" font-family="DejaVu Sans Mono" font-size="14.00">while</text>
</g>
<!-- return&#45;&gt;default -->
<!-- try -->
<g id="node26" class="node">
<title>try</title>
<polygon fill="orange" stroke="black" points="1410,-861.5 1372.13,-843.5 1410,-825.5 1447.87,-843.5 1410,-861.5"/>
<polyline fill="none" stroke="black" points="1382.97,-848.65 1382.97,-838.35"/>
<polyline fill="none" stroke="black" points="1399.16,-830.65 1420.84,-830.65"/>
<polyline fill="none" stroke="black" points="1437.03,-838.35 1437.03,-848.65"/>
<polyline fill="none" stroke="black" points="1420.84,-856.35 1399.16,-856.35"/>
<text text-anchor="middle" x="1410" y="-839.8" font-family="DejaVu Sans Mono" font-size="14.00">try</text>
</g>
<!-- raise -->
<g id="node27" class="node">
<title>raise</title>
<polygon fill="#98fb98" stroke="black" points="1464.69,-734.56 1418,-747 1371.31,-734.56 1371.35,-714.44 1464.65,-714.44 1464.69,-734.56"/>
<text text-anchor="middle" x="1418" y="-725.3" font-family="DejaVu Sans Mono" font-size="14.00">raise</text>
</g>
<!-- try&#45;&gt;raise -->
</g>
</svg>
