<?xml version="1.0" encoding="UTF-8" standalone="no"?>
<!DOCTYPE svg PUBLIC "-//W3C//DTD SVG 1.1//EN"
 "http://www.w3.org/Graphics/SVG/1.1/DTD/svg11.dtd">
<!-- Generated by graphviz version 7.1.0 (0)
 -->
<!-- Title: cluster0web_server.py Pages: 1 -->
<svg width="4247pt" height="952pt"
 viewBox="0.00 0.00 4247.00 952.00" xmlns="http://www.w3.org/2000/svg" xmlns:xlink="http://www.w3.org/1999/xlink">
<g id="graph0" class="graph" transform="scale(1 1) rotate(0) translate(4 948)">
<title>cluster0web_server.py</title>
<polygon fill="white" stroke="none" points="-4,4 -4,-948 4243,-948 4243,4 -4,4"/>
<text text-anchor="middle" x="2119.5" y="-7.8" font-family="DejaVu Sans Mono" font-size="14.00">web_server.py</text>
<g id="clust1" class="cluster">
<title>cluster_52</title>
<polygon fill="purple" stroke="purple" points="287,-137.5 287,-189.5 357,-189.5 357,-137.5 287,-137.5"/>
</g>
<g id="clust2" class="cluster">
<title>cluster0handler</title>
<polygon fill="none" stroke="black" points="652,-129.5 652,-928.5 2663,-928.5 2663,-129.5 652,-129.5"/>
<text text-anchor="middle" x="1657.5" y="-913.3" font-family="DejaVu Sans Mono" font-size="14.00">handler</text>
</g>
<g id="clust3" class="cluster">
<title>cluster_6</title>
<polygon fill="purple" stroke="purple" points="742,-137.5 742,-288 1306,-288 1306,-137.5 742,-137.5"/>
</g>
<g id="clust4" class="cluster">
<title>cluster_5</title>
<polygon fill="purple" stroke="purple" points="1315,-137.5 1315,-189.5 1489,-189.5 1489,-137.5 1315,-137.5"/>
</g>
<g id="clust5" class="cluster">
<title>cluster_13</title>
<polygon fill="purple" stroke="purple" points="660,-236 660,-288 734,-288 734,-236 660,-236"/>
</g>
<g id="clust6" class="cluster">
<title>cluster_4</title>
<polygon fill="purple" stroke="purple" points="1498,-137.5 1498,-288 2655,-288 2655,-137.5 1498,-137.5"/>
</g>
<g id="clust7" class="cluster">
<title>cluster0main</title>
<polygon fill="none" stroke="black" points="2671,-31 2671,-936 3842,-936 3842,-31 2671,-31"/>
<text text-anchor="middle" x="3256.5" y="-920.8" font-family="DejaVu Sans Mono" font-size="14.00">main</text>
</g>
<g id="clust8" class="cluster">
<title>cluster_30</title>
<polygon fill="purple" stroke="purple" points="3174,-514 3174,-566 3698,-566 3698,-514 3174,-514"/>
</g>
<g id="clust9" class="cluster">
<title>cluster_36</title>
<polygon fill="purple" stroke="purple" points="3112,-137.5 3112,-189.5 3262,-189.5 3262,-137.5 3112,-137.5"/>
</g>
<g id="clust10" class="cluster">
<title>cluster_35</title>
<polygon fill="purple" stroke="purple" points="2912,-39 2912,-91 3102,-91 3102,-39 2912,-39"/>
</g>
<g id="clust11" class="cluster">
<title>cluster_39</title>
<polygon fill="purple" stroke="purple" points="2828,-137.5 2828,-189.5 2902,-189.5 2902,-137.5 2828,-137.5"/>
</g>
<g id="clust12" class="cluster">
<title>cluster_42</title>
<polygon fill="purple" stroke="purple" points="3143,-39 3143,-91 3826,-91 3826,-39 3143,-39"/>
</g>
<g id="clust13" class="cluster">
<title>cluster_KEY</title>
<polygon fill="none" stroke="black" points="3850,-236 3850,-912.5 4231,-912.5 4231,-236 3850,-236"/>
<text text-anchor="middle" x="4040.5" y="-897.3" font-family="DejaVu Sans Mono" font-size="14.00">KEY</text>
</g>
<!-- 1 -->
<g id="node1" class="node">
<title>1</title>
<polygon fill="#fffb81" stroke="black" points="644,-935 0,-935 0,-792 644,-792 644,-935"/>
<text text-anchor="start" x="8" y="-919.8" font-family="DejaVu Sans Mono" font-size="14.00">&quot;&quot;&quot;</text>
<text text-anchor="start" x="8" y="-904.8" font-family="DejaVu Sans Mono" font-size="14.00">A simple Web server.</text>
<text text-anchor="start" x="8" y="-889.8" font-family="DejaVu Sans Mono" font-size="14.00">GET requests must name a specific file,</text>
<text text-anchor="start" x="8" y="-874.8" font-family="DejaVu Sans Mono" font-size="14.00">since it does not assume an index.html.</text>
<text text-anchor="start" x="8" y="-859.8" font-family="DejaVu Sans Mono" font-size="14.00">&quot;&quot;&quot;</text>
<text text-anchor="start" x="8" y="-844.8" font-family="DejaVu Sans Mono" font-size="14.00">import socket</text>
<text text-anchor="start" x="8" y="-829.8" font-family="DejaVu Sans Mono" font-size="14.00">import threading</text>
<text text-anchor="start" x="8" y="-814.8" font-family="DejaVu Sans Mono" font-size="14.00">def handler(conn_socket: socket.socket, address: tuple[str, int]) &#45;&gt;None:...</text>
<text text-anchor="middle" x="322" y="-799.8" font-family="DejaVu Sans Mono" font-size="14.00">def main() &#45;&gt;None:...</text>
</g>
<!-- 51 -->
<g id="node2" class="node">
<title>51</title>
<polygon fill="#ff6752" stroke="black" points="322,-558 109.85,-540 322,-522 534.15,-540 322,-558"/>
<text text-anchor="middle" x="322" y="-536.3" font-family="DejaVu Sans Mono" font-size="14.00">if __name__ == &#39;__main__&#39;:</text>
</g>
<!-- 1&#45;&gt;51 -->
<g id="edge3" class="edge">
<title>1&#45;&gt;51</title>
<path fill="none" stroke="black" d="M322,-791.55C322,-721.99 322,-619.42 322,-569.88"/>
<polygon fill="black" stroke="black" points="325.5,-569.99 322,-559.99 318.5,-569.99 325.5,-569.99"/>
</g>
<!-- 52 -->
<g id="node3" class="node">
<title>52</title>
<polygon fill="#fffb81" stroke="black" points="355,-280 289,-280 289,-244 355,-244 355,-280"/>
<text text-anchor="middle" x="322" y="-258.3" font-family="DejaVu Sans Mono" font-size="14.00">main()</text>
</g>
<!-- 51&#45;&gt;52 -->
<g id="edge2" class="edge">
<title>51&#45;&gt;52</title>
<path fill="none" stroke="green" d="M322,-521.73C322,-475.56 322,-348.84 322,-291.66"/>
<polygon fill="green" stroke="green" points="325.5,-291.77 322,-281.77 318.5,-291.77 325.5,-291.77"/>
<text text-anchor="middle" x="413" y="-299.8" font-family="DejaVu Sans Mono" font-size="14.00">__name__ == &#39;__main__&#39;</text>
</g>
<!-- 54 -->
<g id="node4" class="node">
<title>54</title>
<polygon fill="#e552ff" stroke="#e552ff" points="349,-181.5 307,-181.5 307,-185.5 295,-185.5 295,-145.5 349,-145.5 349,-181.5"/>
<polyline fill="none" stroke="#e552ff" points="295,-181.5 307,-181.5"/>
<text text-anchor="middle" x="322" y="-159.8" font-family="DejaVu Sans Mono" font-size="14.00">main</text>
</g>
<!-- 52&#45;&gt;54 -->
<g id="edge1" class="edge">
<title>52&#45;&gt;54</title>
<path fill="none" stroke="black" stroke-dasharray="5,2" d="M322,-243.75C322,-229.7 322,-209.58 322,-193.12"/>
<polygon fill="black" stroke="black" points="325.5,-193.44 322,-183.44 318.5,-193.44 325.5,-193.44"/>
<text text-anchor="middle" x="343" y="-216.8" font-family="DejaVu Sans Mono" font-size="14.00">calls</text>
</g>
<!-- 3 -->
<g id="node5" class="node">
<title>3</title>
<polygon fill="#fffb81" stroke="black" points="2437,-897.5 1851,-897.5 1851,-829.5 2437,-829.5 2437,-897.5"/>
<text text-anchor="start" x="1859" y="-882.3" font-family="DejaVu Sans Mono" font-size="14.00">&quot;&quot;&quot;</text>
<text text-anchor="start" x="1859" y="-867.3" font-family="DejaVu Sans Mono" font-size="14.00"> &#160;&#160;&#160;Handles the part of the client work&#45;flow that is client&#45;dependent,</text>
<text text-anchor="start" x="1859" y="-852.3" font-family="DejaVu Sans Mono" font-size="14.00"> &#160;&#160;&#160;and thus may be delayed by the user, blocking program flow.</text>
<text text-anchor="middle" x="2144" y="-837.3" font-family="DejaVu Sans Mono" font-size="14.00"> &#160;&#160;&#160;&quot;&quot;&quot;</text>
</g>
<!-- 4 -->
<g id="node6" class="node">
<title>4</title>
<polygon fill="orange" stroke="black" points="2144,-761 1674,-540 2144,-319 2614,-540 2144,-761"/>
<polyline fill="none" stroke="black" points="1684.86,-545.11 1684.86,-534.89"/>
<polyline fill="none" stroke="black" points="2133.14,-324.11 2154.86,-324.11"/>
<polyline fill="none" stroke="black" points="2603.14,-534.89 2603.14,-545.11"/>
<polyline fill="none" stroke="black" points="2154.86,-755.89 2133.14,-755.89"/>
<text text-anchor="middle" x="2144" y="-635.3" font-family="DejaVu Sans Mono" font-size="14.00">request = conn_socket.recv(1024).decode()</text>
<text text-anchor="middle" x="2144" y="-620.3" font-family="DejaVu Sans Mono" font-size="14.00">print(f&#39;this is the request {request}&#39;)</text>
<text text-anchor="middle" x="2144" y="-605.3" font-family="DejaVu Sans Mono" font-size="14.00">path = request.split()[1]</text>
<text text-anchor="middle" x="2144" y="-590.3" font-family="DejaVu Sans Mono" font-size="14.00">print(f&#39;This is the path: {path[1:]}&#39;)</text>
<text text-anchor="middle" x="2144" y="-575.3" font-family="DejaVu Sans Mono" font-size="14.00">opened_file = open(path[1:])</text>
<text text-anchor="middle" x="2144" y="-560.3" font-family="DejaVu Sans Mono" font-size="14.00">data_from_file = opened_file.read()</text>
<text text-anchor="middle" x="2144" y="-545.3" font-family="DejaVu Sans Mono" font-size="14.00">print(f&#39;This is the data from the file {data_from_file}&#39;)</text>
<text text-anchor="end" x="2543.03" y="-530.3" font-family="DejaVu Sans Mono" font-size="14.00">header = &#39;HTTP/1.1 200 OK</text>
<text text-anchor="middle" x="2144" y="-467.3" font-family="DejaVu Sans Mono" font-size="14.00">&#39;</text>
<text text-anchor="middle" x="2144" y="-452.3" font-family="DejaVu Sans Mono" font-size="14.00">conn_socket.send(header.encode())</text>
<text text-anchor="middle" x="2144" y="-437.3" font-family="DejaVu Sans Mono" font-size="14.00">conn_socket.send(data_from_file.encode())</text>
</g>
<!-- 3&#45;&gt;4 -->
<g id="edge26" class="edge">
<title>3&#45;&gt;4</title>
<path fill="none" stroke="black" d="M2144,-829C2144,-813.8 2144,-794.4 2144,-772.86"/>
<polygon fill="black" stroke="black" points="2147.5,-772.93 2144,-762.93 2140.5,-772.93 2147.5,-772.93"/>
</g>
<!-- 5 -->
<g id="node14" class="node">
<title>5</title>
<polygon fill="#fffb81" stroke="black" points="1488.5,-280 1315.5,-280 1315.5,-244 1488.5,-244 1488.5,-280"/>
<text text-anchor="middle" x="1402" y="-258.3" font-family="DejaVu Sans Mono" font-size="14.00">conn_socket.close()</text>
</g>
<!-- 4&#45;&gt;5 -->
<g id="edge25" class="edge">
<title>4&#45;&gt;5</title>
<path fill="none" stroke="black" d="M1882.14,-441.6C1729.41,-384.79 1549.6,-317.9 1459.53,-284.4"/>
<polygon fill="black" stroke="black" points="1461.01,-281.22 1450.42,-281.01 1458.57,-287.78 1461.01,-281.22"/>
</g>
<!-- 15 -->
<g id="node18" class="node">
<title>15</title>
<polygon fill="#e552ff" stroke="#e552ff" points="2047,-280 1853,-280 1853,-284 1841,-284 1841,-244 2047,-244 2047,-280"/>
<polyline fill="none" stroke="#e552ff" points="1841,-280 1853,-280"/>
<text text-anchor="middle" x="1944" y="-258.3" font-family="DejaVu Sans Mono" font-size="14.00">conn_socket.recv.decode</text>
</g>
<!-- 4&#45;&gt;15 -->
<g id="edge14" class="edge">
<title>4&#45;&gt;15</title>
<path fill="none" stroke="black" stroke-dasharray="5,2" d="M2025.06,-374.86C2000.87,-341.48 1978.22,-310.22 1963.04,-289.28"/>
<polygon fill="black" stroke="black" points="1966.01,-287.41 1957.31,-281.37 1960.34,-291.52 1966.01,-287.41"/>
<text text-anchor="middle" x="1998" y="-299.8" font-family="DejaVu Sans Mono" font-size="14.00">calls</text>
</g>
<!-- 16 -->
<g id="node19" class="node">
<title>16</title>
<polygon fill="#e552ff" stroke="#e552ff" points="2123,-280 2077,-280 2077,-284 2065,-284 2065,-244 2123,-244 2123,-280"/>
<polyline fill="none" stroke="#e552ff" points="2065,-280 2077,-280"/>
<text text-anchor="middle" x="2094" y="-258.3" font-family="DejaVu Sans Mono" font-size="14.00">print</text>
</g>
<!-- 4&#45;&gt;16 -->
<g id="edge15" class="edge">
<title>4&#45;&gt;16</title>
<path fill="none" stroke="black" stroke-dasharray="5,2" d="M2107.2,-335.88C2104.12,-318.84 2101.34,-303.51 2099.14,-291.37"/>
<polygon fill="black" stroke="black" points="2102.64,-291.04 2097.41,-281.82 2095.75,-292.29 2102.64,-291.04"/>
<text text-anchor="middle" x="2123" y="-299.8" font-family="DejaVu Sans Mono" font-size="14.00">calls</text>
</g>
<!-- 17 -->
<g id="node20" class="node">
<title>17</title>
<polygon fill="#e552ff" stroke="#e552ff" points="2265,-280 2153,-280 2153,-284 2141,-284 2141,-244 2265,-244 2265,-280"/>
<polyline fill="none" stroke="#e552ff" points="2141,-280 2153,-280"/>
<text text-anchor="middle" x="2203" y="-258.3" font-family="DejaVu Sans Mono" font-size="14.00">request.split</text>
</g>
<!-- 4&#45;&gt;17 -->
<g id="edge16" class="edge">
<title>4&#45;&gt;17</title>
<path fill="none" stroke="black" stroke-dasharray="5,2" d="M2186.8,-338.78C2190.69,-320.59 2194.19,-304.22 2196.93,-291.39"/>
<polygon fill="black" stroke="black" points="2200.33,-292.22 2199,-281.71 2193.49,-290.75 2200.33,-292.22"/>
<text text-anchor="middle" x="2216" y="-299.8" font-family="DejaVu Sans Mono" font-size="14.00">calls</text>
</g>
<!-- 18 -->
<g id="node21" class="node">
<title>18</title>
<polygon fill="#e552ff" stroke="#e552ff" points="2341,-280 2295,-280 2295,-284 2283,-284 2283,-244 2341,-244 2341,-280"/>
<polyline fill="none" stroke="#e552ff" points="2283,-280 2295,-280"/>
<text text-anchor="middle" x="2312" y="-258.3" font-family="DejaVu Sans Mono" font-size="14.00">print</text>
</g>
<!-- 4&#45;&gt;18 -->
<g id="edge17" class="edge">
<title>4&#45;&gt;18</title>
<path fill="none" stroke="black" stroke-dasharray="5,2" d="M2248.25,-367.74C2266.74,-337.35 2283.84,-309.26 2295.67,-289.83"/>
<polygon fill="black" stroke="black" points="2298.51,-291.89 2300.72,-281.53 2292.53,-288.25 2298.51,-291.89"/>
<text text-anchor="middle" x="2312" y="-299.8" font-family="DejaVu Sans Mono" font-size="14.00">calls</text>
</g>
<!-- 19 -->
<g id="node22" class="node">
<title>19</title>
<polygon fill="#e552ff" stroke="#e552ff" points="2413,-280 2371,-280 2371,-284 2359,-284 2359,-244 2413,-244 2413,-280"/>
<polyline fill="none" stroke="#e552ff" points="2359,-280 2371,-280"/>
<text text-anchor="middle" x="2386" y="-258.3" font-family="DejaVu Sans Mono" font-size="14.00">open</text>
</g>
<!-- 4&#45;&gt;19 -->
<g id="edge18" class="edge">
<title>4&#45;&gt;19</title>
<path fill="none" stroke="black" stroke-dasharray="5,2" d="M2280.91,-382.85C2312.87,-346.4 2343.32,-311.68 2363.14,-289.07"/>
<polygon fill="black" stroke="black" points="2365.74,-291.41 2369.7,-281.59 2360.48,-286.8 2365.74,-291.41"/>
<text text-anchor="middle" x="2377" y="-299.8" font-family="DejaVu Sans Mono" font-size="14.00">calls</text>
</g>
<!-- 20 -->
<g id="node23" class="node">
<title>20</title>
<polygon fill="#e552ff" stroke="#e552ff" points="2571,-280 2443,-280 2443,-284 2431,-284 2431,-244 2571,-244 2571,-280"/>
<polyline fill="none" stroke="#e552ff" points="2431,-280 2443,-280"/>
<text text-anchor="middle" x="2501" y="-258.3" font-family="DejaVu Sans Mono" font-size="14.00">opened_file.read</text>
</g>
<!-- 4&#45;&gt;20 -->
<g id="edge19" class="edge">
<title>4&#45;&gt;20</title>
<path fill="none" stroke="black" stroke-dasharray="5,2" d="M2321.19,-402.01C2378.19,-357.94 2435.37,-313.74 2469.47,-287.37"/>
<polygon fill="black" stroke="black" points="2471.49,-290.24 2477.26,-281.35 2467.21,-284.7 2471.49,-290.24"/>
<text text-anchor="middle" x="2477" y="-299.8" font-family="DejaVu Sans Mono" font-size="14.00">calls</text>
</g>
<!-- 21 -->
<g id="node24" class="node">
<title>21</title>
<polygon fill="#e552ff" stroke="#e552ff" points="2647,-280 2601,-280 2601,-284 2589,-284 2589,-244 2647,-244 2647,-280"/>
<polyline fill="none" stroke="#e552ff" points="2589,-280 2601,-280"/>
<text text-anchor="middle" x="2618" y="-258.3" font-family="DejaVu Sans Mono" font-size="14.00">print</text>
</g>
<!-- 4&#45;&gt;21 -->
<g id="edge20" class="edge">
<title>4&#45;&gt;21</title>
<path fill="none" stroke="black" stroke-dasharray="5,2" d="M2357.83,-419.27C2429.04,-378.51 2508.43,-332.09 2580,-288 2580.85,-287.47 2581.71,-286.94 2582.58,-286.4"/>
<polygon fill="black" stroke="black" points="2584.14,-289.56 2590.69,-281.23 2580.38,-283.65 2584.14,-289.56"/>
<text text-anchor="middle" x="2577" y="-299.8" font-family="DejaVu Sans Mono" font-size="14.00">calls</text>
</g>
<!-- 22 -->
<g id="node25" class="node">
<title>22</title>
<polygon fill="#e552ff" stroke="#e552ff" points="1655.5,-280 1518.5,-280 1518.5,-284 1506.5,-284 1506.5,-244 1655.5,-244 1655.5,-280"/>
<polyline fill="none" stroke="#e552ff" points="1506.5,-280 1518.5,-280"/>
<text text-anchor="middle" x="1581" y="-258.3" font-family="DejaVu Sans Mono" font-size="14.00">conn_socket.send</text>
</g>
<!-- 4&#45;&gt;22 -->
<g id="edge21" class="edge">
<title>4&#45;&gt;22</title>
<path fill="none" stroke="black" stroke-dasharray="5,2" d="M1914.6,-426.54C1807.1,-373.84 1689.1,-315.99 1626.29,-285.2"/>
<polygon fill="black" stroke="black" points="1628.2,-282.24 1617.68,-280.98 1625.12,-288.53 1628.2,-282.24"/>
<text text-anchor="middle" x="1696" y="-299.8" font-family="DejaVu Sans Mono" font-size="14.00">calls</text>
</g>
<!-- 24 -->
<g id="node26" class="node">
<title>24</title>
<polygon fill="#e552ff" stroke="#e552ff" points="1822.5,-280 1685.5,-280 1685.5,-284 1673.5,-284 1673.5,-244 1822.5,-244 1822.5,-280"/>
<polyline fill="none" stroke="#e552ff" points="1673.5,-280 1685.5,-280"/>
<text text-anchor="middle" x="1748" y="-258.3" font-family="DejaVu Sans Mono" font-size="14.00">conn_socket.send</text>
</g>
<!-- 4&#45;&gt;24 -->
<g id="edge22" class="edge">
<title>4&#45;&gt;24</title>
<path fill="none" stroke="black" stroke-dasharray="5,2" d="M1955.28,-407.47C1889.17,-361.39 1821.67,-314.35 1782.36,-286.95"/>
<polygon fill="black" stroke="black" points="1784.44,-284.13 1774.24,-281.29 1780.44,-289.88 1784.44,-284.13"/>
<text text-anchor="middle" x="1835" y="-299.8" font-family="DejaVu Sans Mono" font-size="14.00">calls</text>
</g>
<!-- 6 -->
<g id="node7" class="node">
<title>6</title>
<polygon fill="#fffb81" stroke="black" points="1258,-613 862,-613 862,-467 1258,-467 1258,-613"/>
<text text-anchor="end" x="1250" y="-597.8" font-family="DejaVu Sans Mono" font-size="14.00">header = &#39;HTTP/1.1 404 Not Found</text>
<text text-anchor="start" x="870" y="-534.8" font-family="DejaVu Sans Mono" font-size="14.00">&#39;</text>
<text text-anchor="start" x="870" y="-519.8" font-family="DejaVu Sans Mono" font-size="14.00">conn_socket.send(header.encode())</text>
<text text-anchor="start" x="870" y="-504.8" font-family="DejaVu Sans Mono" font-size="14.00">opened_file = open(&#39;./web_files/not_found.html&#39;)</text>
<text text-anchor="start" x="870" y="-489.8" font-family="DejaVu Sans Mono" font-size="14.00">data_from_file = opened_file.read()</text>
<text text-anchor="middle" x="1060" y="-474.8" font-family="DejaVu Sans Mono" font-size="14.00">conn_socket.send(data_from_file.encode())</text>
</g>
<!-- 7 -->
<g id="node8" class="node">
<title>7</title>
<polygon fill="#e552ff" stroke="#e552ff" points="899.5,-280 762.5,-280 762.5,-284 750.5,-284 750.5,-244 899.5,-244 899.5,-280"/>
<polyline fill="none" stroke="#e552ff" points="750.5,-280 762.5,-280"/>
<text text-anchor="middle" x="825" y="-258.3" font-family="DejaVu Sans Mono" font-size="14.00">conn_socket.send</text>
</g>
<!-- 6&#45;&gt;7 -->
<g id="edge4" class="edge">
<title>6&#45;&gt;7</title>
<path fill="none" stroke="black" stroke-dasharray="5,2" d="M998.56,-466.84C948.85,-408.46 881.66,-329.54 847.28,-289.17"/>
<polygon fill="black" stroke="black" points="850,-286.96 840.85,-281.62 844.67,-291.5 850,-286.96"/>
<text text-anchor="middle" x="885" y="-299.8" font-family="DejaVu Sans Mono" font-size="14.00">calls</text>
</g>
<!-- 9 -->
<g id="node9" class="node">
<title>9</title>
<polygon fill="#e552ff" stroke="#e552ff" points="972,-280 930,-280 930,-284 918,-284 918,-244 972,-244 972,-280"/>
<polyline fill="none" stroke="#e552ff" points="918,-280 930,-280"/>
<text text-anchor="middle" x="945" y="-258.3" font-family="DejaVu Sans Mono" font-size="14.00">open</text>
</g>
<!-- 6&#45;&gt;9 -->
<g id="edge5" class="edge">
<title>6&#45;&gt;9</title>
<path fill="none" stroke="black" stroke-dasharray="5,2" d="M1029.94,-466.84C1005.97,-409.32 973.69,-331.87 956.66,-290.98"/>
<polygon fill="black" stroke="black" points="959.94,-289.75 952.86,-281.86 953.47,-292.44 959.94,-289.75"/>
<text text-anchor="middle" x="985" y="-299.8" font-family="DejaVu Sans Mono" font-size="14.00">calls</text>
</g>
<!-- 10 -->
<g id="node10" class="node">
<title>10</title>
<polygon fill="#e552ff" stroke="#e552ff" points="1130,-280 1002,-280 1002,-284 990,-284 990,-244 1130,-244 1130,-280"/>
<polyline fill="none" stroke="#e552ff" points="990,-280 1002,-280"/>
<text text-anchor="middle" x="1060" y="-258.3" font-family="DejaVu Sans Mono" font-size="14.00">opened_file.read</text>
</g>
<!-- 6&#45;&gt;10 -->
<g id="edge6" class="edge">
<title>6&#45;&gt;10</title>
<path fill="none" stroke="black" stroke-dasharray="5,2" d="M1060,-466.84C1060,-409.69 1060,-332.86 1060,-291.77"/>
<polygon fill="black" stroke="black" points="1063.5,-291.98 1060,-281.98 1056.5,-291.98 1063.5,-291.98"/>
<text text-anchor="middle" x="1081" y="-299.8" font-family="DejaVu Sans Mono" font-size="14.00">calls</text>
</g>
<!-- 11 -->
<g id="node11" class="node">
<title>11</title>
<polygon fill="#e552ff" stroke="#e552ff" points="1297.5,-280 1160.5,-280 1160.5,-284 1148.5,-284 1148.5,-244 1297.5,-244 1297.5,-280"/>
<polyline fill="none" stroke="#e552ff" points="1148.5,-280 1160.5,-280"/>
<text text-anchor="middle" x="1223" y="-258.3" font-family="DejaVu Sans Mono" font-size="14.00">conn_socket.send</text>
</g>
<!-- 6&#45;&gt;11 -->
<g id="edge7" class="edge">
<title>6&#45;&gt;11</title>
<path fill="none" stroke="black" stroke-dasharray="5,2" d="M1102.61,-466.84C1136.8,-408.95 1182.92,-330.87 1206.94,-290.2"/>
<polygon fill="black" stroke="black" points="1209.85,-292.16 1211.92,-281.77 1203.82,-288.6 1209.85,-292.16"/>
<text text-anchor="middle" x="1223" y="-299.8" font-family="DejaVu Sans Mono" font-size="14.00">calls</text>
</g>
<!-- 6&#45;&gt;5 -->
<g id="edge11" class="edge">
<title>6&#45;&gt;5</title>
<path fill="none" stroke="black" d="M1149.41,-466.84C1222.67,-407.73 1322.02,-327.55 1371.45,-287.66"/>
<polygon fill="black" stroke="black" points="1373.6,-290.42 1379.18,-281.41 1369.2,-284.97 1373.6,-290.42"/>
</g>
<!-- 8 -->
<g id="node12" class="node">
<title>8</title>
<polygon fill="#e552ff" stroke="#e552ff" points="887,-181.5 775,-181.5 775,-185.5 763,-185.5 763,-145.5 887,-145.5 887,-181.5"/>
<polyline fill="none" stroke="#e552ff" points="763,-181.5 775,-181.5"/>
<text text-anchor="middle" x="825" y="-159.8" font-family="DejaVu Sans Mono" font-size="14.00">header.encode</text>
</g>
<!-- 7&#45;&gt;8 -->
<g id="edge8" class="edge">
<title>7&#45;&gt;8</title>
<path fill="none" stroke="black" d="M825,-243.75C825,-229.7 825,-209.58 825,-193.12"/>
<polygon fill="black" stroke="black" points="828.5,-193.44 825,-183.44 821.5,-193.44 828.5,-193.44"/>
</g>
<!-- 12 -->
<g id="node13" class="node">
<title>12</title>
<polygon fill="#e552ff" stroke="#e552ff" points="1298,-181.5 1128,-181.5 1128,-185.5 1116,-185.5 1116,-145.5 1298,-145.5 1298,-181.5"/>
<polyline fill="none" stroke="#e552ff" points="1116,-181.5 1128,-181.5"/>
<text text-anchor="middle" x="1207" y="-159.8" font-family="DejaVu Sans Mono" font-size="14.00">data_from_file.encode</text>
</g>
<!-- 11&#45;&gt;12 -->
<g id="edge9" class="edge">
<title>11&#45;&gt;12</title>
<path fill="none" stroke="black" d="M1220.14,-243.75C1217.81,-229.7 1214.47,-209.58 1211.75,-193.12"/>
<polygon fill="black" stroke="black" points="1215.23,-192.71 1210.14,-183.42 1208.32,-193.86 1215.23,-192.71"/>
</g>
<!-- 26 -->
<g id="node15" class="node">
<title>26</title>
<polygon fill="#e552ff" stroke="#e552ff" points="1480.5,-181.5 1335.5,-181.5 1335.5,-185.5 1323.5,-185.5 1323.5,-145.5 1480.5,-145.5 1480.5,-181.5"/>
<polyline fill="none" stroke="#e552ff" points="1323.5,-181.5 1335.5,-181.5"/>
<text text-anchor="middle" x="1402" y="-159.8" font-family="DejaVu Sans Mono" font-size="14.00">conn_socket.close</text>
</g>
<!-- 5&#45;&gt;26 -->
<g id="edge10" class="edge">
<title>5&#45;&gt;26</title>
<path fill="none" stroke="black" stroke-dasharray="5,2" d="M1402,-243.75C1402,-229.7 1402,-209.58 1402,-193.12"/>
<polygon fill="black" stroke="black" points="1405.5,-193.44 1402,-183.44 1398.5,-193.44 1405.5,-193.44"/>
<text text-anchor="middle" x="1423" y="-216.8" font-family="DejaVu Sans Mono" font-size="14.00">calls</text>
</g>
<!-- 13 -->
<g id="node16" class="node">
<title>13</title>
<polygon fill="#fffb81" stroke="black" points="843,-558 661,-558 661,-522 843,-522 843,-558"/>
<text text-anchor="middle" x="752" y="-536.3" font-family="DejaVu Sans Mono" font-size="14.00">print(&#39;Bad request&#39;)</text>
</g>
<!-- 13&#45;&gt;5 -->
<g id="edge13" class="edge">
<title>13&#45;&gt;5</title>
<path fill="none" stroke="black" d="M753.92,-521.64C759.74,-478.51 781.39,-366.53 853,-319 864.72,-311.22 1092.01,-312.45 1106,-311 1144.16,-307.05 1152.92,-300.63 1191,-296 1243.62,-289.61 1257.72,-296.77 1310,-288 1317.77,-286.7 1325.82,-285.01 1333.8,-283.14"/>
<polygon fill="black" stroke="black" points="1334.63,-286.54 1343.5,-280.74 1332.95,-279.74 1334.63,-286.54"/>
</g>
<!-- 14 -->
<g id="node17" class="node">
<title>14</title>
<polygon fill="#e552ff" stroke="#e552ff" points="726,-280 680,-280 680,-284 668,-284 668,-244 726,-244 726,-280"/>
<polyline fill="none" stroke="#e552ff" points="668,-280 680,-280"/>
<text text-anchor="middle" x="697" y="-258.3" font-family="DejaVu Sans Mono" font-size="14.00">print</text>
</g>
<!-- 13&#45;&gt;14 -->
<g id="edge12" class="edge">
<title>13&#45;&gt;14</title>
<path fill="none" stroke="black" stroke-dasharray="5,2" d="M748.56,-521.73C739.34,-475.46 714,-348.31 702.64,-291.3"/>
<polygon fill="black" stroke="black" points="706.12,-290.87 700.74,-281.74 699.26,-292.23 706.12,-290.87"/>
<text text-anchor="middle" x="727" y="-299.8" font-family="DejaVu Sans Mono" font-size="14.00">calls</text>
</g>
<!-- 23 -->
<g id="node27" class="node">
<title>23</title>
<polygon fill="#e552ff" stroke="#e552ff" points="1641,-181.5 1529,-181.5 1529,-185.5 1517,-185.5 1517,-145.5 1641,-145.5 1641,-181.5"/>
<polyline fill="none" stroke="#e552ff" points="1517,-181.5 1529,-181.5"/>
<text text-anchor="middle" x="1579" y="-159.8" font-family="DejaVu Sans Mono" font-size="14.00">header.encode</text>
</g>
<!-- 22&#45;&gt;23 -->
<g id="edge23" class="edge">
<title>22&#45;&gt;23</title>
<path fill="none" stroke="black" d="M1580.64,-243.75C1580.35,-229.7 1579.93,-209.58 1579.59,-193.12"/>
<polygon fill="black" stroke="black" points="1583.1,-193.37 1579.39,-183.44 1576.1,-193.51 1583.1,-193.37"/>
</g>
<!-- 25 -->
<g id="node28" class="node">
<title>25</title>
<polygon fill="#e552ff" stroke="#e552ff" points="1841,-181.5 1671,-181.5 1671,-185.5 1659,-185.5 1659,-145.5 1841,-145.5 1841,-181.5"/>
<polyline fill="none" stroke="#e552ff" points="1659,-181.5 1671,-181.5"/>
<text text-anchor="middle" x="1750" y="-159.8" font-family="DejaVu Sans Mono" font-size="14.00">data_from_file.encode</text>
</g>
<!-- 24&#45;&gt;25 -->
<g id="edge24" class="edge">
<title>24&#45;&gt;25</title>
<path fill="none" stroke="black" d="M1748.36,-243.75C1748.65,-229.7 1749.07,-209.58 1749.41,-193.12"/>
<polygon fill="black" stroke="black" points="1752.9,-193.51 1749.61,-183.44 1745.9,-193.37 1752.9,-193.51"/>
</g>
<!-- 30 -->
<g id="node29" class="node">
<title>30</title>
<polygon fill="#fffb81" stroke="black" points="3821,-905 3169,-905 3169,-822 3821,-822 3821,-905"/>
<text text-anchor="start" x="3177" y="-889.8" font-family="DejaVu Sans Mono" font-size="14.00">server_socket = socket.socket(family=socket.AF_INET, type=socket.SOCK_STREAM)</text>
<text text-anchor="start" x="3177" y="-874.8" font-family="DejaVu Sans Mono" font-size="14.00">server_port = 6789</text>
<text text-anchor="start" x="3177" y="-859.8" font-family="DejaVu Sans Mono" font-size="14.00">server_socket.bind((&#39;localhost&#39;, server_port))</text>
<text text-anchor="start" x="3177" y="-844.8" font-family="DejaVu Sans Mono" font-size="14.00">server_socket.listen(2)</text>
<text text-anchor="middle" x="3495" y="-829.8" font-family="DejaVu Sans Mono" font-size="14.00">threads = []</text>
</g>
<!-- 31 -->
<g id="node30" class="node">
<title>31</title>
<polygon fill="#e552ff" stroke="#e552ff" points="3690,-558 3578,-558 3578,-562 3566,-562 3566,-522 3690,-522 3690,-558"/>
<polyline fill="none" stroke="#e552ff" points="3566,-558 3578,-558"/>
<text text-anchor="middle" x="3628" y="-536.3" font-family="DejaVu Sans Mono" font-size="14.00">socket.socket</text>
</g>
<!-- 30&#45;&gt;31 -->
<g id="edge27" class="edge">
<title>30&#45;&gt;31</title>
<path fill="none" stroke="black" stroke-dasharray="5,2" d="M3522.94,-821.75C3534.51,-803.68 3547.44,-781.83 3557,-761 3587.37,-694.82 3610.36,-611.94 3621.17,-569.27"/>
<polygon fill="black" stroke="black" points="3624.5,-570.37 3623.53,-559.82 3617.71,-568.68 3624.5,-570.37"/>
<text text-anchor="middle" x="3573" y="-772.8" font-family="DejaVu Sans Mono" font-size="14.00">calls</text>
</g>
<!-- 32 -->
<g id="node31" class="node">
<title>32</title>
<polygon fill="#e552ff" stroke="#e552ff" points="3347.5,-558 3194.5,-558 3194.5,-562 3182.5,-562 3182.5,-522 3347.5,-522 3347.5,-558"/>
<polyline fill="none" stroke="#e552ff" points="3182.5,-558 3194.5,-558"/>
<text text-anchor="middle" x="3265" y="-536.3" font-family="DejaVu Sans Mono" font-size="14.00">server_socket.bind</text>
</g>
<!-- 30&#45;&gt;32 -->
<g id="edge28" class="edge">
<title>30&#45;&gt;32</title>
<path fill="none" stroke="black" stroke-dasharray="5,2" d="M3424.56,-821.65C3400.71,-805.19 3375.48,-784.5 3357,-761 3310,-701.23 3283.09,-613.99 3271.63,-569.45"/>
<polygon fill="black" stroke="black" points="3275.04,-568.67 3269.23,-559.81 3268.25,-570.35 3275.04,-568.67"/>
<text text-anchor="middle" x="3396" y="-772.8" font-family="DejaVu Sans Mono" font-size="14.00">calls</text>
</g>
<!-- 33 -->
<g id="node32" class="node">
<title>33</title>
<polygon fill="#e552ff" stroke="#e552ff" points="3548,-558 3378,-558 3378,-562 3366,-562 3366,-522 3548,-522 3548,-558"/>
<polyline fill="none" stroke="#e552ff" points="3366,-558 3378,-558"/>
<text text-anchor="middle" x="3457" y="-536.3" font-family="DejaVu Sans Mono" font-size="14.00">server_socket.listen</text>
</g>
<!-- 30&#45;&gt;33 -->
<g id="edge29" class="edge">
<title>30&#45;&gt;33</title>
<path fill="none" stroke="black" stroke-dasharray="5,2" d="M3490.19,-821.78C3482.39,-755.82 3467.19,-627.23 3460.41,-569.85"/>
<polygon fill="black" stroke="black" points="3463.89,-569.44 3459.24,-559.92 3456.93,-570.26 3463.89,-569.44"/>
<text text-anchor="middle" x="3505" y="-772.8" font-family="DejaVu Sans Mono" font-size="14.00">calls</text>
</g>
<!-- 34 -->
<g id="node33" class="node">
<title>34</title>
<polygon fill="orange" stroke="black" points="3754,-558 3708.08,-540 3754,-522 3799.92,-540 3754,-558"/>
<polyline fill="none" stroke="black" points="3719.26,-544.38 3719.26,-535.62"/>
<polyline fill="none" stroke="black" points="3742.83,-526.38 3765.17,-526.38"/>
<polyline fill="none" stroke="black" points="3788.74,-535.62 3788.74,-544.38"/>
<polyline fill="none" stroke="black" points="3765.17,-553.62 3742.83,-553.62"/>
<text text-anchor="middle" x="3754" y="-536.3" font-family="DejaVu Sans Mono" font-size="14.00">try:</text>
</g>
<!-- 30&#45;&gt;34 -->
<g id="edge44" class="edge">
<title>30&#45;&gt;34</title>
<path fill="none" stroke="black" d="M3622.71,-821.53C3652.41,-806.65 3681.34,-786.89 3702,-761 3747.18,-704.38 3754.24,-615.04 3754.67,-569.6"/>
<polygon fill="black" stroke="black" points="3758.17,-569.77 3754.64,-559.78 3751.17,-569.78 3758.17,-569.77"/>
</g>
<!-- 41 -->
<g id="node41" class="node">
<title>41</title>
<polygon fill="#ffbe52" stroke="black" points="3834.11,-262 3794.05,-280 3713.95,-280 3673.89,-262 3713.95,-244 3794.05,-244 3834.11,-262"/>
<text text-anchor="middle" x="3754" y="-258.3" font-family="DejaVu Sans Mono" font-size="14.00">while True:</text>
</g>
<!-- 34&#45;&gt;41 -->
<g id="edge43" class="edge">
<title>34&#45;&gt;41</title>
<path fill="none" stroke="black" d="M3754,-521.73C3754,-475.56 3754,-348.84 3754,-291.66"/>
<polygon fill="black" stroke="black" points="3757.5,-291.77 3754,-281.77 3750.5,-291.77 3757.5,-291.77"/>
</g>
<!-- 36 -->
<g id="node34" class="node">
<title>36</title>
<polygon fill="#fffb81" stroke="black" points="3655.5,-281 3176.5,-281 3176.5,-243 3655.5,-243 3655.5,-281"/>
<text text-anchor="start" x="3184.5" y="-265.8" font-family="DejaVu Sans Mono" font-size="14.00">print(&#39;Exception occured (maybe you killed the server)&#39;)</text>
<text text-anchor="middle" x="3416" y="-250.8" font-family="DejaVu Sans Mono" font-size="14.00">print(e)</text>
</g>
<!-- 37 -->
<g id="node35" class="node">
<title>37</title>
<polygon fill="#e552ff" stroke="#e552ff" points="3178,-181.5 3132,-181.5 3132,-185.5 3120,-185.5 3120,-145.5 3178,-145.5 3178,-181.5"/>
<polyline fill="none" stroke="#e552ff" points="3120,-181.5 3132,-181.5"/>
<text text-anchor="middle" x="3149" y="-159.8" font-family="DejaVu Sans Mono" font-size="14.00">print</text>
</g>
<!-- 36&#45;&gt;37 -->
<g id="edge30" class="edge">
<title>36&#45;&gt;37</title>
<path fill="none" stroke="black" stroke-dasharray="5,2" d="M3288.58,-242.53C3270.06,-238.51 3251.39,-233.71 3234,-228 3211.9,-220.75 3205.71,-218.82 3187,-205 3181.1,-200.64 3175.34,-195.29 3170.17,-189.93"/>
<polygon fill="black" stroke="black" points="3172.94,-187.77 3163.61,-182.75 3167.77,-192.49 3172.94,-187.77"/>
<text text-anchor="middle" x="3255" y="-216.8" font-family="DejaVu Sans Mono" font-size="14.00">calls</text>
</g>
<!-- 38 -->
<g id="node36" class="node">
<title>38</title>
<polygon fill="#e552ff" stroke="#e552ff" points="3254,-181.5 3208,-181.5 3208,-185.5 3196,-185.5 3196,-145.5 3254,-145.5 3254,-181.5"/>
<polyline fill="none" stroke="#e552ff" points="3196,-181.5 3208,-181.5"/>
<text text-anchor="middle" x="3225" y="-159.8" font-family="DejaVu Sans Mono" font-size="14.00">print</text>
</g>
<!-- 36&#45;&gt;38 -->
<g id="edge31" class="edge">
<title>36&#45;&gt;38</title>
<path fill="none" stroke="black" stroke-dasharray="5,2" d="M3361.63,-242.51C3317.74,-227.46 3262.53,-208.2 3258,-205 3252.4,-201.05 3247.22,-195.9 3242.72,-190.61"/>
<polygon fill="black" stroke="black" points="3245.64,-188.67 3236.73,-182.94 3240.12,-192.97 3245.64,-188.67"/>
<text text-anchor="middle" x="3337" y="-216.8" font-family="DejaVu Sans Mono" font-size="14.00">calls</text>
</g>
<!-- 35 -->
<g id="node37" class="node">
<title>35</title>
<polygon fill="#fffb81" stroke="black" points="3102,-181.5 2912,-181.5 2912,-145.5 3102,-145.5 3102,-181.5"/>
<text text-anchor="middle" x="3007" y="-159.8" font-family="DejaVu Sans Mono" font-size="14.00">server_socket.close()</text>
</g>
<!-- 36&#45;&gt;35 -->
<g id="edge33" class="edge">
<title>36&#45;&gt;35</title>
<path fill="none" stroke="black" d="M3266.6,-242.56C3215.52,-233.97 3158.54,-221.82 3108,-205 3091.38,-199.47 3073.56,-192.63 3057.58,-186.16"/>
<polygon fill="black" stroke="black" points="3059.36,-183.11 3048.78,-182.56 3056.7,-189.59 3059.36,-183.11"/>
</g>
<!-- 48 -->
<g id="node38" class="node">
<title>48</title>
<polygon fill="#e552ff" stroke="#e552ff" points="3093.5,-83 2932.5,-83 2932.5,-87 2920.5,-87 2920.5,-47 3093.5,-47 3093.5,-83"/>
<polyline fill="none" stroke="#e552ff" points="2920.5,-83 2932.5,-83"/>
<text text-anchor="middle" x="3007" y="-61.3" font-family="DejaVu Sans Mono" font-size="14.00">server_socket.close</text>
</g>
<!-- 35&#45;&gt;48 -->
<g id="edge32" class="edge">
<title>35&#45;&gt;48</title>
<path fill="none" stroke="black" stroke-dasharray="5,2" d="M3007,-145.25C3007,-131.2 3007,-111.08 3007,-94.62"/>
<polygon fill="black" stroke="black" points="3010.5,-94.94 3007,-84.94 3003.5,-94.94 3010.5,-94.94"/>
<text text-anchor="middle" x="3028" y="-102.8" font-family="DejaVu Sans Mono" font-size="14.00">calls</text>
</g>
<!-- 39 -->
<g id="node39" class="node">
<title>39</title>
<polygon fill="#fffb81" stroke="black" points="3158.5,-280 2679.5,-280 2679.5,-244 3158.5,-244 3158.5,-280"/>
<text text-anchor="middle" x="2919" y="-258.3" font-family="DejaVu Sans Mono" font-size="14.00">print(&#39;Exception occured (maybe you killed the server)&#39;)</text>
</g>
<!-- 39&#45;&gt;35 -->
<g id="edge35" class="edge">
<title>39&#45;&gt;35</title>
<path fill="none" stroke="black" d="M2934.73,-243.75C2948.29,-228.88 2968.05,-207.21 2983.49,-190.28"/>
<polygon fill="black" stroke="black" points="2985.93,-192.79 2990.09,-183.05 2980.76,-188.08 2985.93,-192.79"/>
</g>
<!-- 40 -->
<g id="node40" class="node">
<title>40</title>
<polygon fill="#e552ff" stroke="#e552ff" points="2894,-181.5 2848,-181.5 2848,-185.5 2836,-185.5 2836,-145.5 2894,-145.5 2894,-181.5"/>
<polyline fill="none" stroke="#e552ff" points="2836,-181.5 2848,-181.5"/>
<text text-anchor="middle" x="2865" y="-159.8" font-family="DejaVu Sans Mono" font-size="14.00">print</text>
</g>
<!-- 39&#45;&gt;40 -->
<g id="edge34" class="edge">
<title>39&#45;&gt;40</title>
<path fill="none" stroke="black" stroke-dasharray="5,2" d="M2906.95,-243.78C2903.6,-238.77 2900.05,-233.24 2897,-228 2890.27,-216.44 2883.5,-203.29 2877.93,-191.96"/>
<polygon fill="black" stroke="black" points="2881.17,-190.62 2873.67,-183.14 2874.87,-193.67 2881.17,-190.62"/>
<text text-anchor="middle" x="2918" y="-216.8" font-family="DejaVu Sans Mono" font-size="14.00">calls</text>
</g>
<!-- 41&#45;&gt;35 -->
<g id="edge42" class="edge">
<title>41&#45;&gt;35</title>
<path fill="none" stroke="red" d="M3708.21,-246.27C3694.45,-242.35 3679.22,-238.51 3665,-236 3631.75,-230.13 3395.71,-214.81 3362,-213 3305.61,-209.97 3163.27,-216.57 3108,-205 3089.01,-201.02 3069.01,-193.72 3051.85,-186.4"/>
<polygon fill="red" stroke="red" points="3053.53,-183.31 3042.96,-182.48 3050.7,-189.72 3053.53,-183.31"/>
<text text-anchor="middle" x="3605" y="-216.8" font-family="DejaVu Sans Mono" font-size="14.00">(False)</text>
</g>
<!-- 42 -->
<g id="node42" class="node">
<title>42</title>
<polygon fill="#fffb81" stroke="black" points="3833.5,-205 3272.5,-205 3272.5,-122 3833.5,-122 3833.5,-205"/>
<text text-anchor="start" x="3280.5" y="-189.8" font-family="DejaVu Sans Mono" font-size="14.00">client_socket, client_address = server_socket.accept()</text>
<text text-anchor="start" x="3280.5" y="-174.8" font-family="DejaVu Sans Mono" font-size="14.00">new_thread = threading.Thread(target=handler, args=(client_socket,</text>
<text text-anchor="start" x="3280.5" y="-159.8" font-family="DejaVu Sans Mono" font-size="14.00"> &#160;&#160;&#160;client_address))</text>
<text text-anchor="start" x="3280.5" y="-144.8" font-family="DejaVu Sans Mono" font-size="14.00">new_thread.start()</text>
<text text-anchor="middle" x="3553" y="-129.8" font-family="DejaVu Sans Mono" font-size="14.00">threads.append(new_thread)</text>
</g>
<!-- 41&#45;&gt;42 -->
<g id="edge41" class="edge">
<title>41&#45;&gt;42</title>
<path fill="none" stroke="green" d="M3728.3,-243.6C3713.4,-233.91 3694.06,-222.03 3676,-213 3674.08,-212.04 3672.13,-211.08 3670.16,-210.13"/>
<polygon fill="green" stroke="green" points="3672.08,-207.17 3661.54,-206.08 3669.1,-213.5 3672.08,-207.17"/>
<text text-anchor="middle" x="3719" y="-216.8" font-family="DejaVu Sans Mono" font-size="14.00">True</text>
</g>
<!-- 42&#45;&gt;41 -->
<g id="edge40" class="edge">
<title>42&#45;&gt;41</title>
<path fill="none" stroke="black" d="M3638.37,-205.48C3661.99,-216.83 3686.76,-228.72 3707.28,-238.57"/>
<polygon fill="black" stroke="black" points="3705.71,-241.7 3716.24,-242.87 3708.74,-235.39 3705.71,-241.7"/>
</g>
<!-- 44 -->
<g id="node43" class="node">
<title>44</title>
<polygon fill="#e552ff" stroke="#e552ff" points="3483,-83 3313,-83 3313,-87 3301,-87 3301,-47 3483,-47 3483,-83"/>
<polyline fill="none" stroke="#e552ff" points="3301,-83 3313,-83"/>
<text text-anchor="middle" x="3392" y="-61.3" font-family="DejaVu Sans Mono" font-size="14.00">server_socket.accept</text>
</g>
<!-- 42&#45;&gt;44 -->
<g id="edge36" class="edge">
<title>42&#45;&gt;44</title>
<path fill="none" stroke="black" stroke-dasharray="5,2" d="M3484.72,-121.58C3466.27,-110.51 3446.94,-98.93 3430.73,-89.21"/>
<polygon fill="black" stroke="black" points="3432.75,-86.35 3422.38,-84.21 3429.16,-92.35 3432.75,-86.35"/>
<text text-anchor="middle" x="3488" y="-102.8" font-family="DejaVu Sans Mono" font-size="14.00">calls</text>
</g>
<!-- 45 -->
<g id="node44" class="node">
<title>45</title>
<polygon fill="#e552ff" stroke="#e552ff" points="3650.5,-83 3513.5,-83 3513.5,-87 3501.5,-87 3501.5,-47 3650.5,-47 3650.5,-83"/>
<polyline fill="none" stroke="#e552ff" points="3501.5,-83 3513.5,-83"/>
<text text-anchor="middle" x="3576" y="-61.3" font-family="DejaVu Sans Mono" font-size="14.00">threading.Thread</text>
</g>
<!-- 42&#45;&gt;45 -->
<g id="edge37" class="edge">
<title>42&#45;&gt;45</title>
<path fill="none" stroke="black" stroke-dasharray="5,2" d="M3562.75,-121.58C3564.92,-112.5 3567.17,-103.07 3569.18,-94.6"/>
<polygon fill="black" stroke="black" points="3572.58,-95.44 3571.49,-84.9 3565.77,-93.82 3572.58,-95.44"/>
<text text-anchor="middle" x="3588" y="-102.8" font-family="DejaVu Sans Mono" font-size="14.00">calls</text>
</g>
<!-- 46 -->
<g id="node45" class="node">
<title>46</title>
<polygon fill="#e552ff" stroke="#e552ff" points="3817.5,-83 3680.5,-83 3680.5,-87 3668.5,-87 3668.5,-47 3817.5,-47 3817.5,-83"/>
<polyline fill="none" stroke="#e552ff" points="3668.5,-83 3680.5,-83"/>
<text text-anchor="middle" x="3743" y="-61.3" font-family="DejaVu Sans Mono" font-size="14.00">new_thread.start</text>
</g>
<!-- 42&#45;&gt;46 -->
<g id="edge38" class="edge">
<title>42&#45;&gt;46</title>
<path fill="none" stroke="black" stroke-dasharray="5,2" d="M3633.58,-121.58C3655.87,-110.25 3679.24,-98.38 3698.64,-88.53"/>
<polygon fill="black" stroke="black" points="3700,-91.76 3707.33,-84.12 3696.83,-85.52 3700,-91.76"/>
<text text-anchor="middle" x="3697" y="-102.8" font-family="DejaVu Sans Mono" font-size="14.00">calls</text>
</g>
<!-- 47 -->
<g id="node46" class="node">
<title>47</title>
<polygon fill="#e552ff" stroke="#e552ff" points="3283,-83 3163,-83 3163,-87 3151,-87 3151,-47 3283,-47 3283,-83"/>
<polyline fill="none" stroke="#e552ff" points="3151,-83 3163,-83"/>
<text text-anchor="middle" x="3217" y="-61.3" font-family="DejaVu Sans Mono" font-size="14.00">threads.append</text>
</g>
<!-- 42&#45;&gt;47 -->
<g id="edge39" class="edge">
<title>42&#45;&gt;47</title>
<path fill="none" stroke="black" stroke-dasharray="5,2" d="M3398.03,-121.54C3363.05,-111.88 3326.17,-101.37 3292,-91 3287.76,-89.71 3283.4,-88.36 3279.02,-86.96"/>
<polygon fill="black" stroke="black" points="3280.15,-83.65 3269.56,-83.92 3278,-90.31 3280.15,-83.65"/>
<text text-anchor="middle" x="3391" y="-102.8" font-family="DejaVu Sans Mono" font-size="14.00">calls</text>
</g>
<!-- input -->
<g id="node47" class="node">
<title>input</title>
<polygon fill="#afeeee" stroke="black" points="4223.04,-558 4135.48,-558 4112.96,-522 4200.52,-522 4223.04,-558"/>
<text text-anchor="middle" x="4168" y="-536.3" font-family="DejaVu Sans Mono" font-size="14.00">input</text>
</g>
<!-- call -->
<g id="node52" class="node">
<title>call</title>
<polygon fill="#e552ff" stroke="black" points="4195,-280 4153,-280 4153,-284 4141,-284 4141,-244 4195,-244 4195,-280"/>
<polyline fill="none" stroke="black" points="4141,-280 4153,-280"/>
<text text-anchor="middle" x="4168" y="-258.3" font-family="DejaVu Sans Mono" font-size="14.00">call</text>
</g>
<!-- input&#45;&gt;call -->
<!-- default -->
<g id="node48" class="node">
<title>default</title>
<polygon fill="#fffb81" stroke="black" points="4069,-280 3995,-280 3995,-244 4069,-244 4069,-280"/>
<text text-anchor="middle" x="4032" y="-258.3" font-family="DejaVu Sans Mono" font-size="14.00">default</text>
</g>
<!-- if -->
<g id="node49" class="node">
<title>if</title>
<polygon fill="#ff6752" stroke="black" points="4168,-881.5 4137.83,-863.5 4168,-845.5 4198.17,-863.5 4168,-881.5"/>
<text text-anchor="middle" x="4168" y="-859.8" font-family="DejaVu Sans Mono" font-size="14.00">if</text>
</g>
<!-- if&#45;&gt;input -->
<!-- for -->
<g id="node50" class="node">
<title>for</title>
<polygon fill="#ffbe52" stroke="black" points="4118.54,-863.5 4103.27,-881.5 4072.73,-881.5 4057.46,-863.5 4072.73,-845.5 4103.27,-845.5 4118.54,-863.5"/>
<text text-anchor="middle" x="4088" y="-859.8" font-family="DejaVu Sans Mono" font-size="14.00">for</text>
</g>
<!-- return -->
<g id="node53" class="node">
<title>return</title>
<polygon fill="#98fb98" stroke="black" points="4094.79,-558 3994.91,-558 3969.21,-522 4069.09,-522 4094.79,-558"/>
<text text-anchor="middle" x="4032" y="-536.3" font-family="DejaVu Sans Mono" font-size="14.00">return</text>
</g>
<!-- for&#45;&gt;return -->
<!-- while -->
<g id="node51" class="node">
<title>while</title>
<polygon fill="#ffbe52" stroke="black" points="4039.56,-863.5 4017.78,-881.5 3974.22,-881.5 3952.44,-863.5 3974.22,-845.5 4017.78,-845.5 4039.56,-863.5"/>
<text text-anchor="middle" x="3996" y="-859.8" font-family="DejaVu Sans Mono" font-size="14.00">while</text>
</g>
<!-- return&#45;&gt;default -->
<!-- try -->
<g id="node54" class="node">
<title>try</title>
<polygon fill="orange" stroke="black" points="3897,-881.5 3859.13,-863.5 3897,-845.5 3934.87,-863.5 3897,-881.5"/>
<polyline fill="none" stroke="black" points="3869.97,-868.65 3869.97,-858.35"/>
<polyline fill="none" stroke="black" points="3886.16,-850.65 3907.84,-850.65"/>
<polyline fill="none" stroke="black" points="3924.03,-858.35 3924.03,-868.65"/>
<polyline fill="none" stroke="black" points="3907.84,-876.35 3886.16,-876.35"/>
<text text-anchor="middle" x="3897" y="-859.8" font-family="DejaVu Sans Mono" font-size="14.00">try</text>
</g>
<!-- raise -->
<g id="node55" class="node">
<title>raise</title>
<polygon fill="#98fb98" stroke="black" points="3951.69,-545.56 3905,-558 3858.31,-545.56 3858.35,-525.44 3951.65,-525.44 3951.69,-545.56"/>
<text text-anchor="middle" x="3905" y="-536.3" font-family="DejaVu Sans Mono" font-size="14.00">raise</text>
</g>
<!-- try&#45;&gt;raise -->
</g>
</svg>
