<?xml version="1.0" encoding="UTF-8" standalone="no"?>
<!DOCTYPE svg PUBLIC "-//W3C//DTD SVG 1.1//EN"
 "http://www.w3.org/Graphics/SVG/1.1/DTD/svg11.dtd">
<!-- Generated by graphviz version 2.42.4 (0)
 -->
<!-- Title: classes Pages: 1 -->
<svg width="1422pt" height="499pt"
 viewBox="0.00 0.00 1421.50 499.00" xmlns="http://www.w3.org/2000/svg" xmlns:xlink="http://www.w3.org/1999/xlink">
<g id="graph0" class="graph" transform="scale(1 1) rotate(0) translate(4 495)">
<title>classes</title>
<polygon fill="white" stroke="transparent" points="-4,4 -4,-495 1417.5,-495 1417.5,4 -4,4"/>
<!-- 0 -->
<g id="node1" class="node">
<title>0</title>
<polygon fill="none" stroke="black" points="719.5,-30.5 719.5,-144.5 864.5,-144.5 864.5,-30.5 719.5,-30.5"/>
<text text-anchor="middle" x="792" y="-129.3" font-family="Times,serif" font-size="14.00">AdminSmith</text>
<polyline fill="none" stroke="black" points="719.5,-121.5 864.5,-121.5 "/>
<text text-anchor="start" x="727.5" y="-106.3" font-family="Times,serif" font-size="14.00">adminsmiths : list</text>
<text text-anchor="start" x="727.5" y="-91.3" font-family="Times,serif" font-size="14.00">color : str</text>
<text text-anchor="start" x="727.5" y="-76.3" font-family="Times,serif" font-size="14.00">repr_char : str</text>
<polyline fill="none" stroke="black" points="719.5,-68.5 864.5,-68.5 "/>
<text text-anchor="start" x="727.5" y="-53.3" font-family="Times,serif" font-size="14.00">contact_dist()</text>
<text text-anchor="start" x="727.5" y="-38.3" font-family="Times,serif" font-size="14.00">move()</text>
</g>
<!-- 2 -->
<g id="node3" class="node">
<title>2</title>
<polygon fill="none" stroke="black" points="629,-264 629,-453 805,-453 805,-264 629,-264"/>
<text text-anchor="middle" x="717" y="-437.8" font-family="Times,serif" font-size="14.00">Entity</text>
<polyline fill="none" stroke="black" points="629,-430 805,-430 "/>
<text text-anchor="start" x="637" y="-414.8" font-family="Times,serif" font-size="14.00">active : bool</text>
<text text-anchor="start" x="637" y="-399.8" font-family="Times,serif" font-size="14.00">col</text>
<text text-anchor="start" x="637" y="-384.8" font-family="Times,serif" font-size="14.00">color : str</text>
<text text-anchor="start" x="637" y="-369.8" font-family="Times,serif" font-size="14.00">repr_char : str</text>
<text text-anchor="start" x="637" y="-354.8" font-family="Times,serif" font-size="14.00">row</text>
<polyline fill="none" stroke="black" points="629,-347 805,-347 "/>
<text text-anchor="start" x="637" y="-331.8" font-family="Times,serif" font-size="14.00">char()</text>
<text text-anchor="start" x="637" y="-316.8" font-family="Times,serif" font-size="14.00">contact_dist()</text>
<text text-anchor="start" x="637" y="-301.8" font-family="Times,serif" font-size="14.00">contact_player(player)</text>
<text text-anchor="start" x="637" y="-286.8" font-family="Times,serif" font-size="14.00">distance(other)</text>
<text text-anchor="start" x="637" y="-271.8" font-family="Times,serif" font-size="14.00">move()</text>
</g>
<!-- 0&#45;&gt;2 -->
<g id="edge1" class="edge">
<title>0&#45;&gt;2</title>
<path fill="none" stroke="black" d="M776.37,-144.56C767.54,-176.23 756.23,-216.8 745.85,-254.02"/>
<polygon fill="none" stroke="black" points="742.41,-253.34 743.09,-263.91 749.15,-255.22 742.41,-253.34"/>
</g>
<!-- 1 -->
<g id="node2" class="node">
<title>1</title>
<polygon fill="none" stroke="black" points="1092,-30.5 1092,-144.5 1214,-144.5 1214,-30.5 1092,-30.5"/>
<text text-anchor="middle" x="1153" y="-129.3" font-family="Times,serif" font-size="14.00">AntiCipher</text>
<polyline fill="none" stroke="black" points="1092,-121.5 1214,-121.5 "/>
<text text-anchor="start" x="1100" y="-106.3" font-family="Times,serif" font-size="14.00">color : str</text>
<text text-anchor="start" x="1100" y="-91.3" font-family="Times,serif" font-size="14.00">player_to_hunt</text>
<text text-anchor="start" x="1100" y="-76.3" font-family="Times,serif" font-size="14.00">repr_char : str</text>
<polyline fill="none" stroke="black" points="1092,-68.5 1214,-68.5 "/>
<text text-anchor="start" x="1100" y="-53.3" font-family="Times,serif" font-size="14.00">contact_dist()</text>
<text text-anchor="start" x="1100" y="-38.3" font-family="Times,serif" font-size="14.00">move()</text>
</g>
<!-- 1&#45;&gt;2 -->
<g id="edge2" class="edge">
<title>1&#45;&gt;2</title>
<path fill="none" stroke="black" d="M1146.49,-144.58C1140.86,-167.71 1130.4,-192.65 1111,-208 1081.38,-231.44 977.88,-214.21 942,-226 897.34,-240.68 851.88,-265.1 813.61,-288.94"/>
<polygon fill="none" stroke="black" points="811.65,-286.04 805.06,-294.33 815.38,-291.96 811.65,-286.04"/>
</g>
<!-- 3 -->
<g id="node4" class="node">
<title>3</title>
<polygon fill="none" stroke="black" points="951,-226.5 951,-490.5 1385,-490.5 1385,-226.5 951,-226.5"/>
<text text-anchor="middle" x="1168" y="-475.3" font-family="Times,serif" font-size="14.00">Map</text>
<polyline fill="none" stroke="black" points="951,-467.5 1385,-467.5 "/>
<text text-anchor="start" x="959" y="-452.3" font-family="Times,serif" font-size="14.00">chunk_cols</text>
<text text-anchor="start" x="959" y="-437.3" font-family="Times,serif" font-size="14.00">chunk_rows</text>
<text text-anchor="start" x="959" y="-422.3" font-family="Times,serif" font-size="14.00">chunks</text>
<text text-anchor="start" x="959" y="-407.3" font-family="Times,serif" font-size="14.00">entities : list</text>
<text text-anchor="start" x="959" y="-392.3" font-family="Times,serif" font-size="14.00">lines</text>
<text text-anchor="start" x="959" y="-377.3" font-family="Times,serif" font-size="14.00">oracle</text>
<text text-anchor="start" x="959" y="-362.3" font-family="Times,serif" font-size="14.00">player</text>
<polyline fill="none" stroke="black" points="951,-354.5 1385,-354.5 "/>
<text text-anchor="start" x="959" y="-339.3" font-family="Times,serif" font-size="14.00">get_campus_map(map_file_name, chunk_rows, chunk_cols)</text>
<text text-anchor="start" x="959" y="-324.3" font-family="Times,serif" font-size="14.00">get_chunk(row, col)</text>
<text text-anchor="start" x="959" y="-309.3" font-family="Times,serif" font-size="14.00">get_chunk_idxs(row, col)</text>
<text text-anchor="start" x="959" y="-294.3" font-family="Times,serif" font-size="14.00">get_entities_in_same_chunk(row, col)</text>
<text text-anchor="start" x="959" y="-279.3" font-family="Times,serif" font-size="14.00">move_all()</text>
<text text-anchor="start" x="959" y="-264.3" font-family="Times,serif" font-size="14.00">populate()</text>
<text text-anchor="start" x="959" y="-249.3" font-family="Times,serif" font-size="14.00">pretty_print()</text>
<text text-anchor="start" x="959" y="-234.3" font-family="Times,serif" font-size="14.00">process_move(entity, char)</text>
</g>
<!-- 4 -->
<g id="node5" class="node">
<title>4</title>
<polygon fill="none" stroke="black" points="194,-23 194,-152 370,-152 370,-23 194,-23"/>
<text text-anchor="middle" x="282" y="-136.8" font-family="Times,serif" font-size="14.00">Mask</text>
<polyline fill="none" stroke="black" points="194,-129 370,-129 "/>
<text text-anchor="start" x="202" y="-113.8" font-family="Times,serif" font-size="14.00">active : bool</text>
<text text-anchor="start" x="202" y="-98.8" font-family="Times,serif" font-size="14.00">color : str</text>
<text text-anchor="start" x="202" y="-83.8" font-family="Times,serif" font-size="14.00">repr_char : str</text>
<polyline fill="none" stroke="black" points="194,-76 370,-76 "/>
<text text-anchor="start" x="202" y="-60.8" font-family="Times,serif" font-size="14.00">contact_dist()</text>
<text text-anchor="start" x="202" y="-45.8" font-family="Times,serif" font-size="14.00">contact_player(player)</text>
<text text-anchor="start" x="202" y="-30.8" font-family="Times,serif" font-size="14.00">move()</text>
</g>
<!-- 4&#45;&gt;2 -->
<g id="edge3" class="edge">
<title>4&#45;&gt;2</title>
<path fill="none" stroke="black" d="M349.24,-152.01C358.94,-160.11 369.02,-168 379,-175 455.68,-228.78 549.95,-278.48 619.44,-312.39"/>
<polygon fill="none" stroke="black" points="618.12,-315.64 628.64,-316.86 621.18,-309.34 618.12,-315.64"/>
</g>
<!-- 5 -->
<g id="node6" class="node">
<title>5</title>
<polygon fill="none" stroke="black" points="882.5,-0.5 882.5,-174.5 1073.5,-174.5 1073.5,-0.5 882.5,-0.5"/>
<text text-anchor="middle" x="978" y="-159.3" font-family="Times,serif" font-size="14.00">Player</text>
<polyline fill="none" stroke="black" points="882.5,-151.5 1073.5,-151.5 "/>
<text text-anchor="start" x="890.5" y="-136.3" font-family="Times,serif" font-size="14.00">color : str</text>
<text text-anchor="start" x="890.5" y="-121.3" font-family="Times,serif" font-size="14.00">exposure_factor : float</text>
<text text-anchor="start" x="890.5" y="-106.3" font-family="Times,serif" font-size="14.00">has_mask : bool</text>
<text text-anchor="start" x="890.5" y="-91.3" font-family="Times,serif" font-size="14.00">has_meme_drive : bool</text>
<text text-anchor="start" x="890.5" y="-76.3" font-family="Times,serif" font-size="14.00">has_vaccine : bool</text>
<text text-anchor="start" x="890.5" y="-61.3" font-family="Times,serif" font-size="14.00">repr_char : str</text>
<polyline fill="none" stroke="black" points="882.5,-53.5 1073.5,-53.5 "/>
<text text-anchor="start" x="890.5" y="-38.3" font-family="Times,serif" font-size="14.00">check_for_game_ended()</text>
<text text-anchor="start" x="890.5" y="-23.3" font-family="Times,serif" font-size="14.00">exposure()</text>
<text text-anchor="start" x="890.5" y="-8.3" font-family="Times,serif" font-size="14.00">move()</text>
</g>
<!-- 5&#45;&gt;2 -->
<g id="edge4" class="edge">
<title>5&#45;&gt;2</title>
<path fill="none" stroke="black" d="M894.34,-174.72C868.2,-201.67 839.16,-231.59 812.28,-259.3"/>
<polygon fill="none" stroke="black" points="809.58,-257.05 805.13,-266.67 814.61,-261.93 809.58,-257.05"/>
</g>
<!-- 5&#45;&gt;3 -->
<g id="edge9" class="edge">
<title>5&#45;&gt;3</title>
<path fill="none" stroke="black" d="M1038.9,-174.72C1048.34,-188.08 1058.29,-202.18 1068.32,-216.37"/>
<polygon fill="black" stroke="black" points="1068.34,-216.4 1075.07,-218.99 1075.26,-226.2 1068.53,-223.61 1068.34,-216.4"/>
<text text-anchor="middle" x="1084" y="-196.8" font-family="Times,serif" font-size="14.00" fill="green">player</text>
</g>
<!-- 6 -->
<g id="node7" class="node">
<title>6</title>
<polygon fill="none" stroke="black" points="582.5,-30.5 582.5,-144.5 701.5,-144.5 701.5,-30.5 582.5,-30.5"/>
<text text-anchor="middle" x="642" y="-129.3" font-family="Times,serif" font-size="14.00">PoliceDrone</text>
<polyline fill="none" stroke="black" points="582.5,-121.5 701.5,-121.5 "/>
<text text-anchor="start" x="590.5" y="-106.3" font-family="Times,serif" font-size="14.00">color : str</text>
<text text-anchor="start" x="590.5" y="-91.3" font-family="Times,serif" font-size="14.00">repr_char : str</text>
<text text-anchor="start" x="590.5" y="-76.3" font-family="Times,serif" font-size="14.00">vaccine</text>
<polyline fill="none" stroke="black" points="582.5,-68.5 701.5,-68.5 "/>
<text text-anchor="start" x="590.5" y="-53.3" font-family="Times,serif" font-size="14.00">contact_dist()</text>
<text text-anchor="start" x="590.5" y="-38.3" font-family="Times,serif" font-size="14.00">move()</text>
</g>
<!-- 6&#45;&gt;2 -->
<g id="edge5" class="edge">
<title>6&#45;&gt;2</title>
<path fill="none" stroke="black" d="M657.63,-144.56C666.46,-176.23 677.77,-216.8 688.15,-254.02"/>
<polygon fill="none" stroke="black" points="684.85,-255.22 690.91,-263.91 691.59,-253.34 684.85,-255.22"/>
</g>
<!-- 7 -->
<g id="node8" class="node">
<title>7</title>
<polygon fill="none" stroke="black" points="1232.5,-8 1232.5,-167 1413.5,-167 1413.5,-8 1232.5,-8"/>
<text text-anchor="middle" x="1323" y="-151.8" font-family="Times,serif" font-size="14.00">The0racle</text>
<polyline fill="none" stroke="black" points="1232.5,-144 1413.5,-144 "/>
<text text-anchor="start" x="1240.5" y="-128.8" font-family="Times,serif" font-size="14.00">color : str</text>
<text text-anchor="start" x="1240.5" y="-113.8" font-family="Times,serif" font-size="14.00">move_frequencies : list</text>
<text text-anchor="start" x="1240.5" y="-98.8" font-family="Times,serif" font-size="14.00">num_moves : int</text>
<text text-anchor="start" x="1240.5" y="-83.8" font-family="Times,serif" font-size="14.00">repr_char : str</text>
<polyline fill="none" stroke="black" points="1232.5,-76 1413.5,-76 "/>
<text text-anchor="start" x="1240.5" y="-60.8" font-family="Times,serif" font-size="14.00">contact_dist()</text>
<text text-anchor="start" x="1240.5" y="-45.8" font-family="Times,serif" font-size="14.00">contact_player(player)</text>
<text text-anchor="start" x="1240.5" y="-30.8" font-family="Times,serif" font-size="14.00">get_direction(player)</text>
<text text-anchor="start" x="1240.5" y="-15.8" font-family="Times,serif" font-size="14.00">move()</text>
</g>
<!-- 7&#45;&gt;2 -->
<g id="edge6" class="edge">
<title>7&#45;&gt;2</title>
<path fill="none" stroke="black" d="M1235.72,-167C1231.51,-169.83 1227.26,-172.51 1223,-175 1185.49,-196.91 1173.4,-198.53 1131,-208 1048.65,-226.39 1022.31,-200.1 942,-226 897.36,-240.39 851.98,-264.69 813.78,-288.51"/>
<polygon fill="none" stroke="black" points="811.83,-285.61 805.24,-293.91 815.56,-291.53 811.83,-285.61"/>
</g>
<!-- 7&#45;&gt;3 -->
<g id="edge10" class="edge">
<title>7&#45;&gt;3</title>
<path fill="none" stroke="black" d="M1277.75,-167.03C1268.83,-182.5 1259.22,-199.18 1249.53,-216.01"/>
<polygon fill="black" stroke="black" points="1249.48,-216.09 1249.95,-223.29 1243.49,-226.49 1243.02,-219.3 1249.48,-216.09"/>
<text text-anchor="middle" x="1281" y="-196.8" font-family="Times,serif" font-size="14.00" fill="green">oracle</text>
</g>
<!-- 8 -->
<g id="node9" class="node">
<title>8</title>
<polygon fill="none" stroke="black" points="0,-30.5 0,-144.5 176,-144.5 176,-30.5 0,-30.5"/>
<text text-anchor="middle" x="88" y="-129.3" font-family="Times,serif" font-size="14.00">The1</text>
<polyline fill="none" stroke="black" points="0,-121.5 176,-121.5 "/>
<text text-anchor="start" x="8" y="-106.3" font-family="Times,serif" font-size="14.00">active : bool</text>
<text text-anchor="start" x="8" y="-91.3" font-family="Times,serif" font-size="14.00">color : str</text>
<text text-anchor="start" x="8" y="-76.3" font-family="Times,serif" font-size="14.00">repr_char : str</text>
<polyline fill="none" stroke="black" points="0,-68.5 176,-68.5 "/>
<text text-anchor="start" x="8" y="-53.3" font-family="Times,serif" font-size="14.00">contact_dist()</text>
<text text-anchor="start" x="8" y="-38.3" font-family="Times,serif" font-size="14.00">contact_player(player)</text>
</g>
<!-- 8&#45;&gt;2 -->
<g id="edge7" class="edge">
<title>8&#45;&gt;2</title>
<path fill="none" stroke="black" d="M143.52,-144.71C156.4,-155.78 170.59,-166.57 185,-175 325.31,-257.09 508.11,-309.59 618.8,-336.27"/>
<polygon fill="none" stroke="black" points="618.08,-339.7 628.62,-338.62 619.71,-332.89 618.08,-339.7"/>
</g>
<!-- 9 -->
<g id="node10" class="node">
<title>9</title>
<polygon fill="none" stroke="black" points="388,-30.5 388,-144.5 564,-144.5 564,-30.5 388,-30.5"/>
<text text-anchor="middle" x="476" y="-129.3" font-family="Times,serif" font-size="14.00">VaccineDrive</text>
<polyline fill="none" stroke="black" points="388,-121.5 564,-121.5 "/>
<text text-anchor="start" x="396" y="-106.3" font-family="Times,serif" font-size="14.00">active : bool</text>
<text text-anchor="start" x="396" y="-91.3" font-family="Times,serif" font-size="14.00">color : str</text>
<text text-anchor="start" x="396" y="-76.3" font-family="Times,serif" font-size="14.00">repr_char : str</text>
<polyline fill="none" stroke="black" points="388,-68.5 564,-68.5 "/>
<text text-anchor="start" x="396" y="-53.3" font-family="Times,serif" font-size="14.00">contact_dist()</text>
<text text-anchor="start" x="396" y="-38.3" font-family="Times,serif" font-size="14.00">contact_player(player)</text>
</g>
<!-- 9&#45;&gt;2 -->
<g id="edge8" class="edge">
<title>9&#45;&gt;2</title>
<path fill="none" stroke="black" d="M526.23,-144.56C555.2,-176.9 592.5,-218.53 626.42,-256.39"/>
<polygon fill="none" stroke="black" points="623.87,-258.8 633.15,-263.91 629.09,-254.13 623.87,-258.8"/>
</g>
</g>
</svg>
