<?xml version="1.0" encoding="UTF-8" standalone="no"?>
<!DOCTYPE svg PUBLIC "-//W3C//DTD SVG 1.1//EN"
 "http://www.w3.org/Graphics/SVG/1.1/DTD/svg11.dtd">
<!-- Generated by graphviz version 2.42.4 (0)
 -->
<!-- Title: packages Pages: 1 -->
<svg width="188pt" height="260pt"
 viewBox="0.00 0.00 188.00 260.00" xmlns="http://www.w3.org/2000/svg" xmlns:xlink="http://www.w3.org/1999/xlink">
<g id="graph0" class="graph" transform="scale(1 1) rotate(0) translate(4 256)">
<title>packages</title>
<polygon fill="white" stroke="transparent" points="-4,4 -4,-256 184,-256 184,4 -4,4"/>
<!-- 0 -->
<g id="node1" class="node">
<title>0</title>
<polygon fill="none" stroke="black" points="77,-252 0,-252 0,-216 77,-216 77,-252"/>
<text text-anchor="middle" x="38.5" y="-230.3" font-family="Times,serif" font-size="14.00">ascii_art</text>
</g>
<!-- 1 -->
<g id="node2" class="node">
<title>1</title>
<polygon fill="none" stroke="black" points="130.5,-180 38.5,-180 38.5,-144 130.5,-144 130.5,-180"/>
<text text-anchor="middle" x="84.5" y="-158.3" font-family="Times,serif" font-size="14.00">characters</text>
</g>
<!-- 1&#45;&gt;0 -->
<g id="edge1" class="edge">
<title>1&#45;&gt;0</title>
<path fill="none" stroke="black" d="M73.13,-180.3C67.78,-188.44 61.3,-198.31 55.39,-207.3"/>
<polygon fill="black" stroke="black" points="49.74,-215.9 51.47,-205.07 52.49,-211.72 55.23,-207.54 55.23,-207.54 55.23,-207.54 52.49,-211.72 58.99,-210.01 49.74,-215.9 49.74,-215.9"/>
</g>
<!-- 4 -->
<g id="node5" class="node">
<title>4</title>
<polygon fill="none" stroke="black" points="180,-252 109,-252 109,-216 180,-216 180,-252"/>
<text text-anchor="middle" x="144.5" y="-230.3" font-family="Times,serif" font-size="14.00">rq_utils</text>
</g>
<!-- 1&#45;&gt;4 -->
<g id="edge2" class="edge">
<title>1&#45;&gt;4</title>
<path fill="none" stroke="black" d="M99.33,-180.3C106.52,-188.7 115.3,-198.93 123.19,-208.14"/>
<polygon fill="black" stroke="black" points="129.84,-215.9 119.91,-211.23 126.59,-212.1 123.33,-208.3 123.33,-208.3 123.33,-208.3 126.59,-212.1 126.75,-205.37 129.84,-215.9 129.84,-215.9"/>
</g>
<!-- 2 -->
<g id="node3" class="node">
<title>2</title>
<polygon fill="none" stroke="black" points="132,-108 39,-108 39,-72 132,-72 132,-108"/>
<text text-anchor="middle" x="85.5" y="-86.3" font-family="Times,serif" font-size="14.00">game_map</text>
</g>
<!-- 2&#45;&gt;1 -->
<g id="edge3" class="edge">
<title>2&#45;&gt;1</title>
<path fill="none" stroke="black" d="M85.25,-108.3C85.14,-116.02 85.01,-125.29 84.89,-133.89"/>
<polygon fill="black" stroke="black" points="84.74,-143.9 80.39,-133.83 84.82,-138.9 84.89,-133.9 84.89,-133.9 84.89,-133.9 84.82,-138.9 89.39,-133.96 84.74,-143.9 84.74,-143.9"/>
</g>
<!-- 2&#45;&gt;4 -->
<g id="edge4" class="edge">
<title>2&#45;&gt;4</title>
<path fill="none" stroke="black" d="M109.8,-108.06C120.93,-117.31 133.05,-129.76 139.5,-144 148.26,-163.33 149.07,-187.48 147.93,-205.74"/>
<polygon fill="black" stroke="black" points="147.09,-215.74 143.45,-205.39 147.51,-210.75 147.93,-205.77 147.93,-205.77 147.93,-205.77 147.51,-210.75 152.41,-206.15 147.09,-215.74 147.09,-215.74"/>
</g>
<!-- 3 -->
<g id="node4" class="node">
<title>3</title>
<polygon fill="none" stroke="black" points="95,-36 0,-36 0,0 95,0 95,-36"/>
<text text-anchor="middle" x="47.5" y="-14.3" font-family="Times,serif" font-size="14.00">rolla_quest</text>
</g>
<!-- 3&#45;&gt;0 -->
<g id="edge5" class="edge">
<title>3&#45;&gt;0</title>
<path fill="none" stroke="black" d="M40.02,-36.3C36.03,-46.48 31.53,-59.73 29.5,-72 21.68,-119.36 25.47,-132.17 29.5,-180 30.22,-188.5 31.57,-197.69 33.01,-205.99"/>
<polygon fill="black" stroke="black" points="34.85,-215.91 28.6,-206.89 33.94,-210.99 33.03,-206.07 33.03,-206.07 33.03,-206.07 33.94,-210.99 37.45,-205.26 34.85,-215.91 34.85,-215.91"/>
</g>
<!-- 3&#45;&gt;2 -->
<g id="edge6" class="edge">
<title>3&#45;&gt;2</title>
<path fill="none" stroke="black" d="M56.89,-36.3C61.26,-44.36 66.56,-54.11 71.4,-63.02"/>
<polygon fill="black" stroke="black" points="76.21,-71.9 67.49,-65.25 73.83,-67.5 71.44,-63.11 71.44,-63.11 71.44,-63.11 73.83,-67.5 75.4,-60.96 76.21,-71.9 76.21,-71.9"/>
</g>
</g>
</svg>
