<?xml version="1.0" encoding="UTF-8" standalone="no"?>
<!DOCTYPE svg PUBLIC "-//W3C//DTD SVG 1.1//EN"
 "http://www.w3.org/Graphics/SVG/1.1/DTD/svg11.dtd">
<!-- Generated by graphviz version 7.1.0 (0)
 -->
<!-- Title: cluster0grader_server.py Pages: 1 -->
<svg width="2839pt" height="812pt"
 viewBox="0.00 0.00 2839.33 811.50" xmlns="http://www.w3.org/2000/svg" xmlns:xlink="http://www.w3.org/1999/xlink">
<g id="graph0" class="graph" transform="scale(1 1) rotate(0) translate(4 807.5)">
<title>cluster0grader_server.py</title>
<polygon fill="white" stroke="none" points="-4,4 -4,-807.5 2835.33,-807.5 2835.33,4 -4,4"/>
<text text-anchor="middle" x="1415.66" y="-7.8" font-family="DejaVu Sans Mono" font-size="14.00">grader_server.py</text>
<g id="clust1" class="cluster">
<title>cluster_41</title>
<polygon fill="purple" stroke="purple" points="171.33,-275.5 171.33,-327.5 253.33,-327.5 253.33,-275.5 171.33,-275.5"/>
</g>
<g id="clust2" class="cluster">
<title>cluster0server</title>
<polygon fill="none" stroke="black" points="432.33,-122 432.33,-795.5 1142.33,-795.5 1142.33,-122 432.33,-122"/>
<text text-anchor="middle" x="787.33" y="-780.3" font-family="DejaVu Sans Mono" font-size="14.00">server</text>
</g>
<g id="clust3" class="cluster">
<title>cluster_3</title>
<polygon fill="purple" stroke="purple" points="440.33,-548 440.33,-600 964.33,-600 964.33,-548 440.33,-548"/>
</g>
<g id="clust4" class="cluster">
<title>cluster_8</title>
<polygon fill="purple" stroke="purple" points="604.33,-130 604.33,-327.5 1094.33,-327.5 1094.33,-130 604.33,-130"/>
</g>
<g id="clust5" class="cluster">
<title>cluster0serve_request</title>
<polygon fill="none" stroke="black" points="1150.33,-31 1150.33,-779.5 2434.33,-779.5 2434.33,-31 1150.33,-31"/>
<text text-anchor="middle" x="1792.33" y="-764.3" font-family="DejaVu Sans Mono" font-size="14.00">serve_request</text>
</g>
<g id="clust6" class="cluster">
<title>cluster_16</title>
<polygon fill="purple" stroke="purple" points="1158.33,-548 1158.33,-600 1266.33,-600 1266.33,-548 1158.33,-548"/>
</g>
<g id="clust7" class="cluster">
<title>cluster_20</title>
<polygon fill="purple" stroke="purple" points="1368.33,-130 1368.33,-182 1500.33,-182 1500.33,-130 1368.33,-130"/>
</g>
<g id="clust8" class="cluster">
<title>cluster_19</title>
<polygon fill="purple" stroke="purple" points="1510.33,-39 1510.33,-91 1626.33,-91 1626.33,-39 1510.33,-39"/>
</g>
<g id="clust9" class="cluster">
<title>cluster_18</title>
<polygon fill="purple" stroke="purple" points="1278.33,-421.5 1278.33,-473.5 1520.33,-473.5 1520.33,-421.5 1278.33,-421.5"/>
</g>
<g id="clust10" class="cluster">
<title>cluster_24</title>
<polygon fill="purple" stroke="purple" points="1158.33,-130 1158.33,-327.5 1306.33,-327.5 1306.33,-130 1158.33,-130"/>
</g>
<g id="clust11" class="cluster">
<title>cluster_27</title>
<polygon fill="purple" stroke="purple" points="1636.33,-39 1636.33,-182 2204.33,-182 2204.33,-39 1636.33,-39"/>
</g>
<g id="clust12" class="cluster">
<title>cluster_29</title>
<polygon fill="purple" stroke="purple" points="2212.33,-130 2212.33,-182 2344.33,-182 2344.33,-130 2212.33,-130"/>
</g>
<g id="clust13" class="cluster">
<title>cluster_KEY</title>
<polygon fill="none" stroke="black" points="2442.33,-421.5 2442.33,-779.5 2823.33,-779.5 2823.33,-421.5 2442.33,-421.5"/>
<text text-anchor="middle" x="2632.83" y="-764.3" font-family="DejaVu Sans Mono" font-size="14.00">KEY</text>
</g>
<!-- 1 -->
<g id="node1" class="node">
<title>1</title>
<polygon fill="#fffb81" stroke="black" points="422.83,-787 1.83,-787 1.83,-674 422.83,-674 422.83,-787"/>
<text text-anchor="start" x="9.83" y="-771.8" font-family="DejaVu Sans Mono" font-size="14.00">import re</text>
<text text-anchor="start" x="9.83" y="-756.8" font-family="DejaVu Sans Mono" font-size="14.00">import socket</text>
<text text-anchor="start" x="9.83" y="-741.8" font-family="DejaVu Sans Mono" font-size="14.00">import threading</text>
<text text-anchor="start" x="9.83" y="-726.8" font-family="DejaVu Sans Mono" font-size="14.00">import os</text>
<text text-anchor="start" x="9.83" y="-711.8" font-family="DejaVu Sans Mono" font-size="14.00">base_dir = &#39;goal_files/&#39;</text>
<text text-anchor="start" x="9.83" y="-696.8" font-family="DejaVu Sans Mono" font-size="14.00">def server(server_port: int=8923) &#45;&gt;None:...</text>
<text text-anchor="middle" x="212.33" y="-681.8" font-family="DejaVu Sans Mono" font-size="14.00">def serve_request(sock: socket.socket) &#45;&gt;None:...</text>
</g>
<!-- 40 -->
<g id="node2" class="node">
<title>40</title>
<polygon fill="#ff6752" stroke="black" points="212.33,-592 0.17,-574 212.33,-556 424.48,-574 212.33,-592"/>
<text text-anchor="middle" x="212.33" y="-570.3" font-family="DejaVu Sans Mono" font-size="14.00">if __name__ == &#39;__main__&#39;:</text>
</g>
<!-- 1&#45;&gt;40 -->
<g id="edge3" class="edge">
<title>1&#45;&gt;40</title>
<path fill="none" stroke="black" d="M212.33,-673.72C212.33,-650.07 212.33,-623.5 212.33,-603.89"/>
<polygon fill="black" stroke="black" points="215.83,-603.9 212.33,-593.9 208.83,-603.9 215.83,-603.9"/>
</g>
<!-- 41 -->
<g id="node3" class="node">
<title>41</title>
<polygon fill="#fffb81" stroke="black" points="253.83,-465.5 170.83,-465.5 170.83,-429.5 253.83,-429.5 253.83,-465.5"/>
<text text-anchor="middle" x="212.33" y="-443.8" font-family="DejaVu Sans Mono" font-size="14.00">server()</text>
</g>
<!-- 40&#45;&gt;41 -->
<g id="edge2" class="edge">
<title>40&#45;&gt;41</title>
<path fill="none" stroke="green" d="M212.33,-555.69C212.33,-535.34 212.33,-501.28 212.33,-477.01"/>
<polygon fill="green" stroke="green" points="215.83,-477.18 212.33,-467.18 208.83,-477.18 215.83,-477.18"/>
<text text-anchor="middle" x="303.33" y="-485.8" font-family="DejaVu Sans Mono" font-size="14.00">__name__ == &#39;__main__&#39;</text>
</g>
<!-- 43 -->
<g id="node4" class="node">
<title>43</title>
<polygon fill="#e552ff" stroke="#e552ff" points="245.33,-319.5 191.33,-319.5 191.33,-323.5 179.33,-323.5 179.33,-283.5 245.33,-283.5 245.33,-319.5"/>
<polyline fill="none" stroke="#e552ff" points="179.33,-319.5 191.33,-319.5"/>
<text text-anchor="middle" x="212.33" y="-297.8" font-family="DejaVu Sans Mono" font-size="14.00">server</text>
</g>
<!-- 41&#45;&gt;43 -->
<g id="edge1" class="edge">
<title>41&#45;&gt;43</title>
<path fill="none" stroke="black" stroke-dasharray="5,2" d="M212.33,-429.13C212.33,-404.8 212.33,-360.3 212.33,-331.06"/>
<polygon fill="black" stroke="black" points="215.83,-331.44 212.33,-321.44 208.83,-331.44 215.83,-331.44"/>
<text text-anchor="middle" x="233.33" y="-401.8" font-family="DejaVu Sans Mono" font-size="14.00">calls</text>
</g>
<!-- 3 -->
<g id="node5" class="node">
<title>3</title>
<polygon fill="#fffb81" stroke="black" points="1079.83,-764.5 526.83,-764.5 526.83,-696.5 1079.83,-696.5 1079.83,-764.5"/>
<text text-anchor="start" x="534.83" y="-749.3" font-family="DejaVu Sans Mono" font-size="14.00">server_socket = socket.socket(socket.AF_INET, socket.SOCK_STREAM)</text>
<text text-anchor="start" x="534.83" y="-734.3" font-family="DejaVu Sans Mono" font-size="14.00">server_socket.bind((&#39;localhost&#39;, server_port))</text>
<text text-anchor="start" x="534.83" y="-719.3" font-family="DejaVu Sans Mono" font-size="14.00">server_socket.listen(10)</text>
<text text-anchor="middle" x="803.33" y="-704.3" font-family="DejaVu Sans Mono" font-size="14.00">threads = []</text>
</g>
<!-- 4 -->
<g id="node6" class="node">
<title>4</title>
<polygon fill="#e552ff" stroke="#e552ff" points="956.33,-592 844.33,-592 844.33,-596 832.33,-596 832.33,-556 956.33,-556 956.33,-592"/>
<polyline fill="none" stroke="#e552ff" points="832.33,-592 844.33,-592"/>
<text text-anchor="middle" x="894.33" y="-570.3" font-family="DejaVu Sans Mono" font-size="14.00">socket.socket</text>
</g>
<!-- 3&#45;&gt;4 -->
<g id="edge4" class="edge">
<title>3&#45;&gt;4</title>
<path fill="none" stroke="black" stroke-dasharray="5,2" d="M822.85,-696.36C839.44,-668.18 862.98,-628.22 878.44,-601.97"/>
<polygon fill="black" stroke="black" points="881.31,-603.99 883.37,-593.6 875.28,-600.44 881.31,-603.99"/>
<text text-anchor="middle" x="869.33" y="-654.8" font-family="DejaVu Sans Mono" font-size="14.00">calls</text>
</g>
<!-- 5 -->
<g id="node7" class="node">
<title>5</title>
<polygon fill="#e552ff" stroke="#e552ff" points="613.83,-592 460.83,-592 460.83,-596 448.83,-596 448.83,-556 613.83,-556 613.83,-592"/>
<polyline fill="none" stroke="#e552ff" points="448.83,-592 460.83,-592"/>
<text text-anchor="middle" x="531.33" y="-570.3" font-family="DejaVu Sans Mono" font-size="14.00">server_socket.bind</text>
</g>
<!-- 3&#45;&gt;5 -->
<g id="edge5" class="edge">
<title>3&#45;&gt;5</title>
<path fill="none" stroke="black" stroke-dasharray="5,2" d="M725.9,-696.19C693.48,-681.25 655.84,-662.59 623.33,-643 601.59,-629.91 578.64,-612.95 561.1,-599.25"/>
<polygon fill="black" stroke="black" points="563.66,-596.81 553.64,-593.35 559.32,-602.3 563.66,-596.81"/>
<text text-anchor="middle" x="682.33" y="-654.8" font-family="DejaVu Sans Mono" font-size="14.00">calls</text>
</g>
<!-- 6 -->
<g id="node8" class="node">
<title>6</title>
<polygon fill="#e552ff" stroke="#e552ff" points="814.33,-592 644.33,-592 644.33,-596 632.33,-596 632.33,-556 814.33,-556 814.33,-592"/>
<polyline fill="none" stroke="#e552ff" points="632.33,-592 644.33,-592"/>
<text text-anchor="middle" x="723.33" y="-570.3" font-family="DejaVu Sans Mono" font-size="14.00">server_socket.listen</text>
</g>
<!-- 3&#45;&gt;6 -->
<g id="edge6" class="edge">
<title>3&#45;&gt;6</title>
<path fill="none" stroke="black" stroke-dasharray="5,2" d="M786.16,-696.36C771.64,-668.3 751.07,-628.58 737.47,-602.32"/>
<polygon fill="black" stroke="black" points="740.68,-600.91 732.98,-593.64 734.47,-604.13 740.68,-600.91"/>
<text text-anchor="middle" x="788.33" y="-654.8" font-family="DejaVu Sans Mono" font-size="14.00">calls</text>
</g>
<!-- 7 -->
<g id="node9" class="node">
<title>7</title>
<polygon fill="#ffbe52" stroke="black" points="1134.43,-574 1094.38,-592 1014.27,-592 974.22,-574 1014.27,-556 1094.38,-556 1134.43,-574"/>
<text text-anchor="middle" x="1054.33" y="-570.3" font-family="DejaVu Sans Mono" font-size="14.00">while True:</text>
</g>
<!-- 3&#45;&gt;7 -->
<g id="edge13" class="edge">
<title>3&#45;&gt;7</title>
<path fill="none" stroke="black" d="M874,-696.09C903.83,-681.07 938.49,-662.38 968.33,-643 988.53,-629.88 1009.78,-613.11 1026.1,-599.51"/>
<polygon fill="black" stroke="black" points="1028.07,-602.42 1033.46,-593.3 1023.56,-597.07 1028.07,-602.42"/>
</g>
<!-- 8 -->
<g id="node10" class="node">
<title>8</title>
<polygon fill="#fffb81" stroke="black" points="1134.33,-474 556.33,-474 556.33,-421 1134.33,-421 1134.33,-474"/>
<text text-anchor="start" x="564.33" y="-458.8" font-family="DejaVu Sans Mono" font-size="14.00">sock, addr = server_socket.accept()</text>
<text text-anchor="start" x="564.33" y="-443.8" font-family="DejaVu Sans Mono" font-size="14.00">threads.append(threading.Thread(target=serve_request, args=(sock,)))</text>
<text text-anchor="middle" x="845.33" y="-428.8" font-family="DejaVu Sans Mono" font-size="14.00">threads[&#45;1].start()</text>
</g>
<!-- 7&#45;&gt;8 -->
<g id="edge12" class="edge">
<title>7&#45;&gt;8</title>
<path fill="none" stroke="green" d="M1038.43,-555.68C1022.44,-539.52 996.21,-516.26 968.33,-505 934.78,-491.46 919.45,-513.63 887.33,-497 880.55,-493.49 874.39,-488.38 869,-482.79"/>
<polygon fill="green" stroke="green" points="871.88,-480.76 862.68,-475.51 866.59,-485.35 871.88,-480.76"/>
<text text-anchor="middle" x="904.33" y="-485.8" font-family="DejaVu Sans Mono" font-size="14.00">True</text>
</g>
<!-- 8&#45;&gt;7 -->
<g id="edge11" class="edge">
<title>8&#45;&gt;7</title>
<path fill="none" stroke="black" d="M908.89,-474.47C914.48,-476.95 920.02,-479.48 925.33,-482 944.9,-491.31 950.2,-493.12 968.33,-505 988.47,-518.2 1009.72,-534.97 1026.05,-548.55"/>
<polygon fill="black" stroke="black" points="1023.52,-551 1033.43,-554.75 1028.03,-545.64 1023.52,-551"/>
</g>
<!-- 10 -->
<g id="node11" class="node">
<title>10</title>
<polygon fill="#e552ff" stroke="#e552ff" points="936.33,-319.5 766.33,-319.5 766.33,-323.5 754.33,-323.5 754.33,-283.5 936.33,-283.5 936.33,-319.5"/>
<polyline fill="none" stroke="#e552ff" points="754.33,-319.5 766.33,-319.5"/>
<text text-anchor="middle" x="845.33" y="-297.8" font-family="DejaVu Sans Mono" font-size="14.00">server_socket.accept</text>
</g>
<!-- 8&#45;&gt;10 -->
<g id="edge7" class="edge">
<title>8&#45;&gt;10</title>
<path fill="none" stroke="black" stroke-dasharray="5,2" d="M845.33,-420.76C845.33,-395.61 845.33,-357.42 845.33,-331.29"/>
<polygon fill="black" stroke="black" points="848.83,-331.39 845.33,-321.39 841.83,-331.39 848.83,-331.39"/>
<text text-anchor="middle" x="866.33" y="-401.8" font-family="DejaVu Sans Mono" font-size="14.00">calls</text>
</g>
<!-- 11 -->
<g id="node12" class="node">
<title>11</title>
<polygon fill="#e552ff" stroke="#e552ff" points="1086.33,-319.5 966.33,-319.5 966.33,-323.5 954.33,-323.5 954.33,-283.5 1086.33,-283.5 1086.33,-319.5"/>
<polyline fill="none" stroke="#e552ff" points="954.33,-319.5 966.33,-319.5"/>
<text text-anchor="middle" x="1020.33" y="-297.8" font-family="DejaVu Sans Mono" font-size="14.00">threads.append</text>
</g>
<!-- 8&#45;&gt;11 -->
<g id="edge8" class="edge">
<title>8&#45;&gt;11</title>
<path fill="none" stroke="black" stroke-dasharray="5,2" d="M899.19,-420.56C914.81,-411.88 931.39,-401.46 945.33,-390 967.04,-372.14 987.51,-347.53 1001.56,-328.96"/>
<polygon fill="black" stroke="black" points="1004.26,-331.2 1007.4,-321.08 998.63,-327.03 1004.26,-331.2"/>
<text text-anchor="middle" x="953.33" y="-401.8" font-family="DejaVu Sans Mono" font-size="14.00">calls</text>
</g>
<!-- 13 -->
<g id="node13" class="node">
<title>13</title>
<polygon fill="#e552ff" stroke="#e552ff" points="736.33,-319.5 624.33,-319.5 624.33,-323.5 612.33,-323.5 612.33,-283.5 736.33,-283.5 736.33,-319.5"/>
<polyline fill="none" stroke="#e552ff" points="612.33,-319.5 624.33,-319.5"/>
<text text-anchor="middle" x="674.33" y="-297.8" font-family="DejaVu Sans Mono" font-size="14.00">threads.start</text>
</g>
<!-- 8&#45;&gt;13 -->
<g id="edge9" class="edge">
<title>8&#45;&gt;13</title>
<path fill="none" stroke="black" stroke-dasharray="5,2" d="M790.74,-420.51C775.28,-411.89 758.96,-401.52 745.33,-390 724.43,-372.34 705.17,-347.86 692,-329.28"/>
<polygon fill="black" stroke="black" points="694.95,-327.39 686.38,-321.15 689.19,-331.37 694.95,-327.39"/>
<text text-anchor="middle" x="796.33" y="-401.8" font-family="DejaVu Sans Mono" font-size="14.00">calls</text>
</g>
<!-- 12 -->
<g id="node14" class="node">
<title>12</title>
<polygon fill="#e552ff" stroke="#e552ff" points="1085.83,-174 948.83,-174 948.83,-178 936.83,-178 936.83,-138 1085.83,-138 1085.83,-174"/>
<polyline fill="none" stroke="#e552ff" points="936.83,-174 948.83,-174"/>
<text text-anchor="middle" x="1011.33" y="-152.3" font-family="DejaVu Sans Mono" font-size="14.00">threading.Thread</text>
</g>
<!-- 11&#45;&gt;12 -->
<g id="edge10" class="edge">
<title>11&#45;&gt;12</title>
<path fill="none" stroke="black" d="M1019.24,-283.19C1017.73,-259.06 1014.96,-214.99 1013.13,-185.85"/>
<polygon fill="black" stroke="black" points="1016.63,-185.64 1012.51,-175.88 1009.64,-186.08 1016.63,-185.64"/>
</g>
<!-- 16 -->
<g id="node15" class="node">
<title>16</title>
<polygon fill="#fffb81" stroke="black" points="1635.83,-748.5 1412.83,-748.5 1412.83,-712.5 1635.83,-712.5 1635.83,-748.5"/>
<text text-anchor="middle" x="1524.33" y="-726.8" font-family="DejaVu Sans Mono" font-size="14.00">request = sock.recv(4096)</text>
</g>
<!-- 17 -->
<g id="node16" class="node">
<title>17</title>
<polygon fill="#e552ff" stroke="#e552ff" points="1257.83,-592 1178.83,-592 1178.83,-596 1166.83,-596 1166.83,-556 1257.83,-556 1257.83,-592"/>
<polyline fill="none" stroke="#e552ff" points="1166.83,-592 1178.83,-592"/>
<text text-anchor="middle" x="1212.33" y="-570.3" font-family="DejaVu Sans Mono" font-size="14.00">sock.recv</text>
</g>
<!-- 16&#45;&gt;17 -->
<g id="edge14" class="edge">
<title>16&#45;&gt;17</title>
<path fill="none" stroke="black" stroke-dasharray="5,2" d="M1425.53,-712.05C1373.37,-699.27 1310.4,-677.89 1262.33,-643 1247.63,-632.33 1235.44,-616.06 1226.78,-602.11"/>
<polygon fill="black" stroke="black" points="1229.97,-600.62 1221.88,-593.77 1223.94,-604.17 1229.97,-600.62"/>
<text text-anchor="middle" x="1314.33" y="-654.8" font-family="DejaVu Sans Mono" font-size="14.00">calls</text>
</g>
<!-- 18 -->
<g id="node17" class="node">
<title>18</title>
<polygon fill="orange" stroke="black" points="1779.33,-643 1276.33,-574 1779.33,-505 2282.33,-574 1779.33,-643"/>
<polyline fill="none" stroke="black" points="1288.21,-575.63 1288.21,-572.37"/>
<polyline fill="none" stroke="black" points="1767.44,-506.63 1791.21,-506.63"/>
<polyline fill="none" stroke="black" points="2270.44,-572.37 2270.44,-575.63"/>
<polyline fill="none" stroke="black" points="1791.21,-641.37 1767.44,-641.37"/>
<text text-anchor="end" x="2206.94" y="-593.3" font-family="DejaVu Sans Mono" font-size="14.00">re_res = re.search(b&#39;^GET\ (?:http://[^/]*)?/*(.*)\ HTTP/.*</text>
<text text-anchor="middle" x="1779.33" y="-562.3" font-family="DejaVu Sans Mono" font-size="14.00">&#39;, request)</text>
<text text-anchor="middle" x="1779.33" y="-547.3" font-family="DejaVu Sans Mono" font-size="14.00">filepath = re_res.group(1)</text>
</g>
<!-- 16&#45;&gt;18 -->
<g id="edge35" class="edge">
<title>16&#45;&gt;18</title>
<path fill="none" stroke="black" d="M1553.08,-712.08C1583.3,-693.77 1632.58,-663.91 1677.44,-636.73"/>
<polygon fill="black" stroke="black" points="1679.2,-639.75 1685.94,-631.58 1675.58,-633.77 1679.2,-639.75"/>
</g>
<!-- 22 -->
<g id="node22" class="node">
<title>22</title>
<polygon fill="#e552ff" stroke="#e552ff" points="1511.83,-465.5 1432.83,-465.5 1432.83,-469.5 1420.83,-469.5 1420.83,-429.5 1511.83,-429.5 1511.83,-465.5"/>
<polyline fill="none" stroke="#e552ff" points="1420.83,-465.5 1432.83,-465.5"/>
<text text-anchor="middle" x="1466.33" y="-443.8" font-family="DejaVu Sans Mono" font-size="14.00">re.search</text>
</g>
<!-- 18&#45;&gt;22 -->
<g id="edge18" class="edge">
<title>18&#45;&gt;22</title>
<path fill="none" stroke="black" stroke-dasharray="5,2" d="M1639.61,-523.71C1599.44,-508.65 1555.82,-491.44 1516.33,-474 1514.04,-472.99 1511.72,-471.93 1509.38,-470.84"/>
<polygon fill="black" stroke="black" points="1511.05,-467.75 1500.52,-466.56 1508,-474.06 1511.05,-467.75"/>
<text text-anchor="middle" x="1586.33" y="-485.8" font-family="DejaVu Sans Mono" font-size="14.00">calls</text>
</g>
<!-- 23 -->
<g id="node23" class="node">
<title>23</title>
<polygon fill="#e552ff" stroke="#e552ff" points="1402.33,-465.5 1298.33,-465.5 1298.33,-469.5 1286.33,-469.5 1286.33,-429.5 1402.33,-429.5 1402.33,-465.5"/>
<polyline fill="none" stroke="#e552ff" points="1286.33,-465.5 1298.33,-465.5"/>
<text text-anchor="middle" x="1344.33" y="-443.8" font-family="DejaVu Sans Mono" font-size="14.00">re_res.group</text>
</g>
<!-- 18&#45;&gt;23 -->
<g id="edge19" class="edge">
<title>18&#45;&gt;23</title>
<path fill="none" stroke="black" stroke-dasharray="5,2" d="M1600.26,-529.24C1540.08,-513.34 1472.88,-494.25 1412.33,-474 1408.39,-472.68 1404.34,-471.28 1400.27,-469.84"/>
<polygon fill="black" stroke="black" points="1401.54,-466.58 1390.94,-466.48 1399.16,-473.16 1401.54,-466.58"/>
<text text-anchor="middle" x="1502.33" y="-485.8" font-family="DejaVu Sans Mono" font-size="14.00">calls</text>
</g>
<!-- 24 -->
<g id="node24" class="node">
<title>24</title>
<polygon fill="#ff6752" stroke="black" points="1901.33,-465.5 1530.15,-447.5 1901.33,-429.5 2272.5,-447.5 1901.33,-465.5"/>
<text text-anchor="middle" x="1901.33" y="-443.8" font-family="DejaVu Sans Mono" font-size="14.00">if os.path.exists(base_dir + filepath.decode()):</text>
</g>
<!-- 18&#45;&gt;24 -->
<g id="edge34" class="edge">
<title>18&#45;&gt;24</title>
<path fill="none" stroke="black" d="M1838.18,-512.94C1851.97,-498.87 1865.91,-484.64 1877.17,-473.15"/>
<polygon fill="black" stroke="black" points="1879.65,-475.62 1884.15,-466.03 1874.65,-470.72 1879.65,-475.62"/>
</g>
<!-- 20 -->
<g id="node18" class="node">
<title>20</title>
<polygon fill="#fffb81" stroke="black" points="1654.33,-344.5 1316.33,-344.5 1316.33,-258.5 1654.33,-258.5 1654.33,-344.5"/>
<text text-anchor="end" x="1646.33" y="-329.3" font-family="DejaVu Sans Mono" font-size="14.00">sock.sendall(b&#39;HTTP/1.1 400 Bad Request</text>
<text text-anchor="middle" x="1485.33" y="-266.3" font-family="DejaVu Sans Mono" font-size="14.00">&#39;)</text>
</g>
<!-- 21 -->
<g id="node19" class="node">
<title>21</title>
<polygon fill="#e552ff" stroke="#e552ff" points="1492.33,-174 1388.33,-174 1388.33,-178 1376.33,-178 1376.33,-138 1492.33,-138 1492.33,-174"/>
<polyline fill="none" stroke="#e552ff" points="1376.33,-174 1388.33,-174"/>
<text text-anchor="middle" x="1434.33" y="-152.3" font-family="DejaVu Sans Mono" font-size="14.00">sock.sendall</text>
</g>
<!-- 20&#45;&gt;21 -->
<g id="edge15" class="edge">
<title>20&#45;&gt;21</title>
<path fill="none" stroke="black" stroke-dasharray="5,2" d="M1470.3,-258.22C1461.92,-234.64 1451.71,-205.93 1444.32,-185.11"/>
<polygon fill="black" stroke="black" points="1447.68,-184.12 1441.03,-175.87 1441.08,-186.46 1447.68,-184.12"/>
<text text-anchor="middle" x="1471.33" y="-193.8" font-family="DejaVu Sans Mono" font-size="14.00">calls</text>
</g>
<!-- 19 -->
<g id="node20" class="node">
<title>19</title>
<polygon fill="#fffb81" stroke="black" points="1626.33,-174 1510.33,-174 1510.33,-138 1626.33,-138 1626.33,-174"/>
<text text-anchor="middle" x="1568.33" y="-152.3" font-family="DejaVu Sans Mono" font-size="14.00">sock.close()</text>
</g>
<!-- 20&#45;&gt;19 -->
<g id="edge17" class="edge">
<title>20&#45;&gt;19</title>
<path fill="none" stroke="black" d="M1509.78,-258.22C1523.61,-234.32 1540.49,-205.13 1552.56,-184.25"/>
<polygon fill="black" stroke="black" points="1555.5,-186.16 1557.48,-175.75 1549.44,-182.66 1555.5,-186.16"/>
</g>
<!-- 38 -->
<g id="node21" class="node">
<title>38</title>
<polygon fill="#e552ff" stroke="#e552ff" points="1617.83,-83 1530.83,-83 1530.83,-87 1518.83,-87 1518.83,-47 1617.83,-47 1617.83,-83"/>
<polyline fill="none" stroke="#e552ff" points="1518.83,-83 1530.83,-83"/>
<text text-anchor="middle" x="1568.33" y="-61.3" font-family="DejaVu Sans Mono" font-size="14.00">sock.close</text>
</g>
<!-- 19&#45;&gt;38 -->
<g id="edge16" class="edge">
<title>19&#45;&gt;38</title>
<path fill="none" stroke="black" stroke-dasharray="5,2" d="M1568.33,-137.84C1568.33,-125.61 1568.33,-108.87 1568.33,-94.63"/>
<polygon fill="black" stroke="black" points="1571.83,-94.92 1568.33,-84.92 1564.83,-94.92 1571.83,-94.92"/>
<text text-anchor="middle" x="1589.33" y="-102.8" font-family="DejaVu Sans Mono" font-size="14.00">calls</text>
</g>
<!-- 25 -->
<g id="node25" class="node">
<title>25</title>
<polygon fill="#e552ff" stroke="#e552ff" points="1298.33,-319.5 1178.33,-319.5 1178.33,-323.5 1166.33,-323.5 1166.33,-283.5 1298.33,-283.5 1298.33,-319.5"/>
<polyline fill="none" stroke="#e552ff" points="1166.33,-319.5 1178.33,-319.5"/>
<text text-anchor="middle" x="1232.33" y="-297.8" font-family="DejaVu Sans Mono" font-size="14.00">os.path.exists</text>
</g>
<!-- 24&#45;&gt;25 -->
<g id="edge20" class="edge">
<title>24&#45;&gt;25</title>
<path fill="none" stroke="black" stroke-dasharray="5,2" d="M1759.53,-435.92C1588.77,-422.76 1322.2,-400.73 1302.33,-390 1277.4,-376.54 1258.18,-350.08 1246.24,-329.77"/>
<polygon fill="black" stroke="black" points="1249.35,-328.15 1241.41,-321.13 1243.24,-331.56 1249.35,-328.15"/>
<text text-anchor="middle" x="1496.33" y="-401.8" font-family="DejaVu Sans Mono" font-size="14.00">calls</text>
</g>
<!-- 27 -->
<g id="node27" class="node">
<title>27</title>
<polygon fill="#fffb81" stroke="black" points="2085.83,-390 1672.83,-390 1672.83,-213 2085.83,-213 2085.83,-390"/>
<text text-anchor="start" x="1680.83" y="-374.8" font-family="DejaVu Sans Mono" font-size="14.00">file = f.read()</text>
<text text-anchor="start" x="1680.83" y="-359.8" font-family="DejaVu Sans Mono" font-size="14.00">content_length = str(len(file))</text>
<text text-anchor="end" x="2077.83" y="-344.8" font-family="DejaVu Sans Mono" font-size="14.00">header = b&#39;HTTP/1.1 200 OK</text>
<text text-anchor="start" x="1680.83" y="-313.8" font-family="DejaVu Sans Mono" font-size="14.00">&#39; + b&#39;Content&#45;Length: &#39; + content_length.encode(</text>
<text text-anchor="end" x="2077.83" y="-298.8" font-family="DejaVu Sans Mono" font-size="14.00"> &#160;&#160;&#160;) + b&#39;</text>
<text text-anchor="start" x="1680.83" y="-235.8" font-family="DejaVu Sans Mono" font-size="14.00">&#39;</text>
<text text-anchor="middle" x="1879.33" y="-220.8" font-family="DejaVu Sans Mono" font-size="14.00">sock.sendall(header + file)</text>
</g>
<!-- 24&#45;&gt;27 -->
<g id="edge30" class="edge">
<title>24&#45;&gt;27</title>
<path fill="none" stroke="green" d="M1710.44,-438.32C1680.02,-433.15 1655.01,-425.17 1644.33,-413 1639.93,-407.99 1640.6,-403.53 1644.33,-398 1644.41,-397.88 1650.95,-395.16 1661.81,-390.71"/>
<polygon fill="green" stroke="green" points="1663.07,-393.98 1671,-386.95 1660.42,-387.5 1663.07,-393.98"/>
<text text-anchor="middle" x="1821.83" y="-401.8" font-family="DejaVu Sans Mono" font-size="14.00">os.path.exists(base_dir + filepath.decode())</text>
</g>
<!-- 29 -->
<g id="node35" class="node">
<title>29</title>
<polygon fill="#fffb81" stroke="black" points="2426.33,-344.5 2104.33,-344.5 2104.33,-258.5 2426.33,-258.5 2426.33,-344.5"/>
<text text-anchor="end" x="2418.33" y="-329.3" font-family="DejaVu Sans Mono" font-size="14.00">sock.sendall(b&#39;HTTP/1.1 404 NOT FOUND</text>
<text text-anchor="middle" x="2265.33" y="-266.3" font-family="DejaVu Sans Mono" font-size="14.00">&#39;)</text>
</g>
<!-- 24&#45;&gt;29 -->
<g id="edge33" class="edge">
<title>24&#45;&gt;29</title>
<path fill="none" stroke="red" d="M1962.19,-431.98C2000.94,-421.96 2051.82,-407.34 2095.33,-390 2123.76,-378.66 2153.77,-364.14 2180.53,-350.2"/>
<polygon fill="red" stroke="red" points="2182.05,-353.35 2189.27,-345.59 2178.8,-347.15 2182.05,-353.35"/>
<text text-anchor="middle" x="2271.83" y="-401.8" font-family="DejaVu Sans Mono" font-size="14.00">(not os.path.exists(base_dir + filepath.decode()))</text>
</g>
<!-- 26 -->
<g id="node26" class="node">
<title>26</title>
<polygon fill="#e552ff" stroke="#e552ff" points="1298.33,-174 1178.33,-174 1178.33,-178 1166.33,-178 1166.33,-138 1298.33,-138 1298.33,-174"/>
<polyline fill="none" stroke="#e552ff" points="1166.33,-174 1178.33,-174"/>
<text text-anchor="middle" x="1232.33" y="-152.3" font-family="DejaVu Sans Mono" font-size="14.00">filepath.decode</text>
</g>
<!-- 25&#45;&gt;26 -->
<g id="edge21" class="edge">
<title>25&#45;&gt;26</title>
<path fill="none" stroke="black" d="M1232.33,-283.19C1232.33,-259.06 1232.33,-214.99 1232.33,-185.85"/>
<polygon fill="black" stroke="black" points="1235.83,-185.88 1232.33,-175.88 1228.83,-185.88 1235.83,-185.88"/>
</g>
<!-- 27&#45;&gt;19 -->
<g id="edge29" class="edge">
<title>27&#45;&gt;19</title>
<path fill="none" stroke="black" d="M1689.01,-212.69C1662.17,-200.3 1636.78,-188.59 1616.28,-179.13"/>
<polygon fill="black" stroke="black" points="1617.95,-176.04 1607.4,-175.03 1615.01,-182.4 1617.95,-176.04"/>
</g>
<!-- 31 -->
<g id="node28" class="node">
<title>31</title>
<polygon fill="#e552ff" stroke="#e552ff" points="1832.33,-174 1790.33,-174 1790.33,-178 1778.33,-178 1778.33,-138 1832.33,-138 1832.33,-174"/>
<polyline fill="none" stroke="#e552ff" points="1778.33,-174 1790.33,-174"/>
<text text-anchor="middle" x="1805.33" y="-152.3" font-family="DejaVu Sans Mono" font-size="14.00">open</text>
</g>
<!-- 27&#45;&gt;31 -->
<g id="edge22" class="edge">
<title>27&#45;&gt;31</title>
<path fill="none" stroke="black" stroke-dasharray="5,2" d="M1834.15,-212.89C1828.82,-202.55 1823.72,-192.68 1819.34,-184.18"/>
<polygon fill="black" stroke="black" points="1822.6,-182.85 1814.9,-175.57 1816.37,-186.06 1822.6,-182.85"/>
<text text-anchor="middle" x="1849.33" y="-193.8" font-family="DejaVu Sans Mono" font-size="14.00">calls</text>
</g>
<!-- 33 -->
<g id="node29" class="node">
<title>33</title>
<polygon fill="#e552ff" stroke="#e552ff" points="1916.33,-174 1862.33,-174 1862.33,-178 1850.33,-178 1850.33,-138 1916.33,-138 1916.33,-174"/>
<polyline fill="none" stroke="#e552ff" points="1850.33,-174 1862.33,-174"/>
<text text-anchor="middle" x="1883.33" y="-152.3" font-family="DejaVu Sans Mono" font-size="14.00">f.read</text>
</g>
<!-- 27&#45;&gt;33 -->
<g id="edge23" class="edge">
<title>27&#45;&gt;33</title>
<path fill="none" stroke="black" stroke-dasharray="5,2" d="M1881.77,-212.89C1882.04,-203.13 1882.3,-193.77 1882.53,-185.61"/>
<polygon fill="black" stroke="black" points="1886.02,-185.83 1882.8,-175.74 1879.03,-185.64 1886.02,-185.83"/>
<text text-anchor="middle" x="1903.33" y="-193.8" font-family="DejaVu Sans Mono" font-size="14.00">calls</text>
</g>
<!-- 34 -->
<g id="node30" class="node">
<title>34</title>
<polygon fill="#e552ff" stroke="#e552ff" points="1988.33,-174 1946.33,-174 1946.33,-178 1934.33,-178 1934.33,-138 1988.33,-138 1988.33,-174"/>
<polyline fill="none" stroke="#e552ff" points="1934.33,-174 1946.33,-174"/>
<text text-anchor="middle" x="1961.33" y="-152.3" font-family="DejaVu Sans Mono" font-size="14.00">str</text>
</g>
<!-- 27&#45;&gt;34 -->
<g id="edge24" class="edge">
<title>27&#45;&gt;34</title>
<path fill="none" stroke="black" stroke-dasharray="5,2" d="M1929.39,-212.89C1935.3,-202.55 1940.94,-192.68 1945.79,-184.18"/>
<polygon fill="black" stroke="black" points="1948.81,-185.96 1950.73,-175.54 1942.73,-182.48 1948.81,-185.96"/>
<text text-anchor="middle" x="1962.33" y="-193.8" font-family="DejaVu Sans Mono" font-size="14.00">calls</text>
</g>
<!-- 36 -->
<g id="node31" class="node">
<title>36</title>
<polygon fill="#e552ff" stroke="#e552ff" points="2196.33,-174 2018.33,-174 2018.33,-178 2006.33,-178 2006.33,-138 2196.33,-138 2196.33,-174"/>
<polyline fill="none" stroke="#e552ff" points="2006.33,-174 2018.33,-174"/>
<text text-anchor="middle" x="2101.33" y="-152.3" font-family="DejaVu Sans Mono" font-size="14.00">content_length.encode</text>
</g>
<!-- 27&#45;&gt;36 -->
<g id="edge25" class="edge">
<title>27&#45;&gt;36</title>
<path fill="none" stroke="black" stroke-dasharray="5,2" d="M2015.18,-212.69C2033.46,-200.87 2050.8,-189.66 2065.06,-180.44"/>
<polygon fill="black" stroke="black" points="2066.65,-183.58 2073.14,-175.22 2062.85,-177.71 2066.65,-183.58"/>
<text text-anchor="middle" x="2068.33" y="-193.8" font-family="DejaVu Sans Mono" font-size="14.00">calls</text>
</g>
<!-- 37 -->
<g id="node32" class="node">
<title>37</title>
<polygon fill="#e552ff" stroke="#e552ff" points="1760.33,-174 1656.33,-174 1656.33,-178 1644.33,-178 1644.33,-138 1760.33,-138 1760.33,-174"/>
<polyline fill="none" stroke="#e552ff" points="1644.33,-174 1656.33,-174"/>
<text text-anchor="middle" x="1702.33" y="-152.3" font-family="DejaVu Sans Mono" font-size="14.00">sock.sendall</text>
</g>
<!-- 27&#45;&gt;37 -->
<g id="edge26" class="edge">
<title>27&#45;&gt;37</title>
<path fill="none" stroke="black" stroke-dasharray="5,2" d="M1771.01,-212.69C1756.99,-201.32 1743.68,-190.52 1732.56,-181.52"/>
<polygon fill="black" stroke="black" points="1734.93,-178.93 1724.96,-175.35 1730.52,-184.36 1734.93,-178.93"/>
<text text-anchor="middle" x="1780.33" y="-193.8" font-family="DejaVu Sans Mono" font-size="14.00">calls</text>
</g>
<!-- 32 -->
<g id="node33" class="node">
<title>32</title>
<polygon fill="#e552ff" stroke="#e552ff" points="1871.33,-83 1751.33,-83 1751.33,-87 1739.33,-87 1739.33,-47 1871.33,-47 1871.33,-83"/>
<polyline fill="none" stroke="#e552ff" points="1739.33,-83 1751.33,-83"/>
<text text-anchor="middle" x="1805.33" y="-61.3" font-family="DejaVu Sans Mono" font-size="14.00">filepath.decode</text>
</g>
<!-- 31&#45;&gt;32 -->
<g id="edge27" class="edge">
<title>31&#45;&gt;32</title>
<path fill="none" stroke="black" d="M1805.33,-137.84C1805.33,-125.61 1805.33,-108.87 1805.33,-94.63"/>
<polygon fill="black" stroke="black" points="1808.83,-94.92 1805.33,-84.92 1801.83,-94.92 1808.83,-94.92"/>
</g>
<!-- 35 -->
<g id="node34" class="node">
<title>35</title>
<polygon fill="#e552ff" stroke="#e552ff" points="1988.33,-83 1946.33,-83 1946.33,-87 1934.33,-87 1934.33,-47 1988.33,-47 1988.33,-83"/>
<polyline fill="none" stroke="#e552ff" points="1934.33,-83 1946.33,-83"/>
<text text-anchor="middle" x="1961.33" y="-61.3" font-family="DejaVu Sans Mono" font-size="14.00">len</text>
</g>
<!-- 34&#45;&gt;35 -->
<g id="edge28" class="edge">
<title>34&#45;&gt;35</title>
<path fill="none" stroke="black" d="M1961.33,-137.84C1961.33,-125.61 1961.33,-108.87 1961.33,-94.63"/>
<polygon fill="black" stroke="black" points="1964.83,-94.92 1961.33,-84.92 1957.83,-94.92 1964.83,-94.92"/>
</g>
<!-- 29&#45;&gt;19 -->
<g id="edge32" class="edge">
<title>29&#45;&gt;19</title>
<path fill="none" stroke="black" d="M2216.01,-258.25C2183.5,-233.2 2138.67,-203.74 2093.33,-190 2044.3,-175.14 1682.59,-191.92 1632.33,-182 1627.39,-181.03 1622.34,-179.69 1617.35,-178.15"/>
<polygon fill="black" stroke="black" points="1618.61,-174.88 1608.02,-174.96 1616.35,-181.5 1618.61,-174.88"/>
</g>
<!-- 30 -->
<g id="node36" class="node">
<title>30</title>
<polygon fill="#e552ff" stroke="#e552ff" points="2336.33,-174 2232.33,-174 2232.33,-178 2220.33,-178 2220.33,-138 2336.33,-138 2336.33,-174"/>
<polyline fill="none" stroke="#e552ff" points="2220.33,-174 2232.33,-174"/>
<text text-anchor="middle" x="2278.33" y="-152.3" font-family="DejaVu Sans Mono" font-size="14.00">sock.sendall</text>
</g>
<!-- 29&#45;&gt;30 -->
<g id="edge31" class="edge">
<title>29&#45;&gt;30</title>
<path fill="none" stroke="black" stroke-dasharray="5,2" d="M2269.16,-258.22C2271.27,-234.86 2273.84,-206.46 2275.73,-185.69"/>
<polygon fill="black" stroke="black" points="2279.19,-186.23 2276.61,-175.95 2272.22,-185.59 2279.19,-186.23"/>
<text text-anchor="middle" x="2295.33" y="-193.8" font-family="DejaVu Sans Mono" font-size="14.00">calls</text>
</g>
<!-- input -->
<g id="node37" class="node">
<title>input</title>
<polygon fill="#afeeee" stroke="black" points="2815.37,-592 2727.81,-592 2705.28,-556 2792.84,-556 2815.37,-592"/>
<text text-anchor="middle" x="2760.33" y="-570.3" font-family="DejaVu Sans Mono" font-size="14.00">input</text>
</g>
<!-- call -->
<g id="node42" class="node">
<title>call</title>
<polygon fill="#e552ff" stroke="black" points="2787.33,-465.5 2745.33,-465.5 2745.33,-469.5 2733.33,-469.5 2733.33,-429.5 2787.33,-429.5 2787.33,-465.5"/>
<polyline fill="none" stroke="black" points="2733.33,-465.5 2745.33,-465.5"/>
<text text-anchor="middle" x="2760.33" y="-443.8" font-family="DejaVu Sans Mono" font-size="14.00">call</text>
</g>
<!-- input&#45;&gt;call -->
<!-- default -->
<g id="node38" class="node">
<title>default</title>
<polygon fill="#fffb81" stroke="black" points="2661.33,-465.5 2587.33,-465.5 2587.33,-429.5 2661.33,-429.5 2661.33,-465.5"/>
<text text-anchor="middle" x="2624.33" y="-443.8" font-family="DejaVu Sans Mono" font-size="14.00">default</text>
</g>
<!-- if -->
<g id="node39" class="node">
<title>if</title>
<polygon fill="#ff6752" stroke="black" points="2760.33,-748.5 2730.16,-730.5 2760.33,-712.5 2790.49,-730.5 2760.33,-748.5"/>
<text text-anchor="middle" x="2760.33" y="-726.8" font-family="DejaVu Sans Mono" font-size="14.00">if</text>
</g>
<!-- if&#45;&gt;input -->
<!-- for -->
<g id="node40" class="node">
<title>for</title>
<polygon fill="#ffbe52" stroke="black" points="2710.87,-730.5 2695.6,-748.5 2665.05,-748.5 2649.78,-730.5 2665.05,-712.5 2695.6,-712.5 2710.87,-730.5"/>
<text text-anchor="middle" x="2680.33" y="-726.8" font-family="DejaVu Sans Mono" font-size="14.00">for</text>
</g>
<!-- return -->
<g id="node43" class="node">
<title>return</title>
<polygon fill="#98fb98" stroke="black" points="2687.11,-592 2587.23,-592 2561.54,-556 2661.42,-556 2687.11,-592"/>
<text text-anchor="middle" x="2624.33" y="-570.3" font-family="DejaVu Sans Mono" font-size="14.00">return</text>
</g>
<!-- for&#45;&gt;return -->
<!-- while -->
<g id="node41" class="node">
<title>while</title>
<polygon fill="#ffbe52" stroke="black" points="2631.88,-730.5 2610.1,-748.5 2566.55,-748.5 2544.77,-730.5 2566.55,-712.5 2610.1,-712.5 2631.88,-730.5"/>
<text text-anchor="middle" x="2588.33" y="-726.8" font-family="DejaVu Sans Mono" font-size="14.00">while</text>
</g>
<!-- return&#45;&gt;default -->
<!-- try -->
<g id="node44" class="node">
<title>try</title>
<polygon fill="orange" stroke="black" points="2489.33,-748.5 2451.45,-730.5 2489.33,-712.5 2527.2,-730.5 2489.33,-748.5"/>
<polyline fill="none" stroke="black" points="2462.29,-735.65 2462.29,-725.35"/>
<polyline fill="none" stroke="black" points="2478.49,-717.65 2500.16,-717.65"/>
<polyline fill="none" stroke="black" points="2516.36,-725.35 2516.36,-735.65"/>
<polyline fill="none" stroke="black" points="2500.16,-743.35 2478.49,-743.35"/>
<text text-anchor="middle" x="2489.33" y="-726.8" font-family="DejaVu Sans Mono" font-size="14.00">try</text>
</g>
<!-- raise -->
<g id="node45" class="node">
<title>raise</title>
<polygon fill="#98fb98" stroke="black" points="2544.02,-579.56 2497.33,-592 2450.63,-579.56 2450.68,-559.44 2543.97,-559.44 2544.02,-579.56"/>
<text text-anchor="middle" x="2497.33" y="-570.3" font-family="DejaVu Sans Mono" font-size="14.00">raise</text>
</g>
<!-- try&#45;&gt;raise -->
</g>
</svg>
