<?xml version="1.0" encoding="UTF-8" standalone="no"?>
<!DOCTYPE svg PUBLIC "-//W3C//DTD SVG 1.1//EN"
 "http://www.w3.org/Graphics/SVG/1.1/DTD/svg11.dtd">
<!-- Generated by graphviz version 2.42.4 (0)
 -->
<!-- Title: cluster0racer.py Pages: 1 -->
<svg width="480pt" height="342pt"
 viewBox="0.00 0.00 480.00 342.00" xmlns="http://www.w3.org/2000/svg" xmlns:xlink="http://www.w3.org/1999/xlink">
<g id="graph0" class="graph" transform="scale(1 1) rotate(0) translate(4 338)">
<title>cluster0racer.py</title>
<polygon fill="white" stroke="transparent" points="-4,4 -4,-338 476,-338 476,4 -4,4"/>
<text text-anchor="middle" x="236" y="-7.8" font-family="Times,serif" font-size="14.00">racer.py</text>
<g id="clust1" class="cluster">
<title>cluster_KEY</title>
<polygon fill="none" stroke="black" points="0,-23 0,-186 255,-186 255,-23 0,-23"/>
<text text-anchor="middle" x="127.5" y="-170.8" font-family="Times,serif" font-size="14.00">KEY</text>
</g>
<!-- 1 -->
<g id="node1" class="node">
<title>1</title>
<polygon fill="#fffb81" stroke="black" points="472,-334 242,-334 242,-221 472,-221 472,-334"/>
<text text-anchor="start" x="250" y="-318.8" font-family="Times,serif" font-size="14.00">&quot;&quot;&quot;</text>
<text text-anchor="start" x="250" y="-303.8" font-family="Times,serif" font-size="14.00">Tunnel Vision 2.1</text>
<text text-anchor="start" x="250" y="-288.8" font-family="Times,serif" font-size="14.00">&quot;&quot;&quot;</text>
<text text-anchor="start" x="250" y="-273.8" font-family="Times,serif" font-size="14.00">from typing import List</text>
<text text-anchor="start" x="250" y="-258.8" font-family="Times,serif" font-size="14.00">import racey_art</text>
<text text-anchor="start" x="250" y="-243.8" font-family="Times,serif" font-size="14.00">write_your_code_here = &#39;now&#39;</text>
<text text-anchor="start" x="250" y="-228.8" font-family="Times,serif" font-size="14.00">write_your_code_here = True</text>
</g>
<!-- input -->
<g id="node2" class="node">
<title>input</title>
<polygon fill="#afeeee" stroke="black" points="247.42,-111 165.62,-111 144.58,-75 226.38,-75 247.42,-111"/>
<text text-anchor="middle" x="196" y="-89.3" font-family="Times,serif" font-size="14.00">input</text>
</g>
<!-- call -->
<g id="node7" class="node">
<title>call</title>
<polygon fill="#e552ff" stroke="black" points="223,-67 181,-67 181,-71 169,-71 169,-31 223,-31 223,-67"/>
<polyline fill="none" stroke="black" points="169,-67 181,-67 "/>
<text text-anchor="middle" x="196" y="-45.3" font-family="Times,serif" font-size="14.00">call</text>
</g>
<!-- input&#45;&gt;call -->
<!-- default -->
<g id="node3" class="node">
<title>default</title>
<polygon fill="#fffb81" stroke="black" points="100.5,-67 33.5,-67 33.5,-31 100.5,-31 100.5,-67"/>
<text text-anchor="middle" x="67" y="-45.3" font-family="Times,serif" font-size="14.00">default</text>
</g>
<!-- if -->
<g id="node4" class="node">
<title>if</title>
<polygon fill="#ff6752" stroke="black" points="209,-155 182,-137 209,-119 236,-137 209,-155"/>
<text text-anchor="middle" x="209" y="-133.3" font-family="Times,serif" font-size="14.00">if</text>
</g>
<!-- if&#45;&gt;input -->
<!-- for -->
<g id="node5" class="node">
<title>for</title>
<polygon fill="#ffbe52" stroke="black" points="163.54,-137 149.77,-155 122.23,-155 108.46,-137 122.23,-119 149.77,-119 163.54,-137"/>
<text text-anchor="middle" x="136" y="-133.3" font-family="Times,serif" font-size="14.00">for</text>
</g>
<!-- return -->
<g id="node8" class="node">
<title>return</title>
<polygon fill="#98fb98" stroke="black" points="126.16,-111 32.05,-111 7.84,-75 101.95,-75 126.16,-111"/>
<text text-anchor="middle" x="67" y="-89.3" font-family="Times,serif" font-size="14.00">return</text>
</g>
<!-- for&#45;&gt;return -->
<!-- while -->
<g id="node6" class="node">
<title>while</title>
<polygon fill="#ffbe52" stroke="black" points="90.05,-137 69.53,-155 28.47,-155 7.95,-137 28.47,-119 69.53,-119 90.05,-137"/>
<text text-anchor="middle" x="49" y="-133.3" font-family="Times,serif" font-size="14.00">while</text>
</g>
<!-- return&#45;&gt;default -->
</g>
</svg>
