<?xml version="1.0" encoding="UTF-8" standalone="no"?>
<!DOCTYPE svg PUBLIC "-//W3C//DTD SVG 1.1//EN"
 "http://www.w3.org/Graphics/SVG/1.1/DTD/svg11.dtd">
<!-- Generated by graphviz version 7.1.0 (0)
 -->
<!-- Title: cluster0scapy_sniffer.py Pages: 1 -->
<svg width="2264pt" height="433pt"
 viewBox="0.00 0.00 2264.00 433.00" xmlns="http://www.w3.org/2000/svg" xmlns:xlink="http://www.w3.org/1999/xlink">
<g id="graph0" class="graph" transform="scale(1 1) rotate(0) translate(4 429)">
<title>cluster0scapy_sniffer.py</title>
<polygon fill="white" stroke="none" points="-4,4 -4,-429 2260,-429 2260,4 -4,4"/>
<text text-anchor="middle" x="1128" y="-7.8" font-family="DejaVu Sans Mono" font-size="14.00">scapy_sniffer.py</text>
<g id="clust1" class="cluster">
<title>cluster_1</title>
<polygon fill="purple" stroke="purple" points="254,-205 254,-257 324,-257 324,-205 254,-205"/>
</g>
<g id="clust2" class="cluster">
<title>cluster0handle_packet</title>
<polygon fill="none" stroke="black" points="586,-31 586,-417 1859,-417 1859,-31 586,-31"/>
<text text-anchor="middle" x="1222.5" y="-401.8" font-family="DejaVu Sans Mono" font-size="14.00">handle_packet</text>
</g>
<g id="clust3" class="cluster">
<title>cluster_3</title>
<polygon fill="purple" stroke="purple" points="594,-122 594,-257 1010,-257 1010,-122 594,-122"/>
</g>
<g id="clust4" class="cluster">
<title>cluster_8</title>
<polygon fill="purple" stroke="purple" points="1018,-122 1018,-174 1088,-174 1088,-122 1018,-122"/>
</g>
<g id="clust5" class="cluster">
<title>cluster_10</title>
<polygon fill="purple" stroke="purple" points="1342,-39 1342,-91 1416,-91 1416,-39 1342,-39"/>
</g>
<g id="clust6" class="cluster">
<title>cluster_12</title>
<polygon fill="purple" stroke="purple" points="1727,-39 1727,-91 1801,-91 1801,-39 1727,-39"/>
</g>
<g id="clust7" class="cluster">
<title>cluster_KEY</title>
<polygon fill="none" stroke="black" points="1867,-122 1867,-401 2248,-401 2248,-122 1867,-122"/>
<text text-anchor="middle" x="2057.5" y="-385.8" font-family="DejaVu Sans Mono" font-size="14.00">KEY</text>
</g>
<!-- 1 -->
<g id="node1" class="node">
<title>1</title>
<polygon fill="#fffb81" stroke="black" points="578,-416 0,-416 0,-288 578,-288 578,-416"/>
<text text-anchor="start" x="8" y="-400.8" font-family="DejaVu Sans Mono" font-size="14.00">import time</text>
<text text-anchor="start" x="8" y="-385.8" font-family="DejaVu Sans Mono" font-size="14.00">from scapy.layers.inet import UDP</text>
<text text-anchor="start" x="8" y="-370.8" font-family="DejaVu Sans Mono" font-size="14.00">from scapy.layers.l2 import Ether</text>
<text text-anchor="start" x="8" y="-355.8" font-family="DejaVu Sans Mono" font-size="14.00">from scapy.sendrecv import sniff</text>
<text text-anchor="start" x="8" y="-340.8" font-family="DejaVu Sans Mono" font-size="14.00">server_dst_port = 12000</text>
<text text-anchor="start" x="8" y="-325.8" font-family="DejaVu Sans Mono" font-size="14.00">def handle_packet(packet: Ether) &#45;&gt;None:...</text>
<text text-anchor="start" x="8" y="-310.8" font-family="DejaVu Sans Mono" font-size="14.00">sniff(filter=f&#39;udp and dst port {server_dst_port}&#39;, prn=handle_packet,</text>
<text text-anchor="middle" x="289" y="-295.8" font-family="DejaVu Sans Mono" font-size="14.00"> &#160;&#160;&#160;count=26, store=False, iface=&#39;lo&#39;)</text>
</g>
<!-- 16 -->
<g id="node2" class="node">
<title>16</title>
<polygon fill="#e552ff" stroke="#e552ff" points="316,-249 274,-249 274,-253 262,-253 262,-213 316,-213 316,-249"/>
<polyline fill="none" stroke="#e552ff" points="262,-249 274,-249"/>
<text text-anchor="middle" x="289" y="-227.3" font-family="DejaVu Sans Mono" font-size="14.00">sniff</text>
</g>
<!-- 1&#45;&gt;16 -->
<g id="edge1" class="edge">
<title>1&#45;&gt;16</title>
<path fill="none" stroke="black" stroke-dasharray="5,2" d="M289,-287.67C289,-278.12 289,-268.71 289,-260.41"/>
<polygon fill="black" stroke="black" points="292.5,-260.69 289,-250.69 285.5,-260.69 292.5,-260.69"/>
<text text-anchor="middle" x="310" y="-268.8" font-family="DejaVu Sans Mono" font-size="14.00">calls</text>
</g>
<!-- 3 -->
<g id="node3" class="node">
<title>3</title>
<polygon fill="#fffb81" stroke="black" points="1104.5,-386 691.5,-386 691.5,-318 1104.5,-318 1104.5,-386"/>
<text text-anchor="start" x="699.5" y="-370.8" font-family="DejaVu Sans Mono" font-size="14.00">message = packet[UDP].load.decode()</text>
<text text-anchor="start" x="699.5" y="-355.8" font-family="DejaVu Sans Mono" font-size="14.00">time_str = message[&#45;24:]</text>
<text text-anchor="start" x="699.5" y="-340.8" font-family="DejaVu Sans Mono" font-size="14.00">time_float = time.mktime(time.strptime(time_str))</text>
<text text-anchor="middle" x="898" y="-325.8" font-family="DejaVu Sans Mono" font-size="14.00">diff = time.time() &#45; time_float</text>
</g>
<!-- 4 -->
<g id="node4" class="node">
<title>4</title>
<polygon fill="#e552ff" stroke="#e552ff" points="767.5,-249 614.5,-249 614.5,-253 602.5,-253 602.5,-213 767.5,-213 767.5,-249"/>
<polyline fill="none" stroke="#e552ff" points="602.5,-249 614.5,-249"/>
<text text-anchor="middle" x="685" y="-227.3" font-family="DejaVu Sans Mono" font-size="14.00">packet.load.decode</text>
</g>
<!-- 3&#45;&gt;4 -->
<g id="edge2" class="edge">
<title>3&#45;&gt;4</title>
<path fill="none" stroke="black" stroke-dasharray="5,2" d="M838.1,-317.54C802.35,-297.56 757.87,-272.71 726.08,-254.95"/>
<polygon fill="black" stroke="black" points="727.99,-252.01 717.56,-250.19 724.58,-258.12 727.99,-252.01"/>
<text text-anchor="middle" x="787" y="-268.8" font-family="DejaVu Sans Mono" font-size="14.00">calls</text>
</g>
<!-- 5 -->
<g id="node5" class="node">
<title>5</title>
<polygon fill="#e552ff" stroke="#e552ff" points="892.5,-249 797.5,-249 797.5,-253 785.5,-253 785.5,-213 892.5,-213 892.5,-249"/>
<polyline fill="none" stroke="#e552ff" points="785.5,-249 797.5,-249"/>
<text text-anchor="middle" x="839" y="-227.3" font-family="DejaVu Sans Mono" font-size="14.00">time.mktime</text>
</g>
<!-- 3&#45;&gt;5 -->
<g id="edge3" class="edge">
<title>3&#45;&gt;5</title>
<path fill="none" stroke="black" stroke-dasharray="5,2" d="M881.41,-317.54C872.32,-299.2 861.19,-276.77 852.62,-259.47"/>
<polygon fill="black" stroke="black" points="855.9,-258.21 848.32,-250.81 849.63,-261.32 855.9,-258.21"/>
<text text-anchor="middle" x="882" y="-268.8" font-family="DejaVu Sans Mono" font-size="14.00">calls</text>
</g>
<!-- 7 -->
<g id="node6" class="node">
<title>7</title>
<polygon fill="#e552ff" stroke="#e552ff" points="1001.5,-249 922.5,-249 922.5,-253 910.5,-253 910.5,-213 1001.5,-213 1001.5,-249"/>
<polyline fill="none" stroke="#e552ff" points="910.5,-249 922.5,-249"/>
<text text-anchor="middle" x="956" y="-227.3" font-family="DejaVu Sans Mono" font-size="14.00">time.time</text>
</g>
<!-- 3&#45;&gt;7 -->
<g id="edge4" class="edge">
<title>3&#45;&gt;7</title>
<path fill="none" stroke="black" stroke-dasharray="5,2" d="M914.31,-317.54C923.25,-299.2 934.18,-276.77 942.61,-259.47"/>
<polygon fill="black" stroke="black" points="945.6,-261.33 946.83,-250.81 939.3,-258.27 945.6,-261.33"/>
<text text-anchor="middle" x="959" y="-268.8" font-family="DejaVu Sans Mono" font-size="14.00">calls</text>
</g>
<!-- 8 -->
<g id="node8" class="node">
<title>8</title>
<polygon fill="#ff6752" stroke="black" points="1271,-249 1126.88,-231 1271,-213 1415.12,-231 1271,-249"/>
<text text-anchor="middle" x="1271" y="-227.3" font-family="DejaVu Sans Mono" font-size="14.00">if abs(diff) &gt; 10:</text>
</g>
<!-- 3&#45;&gt;8 -->
<g id="edge11" class="edge">
<title>3&#45;&gt;8</title>
<path fill="none" stroke="black" d="M1002.89,-317.54C1074.26,-294.77 1165.48,-265.67 1221,-247.95"/>
<polygon fill="black" stroke="black" points="1222.05,-251.29 1230.51,-244.92 1219.92,-244.62 1222.05,-251.29"/>
</g>
<!-- 6 -->
<g id="node7" class="node">
<title>6</title>
<polygon fill="#e552ff" stroke="#e552ff" points="901,-166 789,-166 789,-170 777,-170 777,-130 901,-130 901,-166"/>
<polyline fill="none" stroke="#e552ff" points="777,-166 789,-166"/>
<text text-anchor="middle" x="839" y="-144.3" font-family="DejaVu Sans Mono" font-size="14.00">time.strptime</text>
</g>
<!-- 5&#45;&gt;6 -->
<g id="edge5" class="edge">
<title>5&#45;&gt;6</title>
<path fill="none" stroke="black" d="M839,-212.82C839,-202.69 839,-189.6 839,-177.92"/>
<polygon fill="black" stroke="black" points="842.5,-177.95 839,-167.95 835.5,-177.95 842.5,-177.95"/>
</g>
<!-- 9 -->
<g id="node9" class="node">
<title>9</title>
<polygon fill="#e552ff" stroke="#e552ff" points="1080,-166 1038,-166 1038,-170 1026,-170 1026,-130 1080,-130 1080,-166"/>
<polyline fill="none" stroke="#e552ff" points="1026,-166 1038,-166"/>
<text text-anchor="middle" x="1053" y="-144.3" font-family="DejaVu Sans Mono" font-size="14.00">abs</text>
</g>
<!-- 8&#45;&gt;9 -->
<g id="edge6" class="edge">
<title>8&#45;&gt;9</title>
<path fill="none" stroke="black" stroke-dasharray="5,2" d="M1216.05,-219.45C1177.6,-210.68 1125.83,-196.03 1084,-174 1083.24,-173.6 1082.49,-173.18 1081.73,-172.75"/>
<polygon fill="black" stroke="black" points="1083.72,-169.87 1073.47,-167.2 1079.82,-175.68 1083.72,-169.87"/>
<text text-anchor="middle" x="1153" y="-185.8" font-family="DejaVu Sans Mono" font-size="14.00">calls</text>
</g>
<!-- 10 -->
<g id="node10" class="node">
<title>10</title>
<polygon fill="#fffb81" stroke="black" points="1659.5,-166 1098.5,-166 1098.5,-130 1659.5,-130 1659.5,-166"/>
<text text-anchor="middle" x="1379" y="-144.3" font-family="DejaVu Sans Mono" font-size="14.00">print(f&quot;Received &#39;{time_str}&#39;; Time differed by {diff:.2f} seconds&quot;)</text>
</g>
<!-- 8&#45;&gt;10 -->
<g id="edge8" class="edge">
<title>8&#45;&gt;10</title>
<path fill="none" stroke="green" d="M1290.81,-215.14C1306.47,-203.4 1328.65,-186.76 1346.85,-173.12"/>
<polygon fill="green" stroke="green" points="1348.83,-176 1354.73,-167.2 1344.63,-170.4 1348.83,-176"/>
<text text-anchor="middle" x="1388" y="-185.8" font-family="DejaVu Sans Mono" font-size="14.00">abs(diff) &gt; 10</text>
</g>
<!-- 12 -->
<g id="node12" class="node">
<title>12</title>
<polygon fill="#fffb81" stroke="black" points="1850.5,-166 1677.5,-166 1677.5,-130 1850.5,-130 1850.5,-166"/>
<text text-anchor="middle" x="1764" y="-144.3" font-family="DejaVu Sans Mono" font-size="14.00">print(&#39;Time match&#39;)</text>
</g>
<!-- 8&#45;&gt;12 -->
<g id="edge10" class="edge">
<title>8&#45;&gt;12</title>
<path fill="none" stroke="red" d="M1347.01,-222C1427.44,-212.9 1557.84,-196.37 1669,-174 1676.11,-172.57 1683.47,-170.93 1690.81,-169.18"/>
<polygon fill="red" stroke="red" points="1691.55,-172.6 1700.43,-166.82 1689.89,-165.8 1691.55,-172.6"/>
<text text-anchor="middle" x="1692.5" y="-185.8" font-family="DejaVu Sans Mono" font-size="14.00">(abs(diff) &lt;= 10)</text>
</g>
<!-- 14 -->
<g id="node11" class="node">
<title>14</title>
<polygon fill="#e552ff" stroke="#e552ff" points="1408,-83 1362,-83 1362,-87 1350,-87 1350,-47 1408,-47 1408,-83"/>
<polyline fill="none" stroke="#e552ff" points="1350,-83 1362,-83"/>
<text text-anchor="middle" x="1379" y="-61.3" font-family="DejaVu Sans Mono" font-size="14.00">print</text>
</g>
<!-- 10&#45;&gt;14 -->
<g id="edge7" class="edge">
<title>10&#45;&gt;14</title>
<path fill="none" stroke="black" stroke-dasharray="5,2" d="M1379,-129.82C1379,-119.69 1379,-106.6 1379,-94.92"/>
<polygon fill="black" stroke="black" points="1382.5,-94.95 1379,-84.95 1375.5,-94.95 1382.5,-94.95"/>
<text text-anchor="middle" x="1400" y="-102.8" font-family="DejaVu Sans Mono" font-size="14.00">calls</text>
</g>
<!-- 13 -->
<g id="node13" class="node">
<title>13</title>
<polygon fill="#e552ff" stroke="#e552ff" points="1793,-83 1747,-83 1747,-87 1735,-87 1735,-47 1793,-47 1793,-83"/>
<polyline fill="none" stroke="#e552ff" points="1735,-83 1747,-83"/>
<text text-anchor="middle" x="1764" y="-61.3" font-family="DejaVu Sans Mono" font-size="14.00">print</text>
</g>
<!-- 12&#45;&gt;13 -->
<g id="edge9" class="edge">
<title>12&#45;&gt;13</title>
<path fill="none" stroke="black" stroke-dasharray="5,2" d="M1764,-129.82C1764,-119.69 1764,-106.6 1764,-94.92"/>
<polygon fill="black" stroke="black" points="1767.5,-94.95 1764,-84.95 1760.5,-94.95 1767.5,-94.95"/>
<text text-anchor="middle" x="1785" y="-102.8" font-family="DejaVu Sans Mono" font-size="14.00">calls</text>
</g>
<!-- input -->
<g id="node14" class="node">
<title>input</title>
<polygon fill="#afeeee" stroke="black" points="2240.04,-249 2152.48,-249 2129.96,-213 2217.52,-213 2240.04,-249"/>
<text text-anchor="middle" x="2185" y="-227.3" font-family="DejaVu Sans Mono" font-size="14.00">input</text>
</g>
<!-- call -->
<g id="node19" class="node">
<title>call</title>
<polygon fill="#e552ff" stroke="black" points="2212,-166 2170,-166 2170,-170 2158,-170 2158,-130 2212,-130 2212,-166"/>
<polyline fill="none" stroke="black" points="2158,-166 2170,-166"/>
<text text-anchor="middle" x="2185" y="-144.3" font-family="DejaVu Sans Mono" font-size="14.00">call</text>
</g>
<!-- input&#45;&gt;call -->
<!-- default -->
<g id="node15" class="node">
<title>default</title>
<polygon fill="#fffb81" stroke="black" points="2086,-166 2012,-166 2012,-130 2086,-130 2086,-166"/>
<text text-anchor="middle" x="2049" y="-144.3" font-family="DejaVu Sans Mono" font-size="14.00">default</text>
</g>
<!-- if -->
<g id="node16" class="node">
<title>if</title>
<polygon fill="#ff6752" stroke="black" points="2185,-370 2154.83,-352 2185,-334 2215.17,-352 2185,-370"/>
<text text-anchor="middle" x="2185" y="-348.3" font-family="DejaVu Sans Mono" font-size="14.00">if</text>
</g>
<!-- if&#45;&gt;input -->
<!-- for -->
<g id="node17" class="node">
<title>for</title>
<polygon fill="#ffbe52" stroke="black" points="2135.54,-352 2120.27,-370 2089.73,-370 2074.46,-352 2089.73,-334 2120.27,-334 2135.54,-352"/>
<text text-anchor="middle" x="2105" y="-348.3" font-family="DejaVu Sans Mono" font-size="14.00">for</text>
</g>
<!-- return -->
<g id="node20" class="node">
<title>return</title>
<polygon fill="#98fb98" stroke="black" points="2111.79,-249 2011.91,-249 1986.21,-213 2086.09,-213 2111.79,-249"/>
<text text-anchor="middle" x="2049" y="-227.3" font-family="DejaVu Sans Mono" font-size="14.00">return</text>
</g>
<!-- for&#45;&gt;return -->
<!-- while -->
<g id="node18" class="node">
<title>while</title>
<polygon fill="#ffbe52" stroke="black" points="2056.56,-352 2034.78,-370 1991.22,-370 1969.44,-352 1991.22,-334 2034.78,-334 2056.56,-352"/>
<text text-anchor="middle" x="2013" y="-348.3" font-family="DejaVu Sans Mono" font-size="14.00">while</text>
</g>
<!-- return&#45;&gt;default -->
<!-- try -->
<g id="node21" class="node">
<title>try</title>
<polygon fill="orange" stroke="black" points="1914,-370 1876.13,-352 1914,-334 1951.87,-352 1914,-370"/>
<polyline fill="none" stroke="black" points="1886.97,-357.15 1886.97,-346.85"/>
<polyline fill="none" stroke="black" points="1903.16,-339.15 1924.84,-339.15"/>
<polyline fill="none" stroke="black" points="1941.03,-346.85 1941.03,-357.15"/>
<polyline fill="none" stroke="black" points="1924.84,-364.85 1903.16,-364.85"/>
<text text-anchor="middle" x="1914" y="-348.3" font-family="DejaVu Sans Mono" font-size="14.00">try</text>
</g>
<!-- raise -->
<g id="node22" class="node">
<title>raise</title>
<polygon fill="#98fb98" stroke="black" points="1968.69,-236.56 1922,-249 1875.31,-236.56 1875.35,-216.44 1968.65,-216.44 1968.69,-236.56"/>
<text text-anchor="middle" x="1922" y="-227.3" font-family="DejaVu Sans Mono" font-size="14.00">raise</text>
</g>
<!-- try&#45;&gt;raise -->
</g>
</svg>
