<?xml version="1.0" encoding="UTF-8" standalone="no"?>
<!DOCTYPE svg PUBLIC "-//W3C//DTD SVG 1.1//EN"
 "http://www.w3.org/Graphics/SVG/1.1/DTD/svg11.dtd">
<!-- Generated by graphviz version 7.1.0 (0)
 -->
<!-- Title: cluster0udp_echo_server.py Pages: 1 -->
<svg width="1633pt" height="869pt"
 viewBox="0.00 0.00 1633.00 869.00" xmlns="http://www.w3.org/2000/svg" xmlns:xlink="http://www.w3.org/1999/xlink">
<g id="graph0" class="graph" transform="scale(1 1) rotate(0) translate(4 865)">
<title>cluster0udp_echo_server.py</title>
<polygon fill="white" stroke="none" points="-4,4 -4,-865 1629,-865 1629,4 -4,4"/>
<text text-anchor="middle" x="812.5" y="-7.8" font-family="DejaVu Sans Mono" font-size="14.00">udp_echo_server.py</text>
<g id="clust1" class="cluster">
<title>cluster_1</title>
<polygon fill="purple" stroke="purple" points="643,-635 643,-687 1093,-687 1093,-635 643,-635"/>
</g>
<g id="clust2" class="cluster">
<title>cluster_7</title>
<polygon fill="purple" stroke="purple" points="63,-474.5 63,-526.5 213,-526.5 213,-474.5 63,-474.5"/>
</g>
<g id="clust3" class="cluster">
<title>cluster_6</title>
<polygon fill="purple" stroke="purple" points="113,-376 113,-428 303,-428 303,-376 113,-376"/>
</g>
<g id="clust4" class="cluster">
<title>cluster_10</title>
<polygon fill="purple" stroke="purple" points="522,-474.5 522,-526.5 596,-526.5 596,-474.5 522,-474.5"/>
</g>
<g id="clust5" class="cluster">
<title>cluster_13</title>
<polygon fill="purple" stroke="purple" points="311,-301 311,-428 1077,-428 1077,-301 311,-301"/>
</g>
<g id="clust6" class="cluster">
<title>cluster_29</title>
<polygon fill="purple" stroke="purple" points="1162,-31 1162,-83 1360,-83 1360,-31 1162,-31"/>
</g>
<g id="clust7" class="cluster">
<title>cluster_KEY</title>
<polygon fill="none" stroke="black" points="1236,-573 1236,-838.5 1617,-838.5 1617,-573 1236,-573"/>
<text text-anchor="middle" x="1426.5" y="-823.3" font-family="DejaVu Sans Mono" font-size="14.00">KEY</text>
</g>
<!-- 1 -->
<g id="node1" class="node">
<title>1</title>
<polygon fill="#fffb81" stroke="black" points="1210,-861 566,-861 566,-718 1210,-718 1210,-861"/>
<text text-anchor="start" x="574" y="-845.8" font-family="DejaVu Sans Mono" font-size="14.00">&quot;&quot;&quot;</text>
<text text-anchor="start" x="574" y="-830.8" font-family="DejaVu Sans Mono" font-size="14.00">Given server code (already works)</text>
<text text-anchor="start" x="574" y="-815.8" font-family="DejaVu Sans Mono" font-size="14.00">&quot;&quot;&quot;</text>
<text text-anchor="start" x="574" y="-800.8" font-family="DejaVu Sans Mono" font-size="14.00">import random</text>
<text text-anchor="start" x="574" y="-785.8" font-family="DejaVu Sans Mono" font-size="14.00">import socket</text>
<text text-anchor="start" x="574" y="-770.8" font-family="DejaVu Sans Mono" font-size="14.00">import time</text>
<text text-anchor="start" x="574" y="-755.8" font-family="DejaVu Sans Mono" font-size="14.00">random.seed(a=42)</text>
<text text-anchor="start" x="574" y="-740.8" font-family="DejaVu Sans Mono" font-size="14.00">server_socket = socket.socket(family=socket.AF_INET, type=socket.SOCK_DGRAM)</text>
<text text-anchor="middle" x="888" y="-725.8" font-family="DejaVu Sans Mono" font-size="14.00">server_socket.bind((&#39;&#39;, 12000))</text>
</g>
<!-- 2 -->
<g id="node2" class="node">
<title>2</title>
<polygon fill="#e552ff" stroke="#e552ff" points="758.5,-679 663.5,-679 663.5,-683 651.5,-683 651.5,-643 758.5,-643 758.5,-679"/>
<polyline fill="none" stroke="#e552ff" points="651.5,-679 663.5,-679"/>
<text text-anchor="middle" x="705" y="-657.3" font-family="DejaVu Sans Mono" font-size="14.00">random.seed</text>
</g>
<!-- 1&#45;&gt;2 -->
<g id="edge1" class="edge">
<title>1&#45;&gt;2</title>
<path fill="none" stroke="black" stroke-dasharray="5,2" d="M785.53,-717.67C768.97,-706.22 752.9,-695.11 739.52,-685.86"/>
<polygon fill="black" stroke="black" points="741.75,-683.15 731.53,-680.34 737.77,-688.91 741.75,-683.15"/>
<text text-anchor="middle" x="790" y="-698.8" font-family="DejaVu Sans Mono" font-size="14.00">calls</text>
</g>
<!-- 3 -->
<g id="node3" class="node">
<title>3</title>
<polygon fill="#e552ff" stroke="#e552ff" points="901,-679 789,-679 789,-683 777,-683 777,-643 901,-643 901,-679"/>
<polyline fill="none" stroke="#e552ff" points="777,-679 789,-679"/>
<text text-anchor="middle" x="839" y="-657.3" font-family="DejaVu Sans Mono" font-size="14.00">socket.socket</text>
</g>
<!-- 1&#45;&gt;3 -->
<g id="edge2" class="edge">
<title>1&#45;&gt;3</title>
<path fill="none" stroke="black" stroke-dasharray="5,2" d="M860.63,-717.85C856.78,-707.89 853.01,-698.18 849.74,-689.72"/>
<polygon fill="black" stroke="black" points="853.03,-688.53 846.16,-680.47 846.5,-691.06 853.03,-688.53"/>
<text text-anchor="middle" x="877" y="-698.8" font-family="DejaVu Sans Mono" font-size="14.00">calls</text>
</g>
<!-- 4 -->
<g id="node4" class="node">
<title>4</title>
<polygon fill="#e552ff" stroke="#e552ff" points="1084.5,-679 931.5,-679 931.5,-683 919.5,-683 919.5,-643 1084.5,-643 1084.5,-679"/>
<polyline fill="none" stroke="#e552ff" points="919.5,-679 931.5,-679"/>
<text text-anchor="middle" x="1002" y="-657.3" font-family="DejaVu Sans Mono" font-size="14.00">server_socket.bind</text>
</g>
<!-- 1&#45;&gt;4 -->
<g id="edge3" class="edge">
<title>1&#45;&gt;4</title>
<path fill="none" stroke="black" stroke-dasharray="5,2" d="M951.67,-717.85C961.46,-706.99 970.98,-696.42 979.07,-687.45"/>
<polygon fill="black" stroke="black" points="981.52,-689.96 985.61,-680.18 976.32,-685.27 981.52,-689.96"/>
<text text-anchor="middle" x="992" y="-698.8" font-family="DejaVu Sans Mono" font-size="14.00">calls</text>
</g>
<!-- 5 -->
<g id="node5" class="node">
<title>5</title>
<polygon fill="orange" stroke="black" points="1148,-679 1102.08,-661 1148,-643 1193.92,-661 1148,-679"/>
<polyline fill="none" stroke="black" points="1113.26,-665.38 1113.26,-656.62"/>
<polyline fill="none" stroke="black" points="1136.83,-647.38 1159.17,-647.38"/>
<polyline fill="none" stroke="black" points="1182.74,-656.62 1182.74,-665.38"/>
<polyline fill="none" stroke="black" points="1159.17,-674.62 1136.83,-674.62"/>
<text text-anchor="middle" x="1148" y="-657.3" font-family="DejaVu Sans Mono" font-size="14.00">try:</text>
</g>
<!-- 1&#45;&gt;5 -->
<g id="edge30" class="edge">
<title>1&#45;&gt;5</title>
<path fill="none" stroke="black" d="M1034.2,-717.58C1055.28,-707.33 1076.7,-696.91 1097,-687 1103.75,-683.71 1110.99,-680.16 1117.84,-676.81"/>
<polygon fill="black" stroke="black" points="1119.35,-679.96 1126.79,-672.42 1116.27,-673.68 1119.35,-679.96"/>
</g>
<!-- 12 -->
<g id="node13" class="node">
<title>12</title>
<polygon fill="#ffbe52" stroke="black" points="1228.11,-599 1188.05,-617 1107.95,-617 1067.89,-599 1107.95,-581 1188.05,-581 1228.11,-599"/>
<text text-anchor="middle" x="1148" y="-595.3" font-family="DejaVu Sans Mono" font-size="14.00">while True:</text>
</g>
<!-- 5&#45;&gt;12 -->
<g id="edge29" class="edge">
<title>5&#45;&gt;12</title>
<path fill="none" stroke="black" d="M1148,-642.65C1148,-638.13 1148,-633.14 1148,-628.22"/>
<polygon fill="black" stroke="black" points="1151.5,-628.62 1148,-618.62 1144.5,-628.62 1151.5,-628.62"/>
</g>
<!-- 7 -->
<g id="node6" class="node">
<title>7</title>
<polygon fill="#fffb81" stroke="black" points="248,-618 0,-618 0,-580 248,-580 248,-618"/>
<text text-anchor="start" x="8" y="-602.8" font-family="DejaVu Sans Mono" font-size="14.00">print(&#39;Exception occured: &#39;)</text>
<text text-anchor="middle" x="124" y="-587.8" font-family="DejaVu Sans Mono" font-size="14.00">print(e)</text>
</g>
<!-- 8 -->
<g id="node7" class="node">
<title>8</title>
<polygon fill="#e552ff" stroke="#e552ff" points="205,-518.5 159,-518.5 159,-522.5 147,-522.5 147,-482.5 205,-482.5 205,-518.5"/>
<polyline fill="none" stroke="#e552ff" points="147,-518.5 159,-518.5"/>
<text text-anchor="middle" x="176" y="-496.8" font-family="DejaVu Sans Mono" font-size="14.00">print</text>
</g>
<!-- 7&#45;&gt;8 -->
<g id="edge4" class="edge">
<title>7&#45;&gt;8</title>
<path fill="none" stroke="black" stroke-dasharray="5,2" d="M140.77,-579.55C144.43,-574.99 148.08,-569.98 151,-565 157.47,-553.96 162.93,-540.94 167.08,-529.56"/>
<polygon fill="black" stroke="black" points="170.32,-530.9 170.29,-520.31 163.71,-528.61 170.32,-530.9"/>
<text text-anchor="middle" x="180" y="-553.8" font-family="DejaVu Sans Mono" font-size="14.00">calls</text>
</g>
<!-- 9 -->
<g id="node8" class="node">
<title>9</title>
<polygon fill="#e552ff" stroke="#e552ff" points="129,-518.5 83,-518.5 83,-522.5 71,-522.5 71,-482.5 129,-482.5 129,-518.5"/>
<polyline fill="none" stroke="#e552ff" points="71,-518.5 83,-518.5"/>
<text text-anchor="middle" x="100" y="-496.8" font-family="DejaVu Sans Mono" font-size="14.00">print</text>
</g>
<!-- 7&#45;&gt;9 -->
<g id="edge5" class="edge">
<title>7&#45;&gt;9</title>
<path fill="none" stroke="black" stroke-dasharray="5,2" d="M114.48,-579.51C112.4,-574.87 110.41,-569.83 109,-565 105.73,-553.77 103.62,-541.07 102.28,-530"/>
<polygon fill="black" stroke="black" points="105.79,-529.85 101.26,-520.26 98.83,-530.58 105.79,-529.85"/>
<text text-anchor="middle" x="130" y="-553.8" font-family="DejaVu Sans Mono" font-size="14.00">calls</text>
</g>
<!-- 6 -->
<g id="node9" class="node">
<title>6</title>
<polygon fill="#fffb81" stroke="black" points="472,-518.5 282,-518.5 282,-482.5 472,-482.5 472,-518.5"/>
<text text-anchor="middle" x="377" y="-496.8" font-family="DejaVu Sans Mono" font-size="14.00">server_socket.close()</text>
</g>
<!-- 7&#45;&gt;6 -->
<g id="edge7" class="edge">
<title>7&#45;&gt;6</title>
<path fill="none" stroke="black" d="M172.48,-579.51C214.77,-563.38 276.13,-539.97 320.6,-523.01"/>
<polygon fill="black" stroke="black" points="321.73,-526.33 329.82,-519.49 319.23,-519.79 321.73,-526.33"/>
</g>
<!-- 31 -->
<g id="node10" class="node">
<title>31</title>
<polygon fill="#e552ff" stroke="#e552ff" points="294.5,-420 133.5,-420 133.5,-424 121.5,-424 121.5,-384 294.5,-384 294.5,-420"/>
<polyline fill="none" stroke="#e552ff" points="121.5,-420 133.5,-420"/>
<text text-anchor="middle" x="208" y="-398.3" font-family="DejaVu Sans Mono" font-size="14.00">server_socket.close</text>
</g>
<!-- 6&#45;&gt;31 -->
<g id="edge6" class="edge">
<title>6&#45;&gt;31</title>
<path fill="none" stroke="black" stroke-dasharray="5,2" d="M346.4,-482.02C318.88,-466.31 278.27,-443.13 248.15,-425.93"/>
<polygon fill="black" stroke="black" points="250.11,-423.02 239.69,-421.1 246.64,-429.09 250.11,-423.02"/>
<text text-anchor="middle" x="309" y="-439.8" font-family="DejaVu Sans Mono" font-size="14.00">calls</text>
</g>
<!-- 10 -->
<g id="node11" class="node">
<title>10</title>
<polygon fill="#fffb81" stroke="black" points="852,-617 266,-617 266,-581 852,-581 852,-617"/>
<text text-anchor="middle" x="559" y="-595.3" font-family="DejaVu Sans Mono" font-size="14.00">print(&#39;An un&#45;caught exception occured (maybe you killed the server)&#39;)</text>
</g>
<!-- 10&#45;&gt;6 -->
<g id="edge9" class="edge">
<title>10&#45;&gt;6</title>
<path fill="none" stroke="black" d="M526.04,-580.52C496.28,-564.74 452.3,-541.42 419.82,-524.2"/>
<polygon fill="black" stroke="black" points="421.53,-521.15 411.05,-519.55 418.25,-527.33 421.53,-521.15"/>
</g>
<!-- 11 -->
<g id="node12" class="node">
<title>11</title>
<polygon fill="#e552ff" stroke="#e552ff" points="588,-518.5 542,-518.5 542,-522.5 530,-522.5 530,-482.5 588,-482.5 588,-518.5"/>
<polyline fill="none" stroke="#e552ff" points="530,-518.5 542,-518.5"/>
<text text-anchor="middle" x="559" y="-496.8" font-family="DejaVu Sans Mono" font-size="14.00">print</text>
</g>
<!-- 10&#45;&gt;11 -->
<g id="edge8" class="edge">
<title>10&#45;&gt;11</title>
<path fill="none" stroke="black" stroke-dasharray="5,2" d="M559,-580.75C559,-566.7 559,-546.58 559,-530.12"/>
<polygon fill="black" stroke="black" points="562.5,-530.44 559,-520.44 555.5,-530.44 562.5,-530.44"/>
<text text-anchor="middle" x="580" y="-553.8" font-family="DejaVu Sans Mono" font-size="14.00">calls</text>
</g>
<!-- 12&#45;&gt;6 -->
<g id="edge28" class="edge">
<title>12&#45;&gt;6</title>
<path fill="none" stroke="red" d="M1081.89,-592.16C920.92,-577.95 521.45,-542.64 518,-542 491.94,-537.15 463.77,-529.55 439.51,-522.23"/>
<polygon fill="red" stroke="red" points="440.7,-518.94 430.11,-519.35 438.64,-525.63 440.7,-518.94"/>
<text text-anchor="middle" x="788" y="-553.8" font-family="DejaVu Sans Mono" font-size="14.00">(False)</text>
</g>
<!-- 13 -->
<g id="node14" class="node">
<title>13</title>
<polygon fill="#fffb81" stroke="black" points="1075,-542 671,-542 671,-459 1075,-459 1075,-542"/>
<text text-anchor="start" x="679" y="-526.8" font-family="DejaVu Sans Mono" font-size="14.00">message, address = server_socket.recvfrom(1024)</text>
<text text-anchor="start" x="679" y="-511.8" font-family="DejaVu Sans Mono" font-size="14.00">dur = random.choice(range(100, 500, 10)) / 1000</text>
<text text-anchor="start" x="679" y="-496.8" font-family="DejaVu Sans Mono" font-size="14.00">goal = time.time() + dur</text>
<text text-anchor="start" x="679" y="-481.8" font-family="DejaVu Sans Mono" font-size="14.00">message_str = message.decode()</text>
<text text-anchor="middle" x="873" y="-466.8" font-family="DejaVu Sans Mono" font-size="14.00">rand = random.randint(0, 10)</text>
</g>
<!-- 12&#45;&gt;13 -->
<g id="edge27" class="edge">
<title>12&#45;&gt;13</title>
<path fill="none" stroke="green" d="M1103.82,-582.5C1075.57,-572.59 1037.39,-559.19 1000.21,-546.14"/>
<polygon fill="green" stroke="green" points="1001.78,-542.98 991.19,-542.97 999.47,-549.59 1001.78,-542.98"/>
<text text-anchor="middle" x="1068" y="-553.8" font-family="DejaVu Sans Mono" font-size="14.00">True</text>
</g>
<!-- 15 -->
<g id="node15" class="node">
<title>15</title>
<polygon fill="#e552ff" stroke="#e552ff" points="667,-420 481,-420 481,-424 469,-424 469,-384 667,-384 667,-420"/>
<polyline fill="none" stroke="#e552ff" points="469,-420 481,-420"/>
<text text-anchor="middle" x="568" y="-398.3" font-family="DejaVu Sans Mono" font-size="14.00">server_socket.recvfrom</text>
</g>
<!-- 13&#45;&gt;15 -->
<g id="edge10" class="edge">
<title>13&#45;&gt;15</title>
<path fill="none" stroke="black" stroke-dasharray="5,2" d="M743.65,-458.58C705.73,-446.58 665.84,-433.96 633.69,-423.78"/>
<polygon fill="black" stroke="black" points="635.12,-420.57 624.53,-420.89 633.01,-427.24 635.12,-420.57"/>
<text text-anchor="middle" x="732" y="-439.8" font-family="DejaVu Sans Mono" font-size="14.00">calls</text>
</g>
<!-- 16 -->
<g id="node16" class="node">
<title>16</title>
<polygon fill="#e552ff" stroke="#e552ff" points="809,-420 697,-420 697,-424 685,-424 685,-384 809,-384 809,-420"/>
<polyline fill="none" stroke="#e552ff" points="685,-420 697,-420"/>
<text text-anchor="middle" x="747" y="-398.3" font-family="DejaVu Sans Mono" font-size="14.00">random.choice</text>
</g>
<!-- 13&#45;&gt;16 -->
<g id="edge11" class="edge">
<title>13&#45;&gt;16</title>
<path fill="none" stroke="black" stroke-dasharray="5,2" d="M819.56,-458.58C805.67,-447.93 791.14,-436.8 778.76,-427.32"/>
<polygon fill="black" stroke="black" points="781.03,-424.65 770.96,-421.35 776.77,-430.21 781.03,-424.65"/>
<text text-anchor="middle" x="827" y="-439.8" font-family="DejaVu Sans Mono" font-size="14.00">calls</text>
</g>
<!-- 18 -->
<g id="node17" class="node">
<title>18</title>
<polygon fill="#e552ff" stroke="#e552ff" points="918.5,-420 839.5,-420 839.5,-424 827.5,-424 827.5,-384 918.5,-384 918.5,-420"/>
<polyline fill="none" stroke="#e552ff" points="827.5,-420 839.5,-420"/>
<text text-anchor="middle" x="873" y="-398.3" font-family="DejaVu Sans Mono" font-size="14.00">time.time</text>
</g>
<!-- 13&#45;&gt;18 -->
<g id="edge12" class="edge">
<title>13&#45;&gt;18</title>
<path fill="none" stroke="black" stroke-dasharray="5,2" d="M873,-458.58C873,-449.6 873,-440.28 873,-431.9"/>
<polygon fill="black" stroke="black" points="876.5,-431.94 873,-421.94 869.5,-431.94 876.5,-431.94"/>
<text text-anchor="middle" x="894" y="-439.8" font-family="DejaVu Sans Mono" font-size="14.00">calls</text>
</g>
<!-- 19 -->
<g id="node18" class="node">
<title>19</title>
<polygon fill="#e552ff" stroke="#e552ff" points="1069,-420 949,-420 949,-424 937,-424 937,-384 1069,-384 1069,-420"/>
<polyline fill="none" stroke="#e552ff" points="937,-420 949,-420"/>
<text text-anchor="middle" x="1003" y="-398.3" font-family="DejaVu Sans Mono" font-size="14.00">message.decode</text>
</g>
<!-- 13&#45;&gt;19 -->
<g id="edge13" class="edge">
<title>13&#45;&gt;19</title>
<path fill="none" stroke="black" stroke-dasharray="5,2" d="M928.13,-458.58C942.61,-447.83 957.76,-436.58 970.61,-427.04"/>
<polygon fill="black" stroke="black" points="972.36,-430.1 978.3,-421.33 968.19,-424.48 972.36,-430.1"/>
<text text-anchor="middle" x="978" y="-439.8" font-family="DejaVu Sans Mono" font-size="14.00">calls</text>
</g>
<!-- 20 -->
<g id="node19" class="node">
<title>20</title>
<polygon fill="#e552ff" stroke="#e552ff" points="451,-420 331,-420 331,-424 319,-424 319,-384 451,-384 451,-420"/>
<polyline fill="none" stroke="#e552ff" points="319,-420 331,-420"/>
<text text-anchor="middle" x="385" y="-398.3" font-family="DejaVu Sans Mono" font-size="14.00">random.randint</text>
</g>
<!-- 13&#45;&gt;20 -->
<g id="edge14" class="edge">
<title>13&#45;&gt;20</title>
<path fill="none" stroke="black" stroke-dasharray="5,2" d="M670.59,-470.69C603.15,-459.44 527.92,-445.1 460,-428 454.94,-426.73 449.73,-425.28 444.53,-423.74"/>
<polygon fill="black" stroke="black" points="445.94,-420.51 435.35,-420.92 443.88,-427.2 445.94,-420.51"/>
<text text-anchor="middle" x="581" y="-439.8" font-family="DejaVu Sans Mono" font-size="14.00">calls</text>
</g>
<!-- 21 -->
<g id="node21" class="node">
<title>21</title>
<polygon fill="#ff6752" stroke="black" points="1194,-420 1087.26,-402 1194,-384 1300.74,-402 1194,-420"/>
<text text-anchor="middle" x="1194" y="-398.3" font-family="DejaVu Sans Mono" font-size="14.00">if rand &lt; 4:</text>
</g>
<!-- 13&#45;&gt;21 -->
<g id="edge26" class="edge">
<title>13&#45;&gt;21</title>
<path fill="none" stroke="black" d="M1009.13,-458.58C1057.91,-443.91 1109.77,-428.32 1146.1,-417.4"/>
<polygon fill="black" stroke="black" points="1146.84,-420.83 1155.41,-414.6 1144.83,-414.13 1146.84,-420.83"/>
</g>
<!-- 17 -->
<g id="node20" class="node">
<title>17</title>
<polygon fill="#e552ff" stroke="#e552ff" points="776,-345 730,-345 730,-349 718,-349 718,-309 776,-309 776,-345"/>
<polyline fill="none" stroke="#e552ff" points="718,-345 730,-345"/>
<text text-anchor="middle" x="747" y="-323.3" font-family="DejaVu Sans Mono" font-size="14.00">range</text>
</g>
<!-- 16&#45;&gt;17 -->
<g id="edge15" class="edge">
<title>16&#45;&gt;17</title>
<path fill="none" stroke="black" d="M747,-383.7C747,-375.67 747,-365.9 747,-356.8"/>
<polygon fill="black" stroke="black" points="750.5,-356.94 747,-346.94 743.5,-356.94 750.5,-356.94"/>
</g>
<!-- 22 -->
<g id="node22" class="node">
<title>22</title>
<polygon fill="#fffb81" stroke="black" points="1413.5,-345 1330.5,-345 1330.5,-309 1413.5,-309 1413.5,-345"/>
<text text-anchor="middle" x="1372" y="-323.3" font-family="DejaVu Sans Mono" font-size="14.00">continue</text>
</g>
<!-- 21&#45;&gt;22 -->
<g id="edge17" class="edge">
<title>21&#45;&gt;22</title>
<path fill="none" stroke="green" d="M1227.79,-389.31C1243.13,-383.57 1261.3,-376.13 1277,-368 1287.84,-362.38 1289.04,-358.37 1300,-353 1301.23,-352.4 1309.14,-349.59 1319.3,-346.06"/>
<polygon fill="green" stroke="green" points="1320.31,-349.41 1328.62,-342.83 1318.03,-342.79 1320.31,-349.41"/>
<text text-anchor="middle" x="1333.5" y="-356.8" font-family="DejaVu Sans Mono" font-size="14.00">rand &lt; 4</text>
</g>
<!-- 24 -->
<g id="node23" class="node">
<title>24</title>
<polygon fill="#ff6752" stroke="black" points="1199,-345 1085.05,-327 1199,-309 1312.95,-327 1199,-345"/>
<text text-anchor="middle" x="1199" y="-323.3" font-family="DejaVu Sans Mono" font-size="14.00">if rand == 4:</text>
</g>
<!-- 21&#45;&gt;24 -->
<g id="edge25" class="edge">
<title>21&#45;&gt;24</title>
<path fill="none" stroke="red" d="M1188.07,-384.88C1185.97,-377.41 1184.27,-368.27 1186.63,-354.98"/>
<polygon fill="red" stroke="red" points="1189.99,-355.97 1188.93,-345.43 1183.19,-354.33 1189.99,-355.97"/>
<text text-anchor="middle" x="1231.5" y="-356.8" font-family="DejaVu Sans Mono" font-size="14.00">(rand &gt;= 4)</text>
</g>
<!-- 22&#45;&gt;12 -->
<g id="edge16" class="edge">
<title>22&#45;&gt;12</title>
<path fill="none" stroke="black" d="M1372.19,-345.4C1371.68,-352.68 1370.29,-361.04 1367,-368 1324.23,-458.36 1232.19,-536.1 1182.12,-573.77"/>
<polygon fill="black" stroke="black" points="1180.15,-570.87 1174.21,-579.64 1184.32,-576.49 1180.15,-570.87"/>
</g>
<!-- 25 -->
<g id="node24" class="node">
<title>25</title>
<polygon fill="#fffb81" stroke="black" points="1375,-270 1103,-270 1103,-234 1375,-234 1375,-270"/>
<text text-anchor="middle" x="1239" y="-248.3" font-family="DejaVu Sans Mono" font-size="14.00">message = b&#39;oops&#39; + message[4:]</text>
</g>
<!-- 24&#45;&gt;25 -->
<g id="edge23" class="edge">
<title>24&#45;&gt;25</title>
<path fill="none" stroke="green" d="M1207.68,-310.16C1212.45,-301.45 1218.51,-290.39 1224.03,-280.33"/>
<polygon fill="green" stroke="green" points="1227.04,-282.12 1228.77,-271.67 1220.9,-278.76 1227.04,-282.12"/>
<text text-anchor="middle" x="1261.5" y="-281.8" font-family="DejaVu Sans Mono" font-size="14.00">rand == 4</text>
</g>
<!-- 23 -->
<g id="node25" class="node">
<title>23</title>
<polygon fill="#ffbe52" stroke="black" points="1247.22,-199 1163.61,-217 996.39,-217 912.78,-199 996.39,-181 1163.61,-181 1247.22,-199"/>
<text text-anchor="middle" x="1080" y="-195.3" font-family="DejaVu Sans Mono" font-size="14.00">while time.time() &lt; goal:</text>
</g>
<!-- 24&#45;&gt;23 -->
<g id="edge24" class="edge">
<title>24&#45;&gt;23</title>
<path fill="none" stroke="red" d="M1152.98,-315.9C1097.99,-303.37 1012.19,-282.18 1003,-270 993.36,-257.23 994.27,-247.41 1003,-234 1005.37,-230.36 1008.24,-227.1 1011.44,-224.19"/>
<polygon fill="red" stroke="red" points="1013.53,-227 1019.41,-218.19 1009.32,-221.41 1013.53,-227"/>
<text text-anchor="middle" x="1048.5" y="-248.3" font-family="DejaVu Sans Mono" font-size="14.00">(rand != 4)</text>
</g>
<!-- 25&#45;&gt;23 -->
<g id="edge22" class="edge">
<title>25&#45;&gt;23</title>
<path fill="none" stroke="black" d="M1184.73,-233.59C1172,-229.51 1158.32,-225.12 1145.18,-220.91"/>
<polygon fill="black" stroke="black" points="1146.33,-217.6 1135.74,-217.88 1144.19,-224.27 1146.33,-217.6"/>
</g>
<!-- 23&#45;&gt;23 -->
<g id="edge21" class="edge">
<title>23&#45;&gt;23</title>
<path fill="none" stroke="green" d="M1228.34,-203.51C1250.42,-202.81 1265.36,-201.3 1265.36,-199 1265.36,-197.11 1255.31,-195.76 1239.51,-194.95"/>
<polygon fill="green" stroke="green" points="1239.99,-191.47 1229.85,-194.55 1239.7,-198.46 1239.99,-191.47"/>
<text text-anchor="middle" x="1339.86" y="-195.3" font-family="DejaVu Sans Mono" font-size="14.00">time.time() &lt; goal</text>
</g>
<!-- 29 -->
<g id="node26" class="node">
<title>29</title>
<polygon fill="#fffb81" stroke="black" points="1426,-150 1096,-150 1096,-114 1426,-114 1426,-150"/>
<text text-anchor="middle" x="1261" y="-128.3" font-family="DejaVu Sans Mono" font-size="14.00">server_socket.sendto(message, address)</text>
</g>
<!-- 23&#45;&gt;29 -->
<g id="edge20" class="edge">
<title>23&#45;&gt;29</title>
<path fill="none" stroke="red" d="M1128.5,-180.58C1151.03,-172.49 1178,-162.81 1201.72,-154.29"/>
<polygon fill="red" stroke="red" points="1202.71,-157.65 1210.94,-150.98 1200.34,-151.06 1202.71,-157.65"/>
<text text-anchor="middle" x="1273" y="-161.8" font-family="DejaVu Sans Mono" font-size="14.00">(time.time() &gt;= goal)</text>
</g>
<!-- 29&#45;&gt;12 -->
<g id="edge19" class="edge">
<title>29&#45;&gt;12</title>
<path fill="none" stroke="black" d="M1355.48,-150.45C1399.36,-161.34 1442,-177.26 1442,-198 1442,-501.5 1442,-501.5 1442,-501.5 1442,-507.64 1291.8,-554.31 1206.11,-580.42"/>
<polygon fill="black" stroke="black" points="1205.23,-577.03 1196.68,-583.3 1207.27,-583.73 1205.23,-577.03"/>
</g>
<!-- 30 -->
<g id="node27" class="node">
<title>30</title>
<polygon fill="#e552ff" stroke="#e552ff" points="1352,-75 1182,-75 1182,-79 1170,-79 1170,-39 1352,-39 1352,-75"/>
<polyline fill="none" stroke="#e552ff" points="1170,-75 1182,-75"/>
<text text-anchor="middle" x="1261" y="-53.3" font-family="DejaVu Sans Mono" font-size="14.00">server_socket.sendto</text>
</g>
<!-- 29&#45;&gt;30 -->
<g id="edge18" class="edge">
<title>29&#45;&gt;30</title>
<path fill="none" stroke="black" stroke-dasharray="5,2" d="M1261,-113.7C1261,-105.67 1261,-95.9 1261,-86.8"/>
<polygon fill="black" stroke="black" points="1264.5,-86.94 1261,-76.94 1257.5,-86.94 1264.5,-86.94"/>
<text text-anchor="middle" x="1282" y="-94.8" font-family="DejaVu Sans Mono" font-size="14.00">calls</text>
</g>
<!-- input -->
<g id="node28" class="node">
<title>input</title>
<polygon fill="#afeeee" stroke="black" points="1609.04,-679 1521.48,-679 1498.96,-643 1586.52,-643 1609.04,-679"/>
<text text-anchor="middle" x="1554" y="-657.3" font-family="DejaVu Sans Mono" font-size="14.00">input</text>
</g>
<!-- call -->
<g id="node33" class="node">
<title>call</title>
<polygon fill="#e552ff" stroke="black" points="1581,-617 1539,-617 1539,-621 1527,-621 1527,-581 1581,-581 1581,-617"/>
<polyline fill="none" stroke="black" points="1527,-617 1539,-617"/>
<text text-anchor="middle" x="1554" y="-595.3" font-family="DejaVu Sans Mono" font-size="14.00">call</text>
</g>
<!-- input&#45;&gt;call -->
<!-- default -->
<g id="node29" class="node">
<title>default</title>
<polygon fill="#fffb81" stroke="black" points="1455,-617 1381,-617 1381,-581 1455,-581 1455,-617"/>
<text text-anchor="middle" x="1418" y="-595.3" font-family="DejaVu Sans Mono" font-size="14.00">default</text>
</g>
<!-- if -->
<g id="node30" class="node">
<title>if</title>
<polygon fill="#ff6752" stroke="black" points="1554,-807.5 1523.83,-789.5 1554,-771.5 1584.17,-789.5 1554,-807.5"/>
<text text-anchor="middle" x="1554" y="-785.8" font-family="DejaVu Sans Mono" font-size="14.00">if</text>
</g>
<!-- if&#45;&gt;input -->
<!-- for -->
<g id="node31" class="node">
<title>for</title>
<polygon fill="#ffbe52" stroke="black" points="1504.54,-789.5 1489.27,-807.5 1458.73,-807.5 1443.46,-789.5 1458.73,-771.5 1489.27,-771.5 1504.54,-789.5"/>
<text text-anchor="middle" x="1474" y="-785.8" font-family="DejaVu Sans Mono" font-size="14.00">for</text>
</g>
<!-- return -->
<g id="node34" class="node">
<title>return</title>
<polygon fill="#98fb98" stroke="black" points="1480.79,-679 1380.91,-679 1355.21,-643 1455.09,-643 1480.79,-679"/>
<text text-anchor="middle" x="1418" y="-657.3" font-family="DejaVu Sans Mono" font-size="14.00">return</text>
</g>
<!-- for&#45;&gt;return -->
<!-- while -->
<g id="node32" class="node">
<title>while</title>
<polygon fill="#ffbe52" stroke="black" points="1425.56,-789.5 1403.78,-807.5 1360.22,-807.5 1338.44,-789.5 1360.22,-771.5 1403.78,-771.5 1425.56,-789.5"/>
<text text-anchor="middle" x="1382" y="-785.8" font-family="DejaVu Sans Mono" font-size="14.00">while</text>
</g>
<!-- return&#45;&gt;default -->
<!-- try -->
<g id="node35" class="node">
<title>try</title>
<polygon fill="orange" stroke="black" points="1283,-807.5 1245.13,-789.5 1283,-771.5 1320.87,-789.5 1283,-807.5"/>
<polyline fill="none" stroke="black" points="1255.97,-794.65 1255.97,-784.35"/>
<polyline fill="none" stroke="black" points="1272.16,-776.65 1293.84,-776.65"/>
<polyline fill="none" stroke="black" points="1310.03,-784.35 1310.03,-794.65"/>
<polyline fill="none" stroke="black" points="1293.84,-802.35 1272.16,-802.35"/>
<text text-anchor="middle" x="1283" y="-785.8" font-family="DejaVu Sans Mono" font-size="14.00">try</text>
</g>
<!-- raise -->
<g id="node36" class="node">
<title>raise</title>
<polygon fill="#98fb98" stroke="black" points="1337.69,-666.56 1291,-679 1244.31,-666.56 1244.35,-646.44 1337.65,-646.44 1337.69,-666.56"/>
<text text-anchor="middle" x="1291" y="-657.3" font-family="DejaVu Sans Mono" font-size="14.00">raise</text>
</g>
<!-- try&#45;&gt;raise -->
</g>
</svg>
